<?xml version="1.0" standalone="no"?><!-- Generator: Gravit.io --><svg xmlns="http://www.w3.org/2000/svg" xmlns:xlink="http://www.w3.org/1999/xlink" style="isolation:isolate" viewBox="0 0 120 80.25" width="120" height="80.25"><defs><clipPath id="_clipPath_Vw1ftC5U2xZSEmnxnjNTS9VlGZr4Aali"><rect width="120" height="80.25"/></clipPath></defs><g clip-path="url(#_clipPath_Vw1ftC5U2xZSEmnxnjNTS9VlGZr4Aali)"><g><g><circle vector-effect="non-scaling-stroke" cx="66.58537631087447" cy="45.32382117044922" r="28.3229764717251" fill="rgb(58,64,66)"/><g><path d=" M 29.569 41.719 C 26.354 40.933 24.471 37.94 25.278 34.646 C 25.763 32.664 27.174 31.157 28.952 30.582 L 29.674 33.041 C 28.713 33.319 27.984 34.134 27.713 35.243 C 27.239 37.178 28.229 38.744 30.181 39.222 C 32.132 39.699 33.733 38.767 34.206 36.831 C 34.478 35.723 34.211 34.648 33.483 33.974 L 35.258 32.125 C 36.575 33.44 37.13 35.429 36.641 37.428 C 35.836 40.721 32.785 42.506 29.569 41.719 Z " fill="rgb(58,64,66)"/><path d=" M 34.313 30.622 C 32.268 29.377 31.675 26.797 32.904 24.779 C 34.132 22.762 36.696 22.103 38.741 23.348 C 40.786 24.593 41.379 27.173 40.15 29.191 C 38.923 31.208 36.358 31.867 34.313 30.622 Z  M 37.488 25.407 C 36.513 24.813 35.451 25.108 34.908 26 C 34.364 26.891 34.591 27.97 35.566 28.564 C 36.541 29.157 37.603 28.863 38.147 27.971 C 38.69 27.079 38.462 26 37.488 25.407 Z " fill="rgb(58,64,66)"/><path d=" M 34.341 16.957 L 35.983 15.191 L 44.572 23.187 L 42.928 24.951 L 34.341 16.957 Z " fill="rgb(58,64,66)"/><path d=" M 38.078 13.213 L 39.926 11.666 L 47.456 20.658 L 45.608 22.204 L 38.078 13.213 Z " fill="rgb(58,64,66)"/><path d=" M 51.788 8.763 L 55.568 15.852 L 53.441 16.987 L 53.086 16.32 C 52.905 17.108 52.384 17.805 51.434 18.312 C 49.576 19.302 47.175 18.488 46.049 16.375 C 44.923 14.263 45.585 11.815 47.443 10.825 C 48.393 10.319 49.261 10.274 50.016 10.563 L 49.661 9.897 L 51.788 8.763 Z  M 51.552 13.442 C 50.984 12.378 49.92 12.09 48.941 12.611 C 47.963 13.133 47.609 14.177 48.176 15.241 C 48.744 16.304 49.807 16.592 50.786 16.071 C 51.764 15.55 52.118 14.505 51.552 13.442 Z " fill="rgb(58,64,66)"/><path d=" M 64.257 9.899 C 64.718 12.249 63.369 14.395 61.304 14.8 C 60.247 15.007 59.403 14.795 58.766 14.298 L 58.911 15.039 L 56.545 15.502 L 54.385 4.463 L 56.75 4 L 57.513 7.896 C 57.916 7.194 58.618 6.681 59.674 6.474 C 61.74 6.069 63.798 7.55 64.257 9.899 Z  M 61.892 10.362 C 61.66 9.179 60.727 8.592 59.639 8.805 C 58.552 9.019 57.908 9.914 58.139 11.096 C 58.371 12.28 59.304 12.866 60.393 12.653 C 61.48 12.44 62.123 11.545 61.892 10.362 Z " fill="rgb(58,64,66)"/><path d=" M 66.823 14.122 L 65.797 13.029 L 65.978 7.376 L 67.072 6.35 L 68.613 6.399 L 69.639 7.492 L 69.595 8.858 L 68.969 8.838 L 69.006 7.682 L 68.307 6.935 L 67.343 6.905 L 66.597 7.604 L 66.43 12.84 L 67.129 13.586 L 68.093 13.616 L 68.839 12.917 L 68.875 11.76 L 69.502 11.781 L 69.458 13.146 L 68.365 14.172 L 66.823 14.122 Z " fill="rgb(58,64,66)"/><path d=" M 71.563 14.522 L 70.72 13.281 L 71.783 7.726 L 73.024 6.883 L 74.759 7.215 L 75.602 8.456 L 74.54 14.012 L 73.298 14.854 L 71.563 14.522 Z  M 71.949 14.04 L 73.117 14.264 L 73.964 13.689 L 74.948 8.544 L 74.373 7.698 L 73.205 7.475 L 72.359 8.049 L 71.374 13.194 L 71.949 14.04 Z " fill="rgb(58,64,66)"/><path d=" M 76.459 15.724 L 75.831 14.363 L 77.784 9.055 L 79.146 8.426 L 80.277 8.842 L 80.877 10.141 L 82.37 6.085 L 82.959 6.302 L 79.129 16.707 L 78.586 16.507 L 78.912 15.531 L 77.591 16.141 L 76.459 15.724 Z  M 76.919 15.312 L 77.598 15.561 L 79.145 14.846 L 80.621 10.835 L 79.907 9.288 L 79.229 9.038 L 78.3 9.467 L 76.491 14.383 L 76.919 15.312 Z " fill="rgb(58,64,66)"/><path d=" M 81.271 17.795 L 80.868 16.35 L 83.649 11.424 L 85.094 11.022 L 86.577 11.858 L 86.979 13.303 L 85.534 15.865 L 82.749 14.293 L 81.517 16.476 L 81.791 17.461 L 82.771 18.014 L 83.756 17.74 L 84.23 16.9 L 84.775 17.208 L 84.199 18.23 L 82.754 18.632 L 81.271 17.795 Z  M 83.017 13.817 L 85.257 15.081 L 86.33 13.177 L 86.057 12.192 L 85.076 11.639 L 84.092 11.913 L 83.017 13.817 Z " fill="rgb(58,64,66)"/></g><g><path d=" M 90.35 42.042 C 82.608 42.042 79.161 51.044 79.055 51.325 C 78.806 52.092 77.101 57.537 77.101 61.891 C 77.101 70.12 70.275 74.881 61.996 74.881 C 53.647 74.881 46.884 70.048 46.884 61.703 C 46.884 61.703 46.884 57.092 47.445 52.998 C 46.113 51.492 45.918 49.079 45.918 49.079 C 45.918 49.079 45.357 49.189 44.844 49.616 C 44.781 49.669 44.684 49.618 44.693 49.536 C 44.845 48.248 46.149 45.516 48.732 45.123 C 49.184 43.295 50.04 41.361 50.235 40.995 C 52.853 36.114 58.001 32.797 63.926 32.797 C 66.1 32.797 68.167 33.242 70.046 34.05 C 75.269 34.05 77.792 31.277 77.792 31.277 C 78.965 31.277 80.379 34.346 79.724 35.489 C 79.708 35.517 79.743 35.55 79.771 35.532 C 81.947 34.146 83.173 30.726 83.173 30.726 C 85.658 31.969 86.962 37.551 85.627 38.886 C 89.915 39.547 91.069 42.042 90.35 42.042 Z " fill="rgb(255,252,238)"/></g><g><path d=" M 61.621 74.874 C 53.445 74.733 46.883 69.925 46.883 61.704 C 46.883 61.704 46.814 60.524 47.007 57.748 C 55.556 56.404 51.354 68.656 61.621 74.874 Z " fill="rgb(234,230,218)"/></g><g><path d=" M 90.549 41.823 C 90.549 41.96 90.481 42.042 90.351 42.042 C 90.227 42.042 90.108 42.045 89.984 42.049 C 83.115 42.278 80.068 48.936 79.552 50.202 C 79.548 50.209 79.545 50.216 79.541 50.222 C 79.26 50.801 79.103 51.201 79.062 51.304 C 79.295 50.277 79.452 49.291 79.452 48.319 C 79.452 45.119 78.483 42.144 76.823 39.673 C 75.163 37.205 72.815 35.237 70.049 34.049 C 70.183 34.049 70.316 34.046 70.45 34.042 C 70.532 34.042 70.614 34.039 70.697 34.032 C 70.782 34.032 70.868 34.025 70.953 34.022 C 71.083 34.011 71.207 34.001 71.33 33.991 C 71.405 33.984 71.48 33.977 71.556 33.967 C 72.062 33.916 72.538 33.833 72.983 33.734 C 73.062 33.714 73.14 33.696 73.216 33.676 C 73.298 33.659 73.38 33.638 73.462 33.614 C 73.555 33.59 73.647 33.566 73.736 33.539 C 73.88 33.494 74.024 33.45 74.16 33.405 C 74.27 33.368 74.38 33.33 74.482 33.289 C 74.588 33.251 74.694 33.214 74.794 33.169 C 74.896 33.131 74.992 33.09 75.088 33.046 C 75.276 32.964 75.458 32.878 75.629 32.792 C 75.845 32.683 76.043 32.573 76.228 32.464 C 76.532 32.286 76.789 32.111 77.001 31.954 C 77.258 31.762 77.453 31.598 77.583 31.478 C 77.587 31.475 77.587 31.475 77.59 31.471 C 77.72 31.362 77.908 31.365 78.038 31.475 C 78.685 32.036 80.359 33.7 79.733 35.466 C 79.729 35.473 79.726 35.48 79.722 35.486 C 79.716 35.503 79.722 35.517 79.733 35.524 C 79.743 35.534 79.76 35.541 79.774 35.531 C 79.839 35.49 79.901 35.449 79.966 35.401 C 80.109 35.298 80.253 35.189 80.387 35.069 C 80.438 35.024 80.49 34.976 80.541 34.928 C 80.623 34.853 80.705 34.771 80.784 34.689 C 80.821 34.651 80.859 34.613 80.893 34.573 C 80.9 34.566 80.907 34.559 80.914 34.552 C 80.938 34.528 80.958 34.504 80.979 34.48 C 81.003 34.453 81.027 34.429 81.047 34.405 C 81.054 34.398 81.057 34.391 81.061 34.388 C 81.098 34.346 81.133 34.306 81.163 34.264 C 81.184 34.24 81.205 34.22 81.222 34.196 C 81.283 34.121 81.345 34.042 81.403 33.967 C 81.437 33.922 81.472 33.877 81.502 33.833 C 81.513 33.823 81.519 33.812 81.523 33.802 C 81.523 33.802 81.53 33.799 81.53 33.795 C 81.564 33.751 81.598 33.706 81.625 33.662 C 81.663 33.61 81.701 33.559 81.732 33.508 C 81.749 33.491 81.759 33.47 81.769 33.453 C 81.783 33.436 81.793 33.419 81.803 33.402 C 81.831 33.364 81.855 33.326 81.879 33.289 C 81.93 33.21 81.981 33.128 82.029 33.049 C 82.033 33.046 82.036 33.042 82.036 33.039 C 82.087 32.96 82.132 32.881 82.176 32.803 C 82.187 32.789 82.194 32.775 82.2 32.761 C 82.269 32.648 82.331 32.536 82.389 32.426 C 82.413 32.385 82.433 32.347 82.454 32.31 C 82.495 32.234 82.532 32.156 82.57 32.084 C 82.601 32.026 82.628 31.968 82.659 31.913 C 82.659 31.909 82.659 31.906 82.662 31.902 C 82.666 31.889 82.673 31.875 82.68 31.865 C 82.717 31.793 82.752 31.721 82.782 31.653 C 82.806 31.601 82.83 31.55 82.851 31.502 C 82.864 31.475 82.875 31.451 82.885 31.427 C 82.892 31.413 82.899 31.399 82.905 31.386 C 82.929 31.327 82.953 31.276 82.974 31.225 C 82.981 31.208 82.988 31.194 82.998 31.177 C 83.118 30.985 83.388 30.958 83.542 31.136 C 84.052 31.721 84.983 32.871 85.647 34.172 C 85.664 34.213 85.675 34.254 85.692 34.295 C 86.28 36.102 86.352 38.029 85.692 38.813 C 85.671 38.837 85.651 38.861 85.627 38.885 C 85.894 38.926 86.15 38.974 86.394 39.029 C 86.496 39.053 86.596 39.077 86.695 39.101 C 86.746 39.114 86.798 39.128 86.845 39.142 C 86.941 39.166 87.034 39.193 87.123 39.221 C 88.27 39.566 89.098 40.049 89.652 40.518 C 89.7 40.559 89.745 40.6 89.789 40.641 C 89.796 40.644 89.803 40.648 89.806 40.655 C 89.851 40.696 89.892 40.737 89.933 40.778 C 89.974 40.819 90.015 40.86 90.053 40.905 C 90.091 40.946 90.128 40.987 90.159 41.028 C 90.217 41.096 90.269 41.165 90.313 41.23 C 90.447 41.432 90.522 41.61 90.543 41.747 C 90.546 41.775 90.549 41.799 90.549 41.823 Z " fill="rgb(242,90,112)"/></g><path d=" M 49.369 45.076 C 46.363 45.076 44.853 48.148 44.692 49.537 C 44.682 49.621 44.778 49.671 44.843 49.617 C 45.358 49.19 45.92 49.078 45.92 49.078 C 45.92 49.078 46.333 54.183 50.059 54.183 C 54.612 54.183 54.198 45.076 49.369 45.076 Z " fill="rgb(130,130,130)"/><g><path d=" M 64.752 68.293 C 66.998 68.685 71.24 69.017 72.412 67.844 C 73.171 67.085 70.68 63.699 68.342 61.432 C 67.756 60.833 66.687 60.392 65.651 60.392 C 63.441 60.392 61.65 62.183 61.65 64.394 C 61.65 66.367 62.874 67.964 64.752 68.293 Z " fill="rgb(244,241,228)"/></g><path d=" M 87.681 37.963 C 88.2 35.888 87.139 33.188 84.575 30.237 C 84.25 29.863 83.78 29.648 83.286 29.648 C 82.601 29.648 81.984 30.055 81.714 30.684 C 81.566 31.027 81.209 31.806 80.695 32.591 C 80.176 31.61 79.407 30.852 78.932 30.441 C 78.62 30.171 78.221 30.022 77.81 30.022 C 77.384 30.022 76.976 30.181 76.661 30.468 C 76.105 30.975 74.032 32.602 70.315 32.677 C 68.289 31.848 66.141 31.427 63.926 31.427 C 57.688 31.427 51.979 34.845 49.028 40.347 C 48.839 40.701 48.128 42.286 47.622 43.989 C 45.031 44.866 43.543 47.595 43.333 49.375 C 43.284 49.789 43.415 50.204 43.691 50.515 C 43.969 50.828 44.368 51.006 44.785 51.006 C 44.825 51.006 44.865 51.005 44.905 51.002 C 45.121 51.746 45.466 52.612 46.013 53.39 C 45.52 57.364 45.514 61.52 45.514 61.703 C 45.514 66.1 47.217 69.826 50.438 72.478 C 53.392 74.91 57.497 76.25 61.995 76.25 C 71.695 76.25 78.469 70.345 78.469 61.891 C 78.469 57.76 80.109 52.518 80.347 51.78 C 80.588 51.154 83.72 43.411 90.35 43.411 C 91.178 43.411 91.85 42.786 91.913 41.956 C 92.019 40.579 90.458 38.854 87.681 37.963 Z  M 72.332 71.073 C 69.706 73.198 66.035 74.367 61.995 74.367 C 51.912 74.367 47.399 68.007 47.399 61.703 C 47.399 61.661 47.405 57.765 47.837 54.013 C 48.44 54.432 49.171 54.696 50.059 54.696 C 51.232 54.696 52.207 54.178 52.879 53.198 C 53.446 52.37 53.758 51.245 53.758 50.03 C 53.758 47.394 52.236 44.597 49.416 44.565 C 49.871 43.013 50.528 41.539 50.688 41.237 C 53.311 36.348 58.384 33.31 63.927 33.31 C 65.984 33.31 67.975 33.718 69.845 34.521 C 72.505 35.664 74.77 37.544 76.395 39.959 C 78.057 42.435 78.936 45.325 78.936 48.319 C 78.936 49.918 78.492 51.552 77.977 53.443 C 77.327 55.835 76.589 58.545 76.589 61.891 C 76.589 65.644 75.117 68.819 72.332 71.073 Z  M 51.436 50.021 C 48.669 47.601 46.157 48.434 45.764 48.587 C 45.7 48.603 45.591 48.632 45.451 48.684 C 45.95 47.399 47.194 45.59 49.369 45.59 C 51.576 45.59 52.731 47.824 52.731 50.03 C 52.731 51.041 52.483 51.96 52.032 52.618 C 51.553 53.316 50.89 53.67 50.059 53.67 C 48.742 53.67 47.736 52.921 47.071 51.444 C 46.725 50.676 46.56 49.898 46.486 49.442 C 47.2 49.279 48.88 49.149 50.76 50.794 C 50.857 50.879 50.978 50.921 51.098 50.921 C 51.241 50.921 51.383 50.862 51.484 50.746 C 51.671 50.532 51.649 50.208 51.436 50.021 Z  M 77.583 31.48 C 77.648 31.421 77.729 31.392 77.81 31.392 C 77.89 31.392 77.971 31.42 78.036 31.477 C 78.607 31.971 79.974 33.322 79.861 34.845 C 79.29 35.295 78.643 35.594 77.932 35.594 C 77.648 35.594 77.418 35.824 77.418 36.107 C 77.418 36.391 77.648 36.621 77.932 36.621 C 80.894 36.621 82.779 32.968 83.418 31.496 C 84.496 32.381 85.288 34.266 85.549 35.869 C 85.724 36.948 85.661 37.877 85.394 38.346 C 84.808 38.265 84.167 38.216 83.451 38.216 C 83.167 38.216 82.937 38.445 82.937 38.729 C 82.937 39.013 83.167 39.243 83.451 39.243 C 87.419 39.243 88.977 40.71 89.544 41.556 C 84.398 41.924 81.373 45.793 79.961 48.239 C 79.945 45.069 79.008 42.01 77.246 39.387 C 75.697 37.084 73.601 35.241 71.147 34.002 C 74.821 33.715 76.944 32.063 77.583 31.48 Z " fill="rgb(58,64,66)"/><circle vector-effect="non-scaling-stroke" cx="59.1039080345597" cy="50.92144051954805" r="2.5456637132756015" fill="rgb(58,64,66)"/><g><path d=" M 68.833 69.175 C 66.917 69.175 65.022 68.861 64.663 68.799 L 64.663 68.799 C 62.554 68.43 61.136 66.66 61.136 64.394 C 61.136 61.905 63.161 59.879 65.651 59.879 C 66.799 59.879 67.999 60.348 68.709 61.073 C 70.381 62.695 73.053 65.867 73.065 67.433 C 73.068 67.831 72.909 68.074 72.775 68.207 C 72.023 68.959 70.421 69.175 68.833 69.175 Z  M 64.84 67.787 C 67.729 68.291 71.216 68.314 72.049 67.481 C 72.221 66.99 70.569 64.307 67.984 61.8 C 67.465 61.27 66.509 60.906 65.651 60.906 C 63.728 60.906 62.163 62.471 62.163 64.394 C 62.163 66.143 63.239 67.507 64.84 67.787 L 64.84 67.787 Z " fill="rgb(58,64,66)"/></g></g><path d=" M 33.483 33.975 C 34.211 34.649 34.478 35.723 34.206 36.832 C 33.733 38.767 32.132 39.699 30.181 39.222 C 28.229 38.744 27.239 37.178 27.713 35.243 C 27.984 34.135 28.713 33.32 29.674 33.042 L 28.953 30.582 C 27.175 31.157 25.764 32.664 25.278 34.647 C 24.472 37.94 26.354 40.933 29.57 41.719 C 32.785 42.506 35.836 40.721 36.642 37.428 C 37.131 35.43 36.575 33.44 35.259 32.125 L 33.483 33.975 Z " fill="rgb(58,64,66)"/></g></g></svg>