<?xml version="1.0" standalone="no"?><!-- Generator: Gravit.io --><svg xmlns="http://www.w3.org/2000/svg" xmlns:xlink="http://www.w3.org/1999/xlink" style="isolation:isolate" viewBox="0 0 180 120" width="180" height="120"><g><path d=" M 86.936 81.541 L 90.203 81.541 C 93.436 81.541 97.262 77.695 97.262 74.446 L 97.262 39.29 C 97.262 38.797 96.861 38.396 96.368 38.396 L 87.83 38.396 C 87.341 38.396 86.94 38.793 86.935 39.281 C 86.94 39.518 86.938 65.45 86.936 81.541 L 86.936 81.541 Z  M 58.471 38.396 C 57.978 38.396 57.577 38.797 57.577 39.29 C 57.575 54.725 57.582 64.545 57.587 70.594 L 57.591 76.357 C 57.591 86.445 69.167 92.64 77.467 92.64 C 79.786 92.64 85.18 92.1 85.18 87.098 L 85.182 83.295 L 77.419 83.295 C 72.176 83.295 67.911 79.029 67.911 73.786 L 67.911 39.29 C 67.911 38.797 67.51 38.396 67.017 38.396 L 58.471 38.396 Z  M 77.467 94.395 C 68.434 94.395 55.836 87.532 55.836 76.357 L 55.833 70.595 C 55.828 64.545 55.82 54.726 55.822 39.29 C 55.822 37.829 57.01 36.641 58.471 36.641 L 67.017 36.641 C 68.478 36.641 69.666 37.829 69.666 39.29 L 69.666 73.786 C 69.666 78.061 73.144 81.541 77.419 81.541 L 85.182 81.541 C 85.183 71.302 85.186 43.411 85.182 39.694 L 85.179 39.694 C 85.18 39.681 85.18 39.655 85.18 39.608 C 85.178 39.572 85.177 39.534 85.177 39.494 C 85.177 39.453 85.178 39.413 85.18 39.375 C 85.18 39.348 85.18 39.321 85.18 39.29 L 85.181 39.29 C 85.181 39.289 85.181 39.288 85.181 39.288 C 85.193 37.818 86.382 36.641 87.83 36.641 L 96.368 36.641 C 97.829 36.641 99.018 37.829 99.018 39.29 L 99.018 74.446 C 99.018 78.663 94.404 83.295 90.203 83.295 L 86.936 83.295 L 86.935 87.078 C 86.935 91.599 83.307 94.395 77.467 94.395 Z " fill="rgb(113,59,131)"/><path d=" M 18.657 81.603 C 19.146 81.603 19.547 81.207 19.551 80.719 C 19.546 80.483 19.549 54.549 19.551 38.46 L 16.283 38.46 C 13.05 38.46 9.224 42.305 9.224 45.554 L 9.224 80.71 C 9.224 81.203 9.625 81.603 10.118 81.603 L 18.657 81.603 Z  M 48.016 81.603 C 48.509 81.603 48.91 81.203 48.91 80.71 C 48.912 65.274 48.904 55.456 48.9 49.406 L 48.896 43.643 C 48.896 33.555 37.32 27.36 29.02 27.36 C 26.701 27.36 21.306 27.899 21.306 32.902 L 21.305 36.705 L 29.068 36.705 C 34.31 36.705 38.576 40.971 38.576 46.214 L 38.576 80.71 C 38.576 81.203 38.976 81.603 39.47 81.603 L 48.016 81.603 Z  M 48.016 83.359 L 39.47 83.359 C 38.009 83.359 36.821 82.171 36.821 80.71 L 36.821 46.214 C 36.821 41.938 33.343 38.46 29.068 38.46 L 21.305 38.46 C 21.304 48.698 21.301 76.588 21.305 80.306 L 21.307 80.306 C 21.307 80.318 21.307 80.346 21.307 80.391 C 21.309 80.428 21.309 80.467 21.309 80.506 C 21.309 80.547 21.308 80.587 21.306 80.626 C 21.306 80.651 21.306 80.68 21.306 80.71 L 21.306 80.71 C 21.306 80.711 21.306 80.711 21.306 80.713 C 21.293 82.182 20.105 83.359 18.657 83.359 L 10.118 83.359 C 8.658 83.359 7.469 82.171 7.469 80.71 L 7.469 45.554 C 7.469 41.336 12.082 36.705 16.283 36.705 L 19.551 36.705 L 19.551 32.922 C 19.551 28.401 23.18 25.605 29.02 25.605 C 38.052 25.605 50.651 32.467 50.651 43.643 L 50.654 49.404 C 50.659 55.454 50.667 65.274 50.664 80.71 C 50.664 82.171 49.476 83.359 48.016 83.359 Z " fill="rgb(113,59,131)"/><path d=" M 114.816 63.788 C 113.149 63.788 112.213 64.066 111.208 64.623 L 111.208 80.032 C 112.039 80.447 113.186 80.585 114.297 80.585 C 118.738 80.585 120.437 76.942 120.437 71.978 C 120.437 67.64 118.669 63.788 114.816 63.788 Z  M 114.364 81.904 C 112.177 81.904 110.375 81.314 109.368 80.619 L 109.368 53.924 L 111.208 53.924 L 111.208 63.579 C 112.143 63.06 113.22 62.644 115.198 62.644 C 119.431 62.644 122.314 66.253 122.314 71.978 C 122.314 77.74 119.606 81.904 114.364 81.904 Z " fill="rgb(115,116,118)"/><path d=" M 135.97 70.556 C 130.488 71.286 127.365 72.36 127.365 76.561 C 127.365 79.545 129.238 80.76 132.328 80.76 C 133.681 80.76 135.068 80.481 135.97 79.995 L 135.97 70.556 Z  M 132.085 81.904 C 127.504 81.904 125.526 79.718 125.526 76.561 C 125.526 71.562 130.107 70.036 135.97 69.446 L 135.97 68.16 C 135.97 64.795 133.991 63.86 131.425 63.86 C 129.62 63.86 128.058 64.518 127.085 65.072 L 126.566 63.86 C 127.538 63.303 129.482 62.506 131.633 62.506 C 134.758 62.506 137.742 63.86 137.742 68.196 L 137.742 80.585 C 136.388 81.385 134.41 81.904 132.085 81.904 Z " fill="rgb(115,116,118)"/><path d=" M 153.437 81.557 L 153.437 67.953 C 153.437 66.01 152.675 63.788 148.962 63.788 C 146.879 63.788 145.941 64.066 144.796 64.552 L 144.796 81.557 L 142.923 81.557 L 142.923 63.823 C 144.482 62.992 146.427 62.506 149.238 62.506 C 154.062 62.506 155.311 65.558 155.311 67.85 L 155.311 81.557 L 153.437 81.557 Z " fill="rgb(115,116,118)"/><path d=" M 170.343 81.557 L 162.363 71.806 L 162.292 71.806 L 162.292 81.557 L 160.487 81.557 L 160.487 53.924 L 162.292 53.924 L 162.292 71.735 L 162.363 71.735 L 169.719 62.851 L 171.801 62.851 L 164.098 71.772 L 172.531 81.557 L 170.343 81.557 Z " fill="rgb(115,116,118)"/></g></svg>