<?xml version="1.0" standalone="no"?><!-- Generator: Gravit.io --><svg xmlns="http://www.w3.org/2000/svg" xmlns:xlink="http://www.w3.org/1999/xlink" style="isolation:isolate" viewBox="0 0 400 267.5" width="400" height="267.5"><defs><clipPath id="_clipPath_2Q6qVBuqUixtTUFtIaa3xkGDsTLRAKpQ"><rect width="400" height="267.5"/></clipPath></defs><g clip-path="url(#_clipPath_2Q6qVBuqUixtTUFtIaa3xkGDsTLRAKpQ)"><g><clipPath id="_clipPath_Qh5UkN9ZwpZxk2XTEeBF5PH6raoONNuG"><path d=" M 16.105 74.709 L 16.105 192.791 L 383.895 192.791 L 383.895 74.709 L 16.105 74.709 Z " fill="rgb(255,255,255)"/></clipPath><g clip-path="url(#_clipPath_Qh5UkN9ZwpZxk2XTEeBF5PH6raoONNuG)"><path d=" M 124.715 165.841 C 122.438 165.319 120.025 164.989 117.583 164.989 C 113.407 164.989 109.607 165.712 106.804 166.881 C 106.496 167.033 106.276 167.357 106.276 167.723 C 106.276 167.859 106.31 167.994 106.36 168.109 C 106.692 169.068 106.148 170.108 103.435 170.706 C 99.413 171.59 96.874 175.74 95.422 177.117 C 93.716 178.738 88.898 179.732 89.623 178.766 C 90.191 178.013 92.358 175.657 93.677 173.112 C 94.857 170.837 95.907 170.19 97.354 168.018 C 97.778 167.383 99.424 165.146 99.903 163.376 C 100.441 161.651 100.259 159.482 100.466 158.591 C 100.762 157.302 101.976 154.511 102.068 152.934 C 102.121 152.042 98.344 154.207 96.553 154.207 C 94.762 154.207 93.017 153.133 91.416 153.056 C 89.435 152.965 88.162 154.586 86.369 154.301 C 85.346 154.138 84.484 153.235 82.695 153.169 C 80.148 153.076 77.036 154.586 71.191 154.397 C 65.442 154.209 60.131 147.13 59.406 146.004 C 58.557 144.685 57.519 144.685 56.389 145.724 C 55.257 146.76 53.863 145.945 53.466 145.248 C 52.712 143.931 50.695 140.075 47.572 139.265 C 43.254 138.146 41.067 141.655 41.351 144.449 C 41.639 147.284 43.472 148.079 44.321 149.586 C 45.169 151.095 45.603 152.065 47.201 152.733 C 48.332 153.207 48.753 153.903 48.416 154.833 C 48.121 155.642 46.943 155.827 46.169 155.865 C 44.524 155.944 43.37 155.497 42.529 154.96 C 41.551 154.334 40.755 153.469 39.902 152 C 38.914 150.377 37.358 149.669 35.545 149.669 C 34.682 149.669 33.873 149.897 33.155 150.267 C 30.314 151.747 26.933 152.621 23.292 152.621 L 19.186 152.625 C 27.06 175.976 49.139 192.791 75.148 192.791 C 95.922 192.791 114.191 182.063 124.715 165.841 Z " fill="rgb(254,254,254)"/></g><clipPath id="_clipPath_HU1O1bQWjJ8mfEqlaYDdLGZv6AvIDjZu"><path d=" M 16.105 74.709 L 16.105 192.791 L 383.895 192.791 L 383.895 74.709 L 16.105 74.709 Z " fill="rgb(255,255,255)"/></clipPath><g clip-path="url(#_clipPath_HU1O1bQWjJ8mfEqlaYDdLGZv6AvIDjZu)"><path d=" M 133.592 162.298 L 133.592 161.352 L 134.221 161.352 C 134.541 161.352 134.885 161.424 134.885 161.8 C 134.885 162.267 134.539 162.298 134.145 162.298 L 133.592 162.298 Z  M 133.592 162.689 L 134.125 162.689 L 134.929 164.009 L 135.446 164.009 L 134.576 162.665 C 135.028 162.611 135.368 162.374 135.368 161.831 C 135.368 161.225 135.012 160.964 134.292 160.964 L 133.132 160.964 L 133.132 164.009 L 133.592 164.009 L 133.592 162.689 Z " fill="rgb(41,41,41)"/></g><clipPath id="_clipPath_wybRkByL72YpOVKVbh0jPs2JnI1L6ddN"><path d=" M 16.105 74.709 L 16.105 192.791 L 383.895 192.791 L 383.895 74.709 L 16.105 74.709 Z " fill="rgb(255,255,255)"/></clipPath><g clip-path="url(#_clipPath_wybRkByL72YpOVKVbh0jPs2JnI1L6ddN)"><path d=" M 134.138 160.033 C 132.781 160.033 131.681 161.133 131.681 162.492 C 131.681 163.845 132.781 164.94 134.138 164.94 C 135.493 164.94 136.592 163.845 136.592 162.492 C 136.592 161.133 135.493 160.033 134.138 160.033 Z  M 137.123 162.49 C 137.123 164.134 135.786 165.472 134.138 165.472 C 132.491 165.472 131.153 164.134 131.153 162.49 C 131.153 160.842 132.491 159.505 134.138 159.505 C 135.786 159.505 137.123 160.842 137.123 162.49 Z " fill="rgb(41,41,41)"/></g><clipPath id="_clipPath_BOjQ0Hc8pGCUV38jzTpzqRuoJ0YK9uNp"><path d=" M 16.105 74.709 L 16.105 192.791 L 383.895 192.791 L 383.895 74.709 L 16.105 74.709 Z " fill="rgb(255,255,255)"/></clipPath><g clip-path="url(#_clipPath_BOjQ0Hc8pGCUV38jzTpzqRuoJ0YK9uNp)"><path d=" M 124.715 165.845 C 122.438 165.319 120.025 164.993 117.583 164.993 C 113.407 164.993 109.607 165.718 106.804 166.881 C 106.496 167.036 106.276 167.358 106.276 167.726 C 106.276 167.859 106.31 167.997 106.36 168.109 C 106.692 169.07 106.148 170.112 103.435 170.708 C 99.413 171.591 96.874 175.74 95.422 177.12 C 93.716 178.738 88.898 179.736 89.623 178.77 C 90.191 178.014 92.358 175.659 93.677 173.113 C 94.857 170.84 95.907 170.191 97.354 168.022 C 97.778 167.384 99.424 165.147 99.903 163.379 C 100.441 161.651 100.259 159.485 100.466 158.592 C 100.762 157.306 101.976 154.512 102.068 152.937 C 102.121 152.046 98.344 154.207 96.553 154.207 C 94.762 154.207 93.017 153.137 91.416 153.06 C 89.435 152.965 88.162 154.587 86.369 154.303 C 85.346 154.14 84.484 153.24 82.695 153.172 C 80.148 153.078 77.036 154.587 71.191 154.398 C 65.442 154.214 60.131 147.135 59.406 146.009 C 58.557 144.686 57.519 144.686 56.389 145.726 C 55.257 146.76 53.863 145.947 53.466 145.252 C 52.712 143.933 50.695 140.075 47.572 139.267 C 43.254 138.146 41.067 141.657 41.351 144.45 C 41.639 147.284 43.472 148.079 44.321 149.586 C 45.169 151.095 45.603 152.071 47.201 152.738 C 48.332 153.207 48.753 153.907 48.416 154.836 C 48.121 155.645 46.943 155.83 46.169 155.868 C 44.524 155.945 43.37 155.499 42.529 154.96 C 41.551 154.339 40.755 153.473 39.902 152.001 C 38.914 150.379 37.358 149.672 35.545 149.672 C 34.682 149.672 33.873 149.902 33.155 150.27 C 30.314 151.747 26.933 152.625 23.292 152.625 L 19.186 152.625 C 17.188 146.699 16.105 140.351 16.105 133.751 C 16.105 101.142 42.539 74.709 75.148 74.709 C 107.756 74.709 134.188 101.142 134.188 133.751 C 134.188 145.585 130.708 156.602 124.715 165.845 Z " fill="rgb(41,41,41)"/></g><clipPath id="_clipPath_jwIeFOaQJQQBS482UaJfyvIx6e8fOgfw"><path d=" M 16.105 74.709 L 16.105 192.791 L 383.895 192.791 L 383.895 74.709 L 16.105 74.709 Z " fill="rgb(255,255,255)"/></clipPath><g clip-path="url(#_clipPath_jwIeFOaQJQQBS482UaJfyvIx6e8fOgfw)"><path d=" M 164.285 137.476 C 164.285 132.061 164.173 128.078 163.954 124.476 L 172.81 124.476 L 173.189 132.159 L 173.48 132.159 C 175.469 126.464 180.186 123.562 184.553 123.562 C 185.551 123.562 186.134 123.6 186.952 123.783 L 186.952 133.418 C 185.995 133.229 185.1 133.127 183.87 133.127 C 178.997 133.127 175.614 136.227 174.702 140.863 C 174.529 141.765 174.437 142.847 174.437 143.949 L 174.437 164.926 L 164.203 164.926 L 164.285 137.476 Z " fill="rgb(41,41,41)"/></g><clipPath id="_clipPath_rfSZV9dGUyxsmH8tm5DwHpyczVwrTA33"><path d=" M 16.105 74.709 L 16.105 192.791 L 383.895 192.791 L 383.895 74.709 L 16.105 74.709 Z " fill="rgb(255,255,255)"/></clipPath><g clip-path="url(#_clipPath_rfSZV9dGUyxsmH8tm5DwHpyczVwrTA33)"><path d=" M 217.087 140.329 C 217.133 136.58 215.502 130.472 208.652 130.472 C 202.355 130.472 199.737 136.184 199.278 140.329 L 217.087 140.329 Z  M 199.299 147.453 C 199.57 154.783 205.242 157.99 211.792 157.99 C 216.495 157.99 219.862 157.253 222.954 156.117 L 224.467 163.153 C 221.007 164.623 216.203 165.718 210.333 165.718 C 197.197 165.718 189.503 157.608 189.503 145.214 C 189.503 134.05 196.276 123.485 209.287 123.485 C 222.439 123.485 226.719 134.303 226.719 143.158 C 226.719 145.058 226.551 146.585 226.357 147.527 L 199.299 147.453 Z " fill="rgb(41,41,41)"/></g><clipPath id="_clipPath_XNqxEyD2EKgkMTncp2wSiqwvYenyzQcM"><path d=" M 16.105 74.709 L 16.105 192.791 L 383.895 192.791 L 383.895 74.709 L 16.105 74.709 Z " fill="rgb(255,255,255)"/></clipPath><g clip-path="url(#_clipPath_XNqxEyD2EKgkMTncp2wSiqwvYenyzQcM)"><path d=" M 270.785 108.899 L 260.562 106.016 L 260.562 128.831 L 260.395 128.831 C 258.585 125.843 254.596 123.562 249.059 123.562 C 239.332 123.562 230.863 131.611 230.924 145.163 C 230.924 157.597 238.574 165.835 248.235 165.835 C 254.071 165.835 258.951 163.053 261.368 158.521 L 261.55 158.521 L 262.009 164.926 L 271.122 164.926 C 270.934 162.177 270.785 157.722 270.785 153.581 L 270.785 108.899 Z  M 260.562 147.387 C 260.562 148.459 260.487 149.457 260.252 150.37 C 259.223 154.797 255.603 157.65 251.42 157.65 C 244.98 157.65 241.295 152.221 241.295 144.789 C 241.295 137.284 244.948 131.476 251.535 131.476 C 256.135 131.476 259.428 134.718 260.332 138.657 C 260.506 139.486 260.562 140.508 260.562 141.326 L 260.562 147.387 Z " fill="rgb(41,41,41)"/></g><clipPath id="_clipPath_vdtVVjmWkCyGN7ycuXUFykFs5ZuH4cO3"><path d=" M 16.105 74.709 L 16.105 192.791 L 383.895 192.791 L 383.895 74.709 L 16.105 74.709 Z " fill="rgb(255,255,255)"/></clipPath><g clip-path="url(#_clipPath_vdtVVjmWkCyGN7ycuXUFykFs5ZuH4cO3)"><path d=" M 297.829 123.516 C 294.749 123.516 291.99 124.404 289.671 125.835 C 287.264 127.245 285.306 129.421 284.141 131.674 L 283.979 131.674 L 283.979 112.743 L 279.974 111.56 L 279.974 164.926 L 283.979 164.926 L 283.979 140.17 C 283.979 138.525 284.104 137.384 284.524 136.182 C 286.254 131.146 290.999 127.014 296.734 127.014 C 305.021 127.014 307.891 133.66 307.891 140.949 L 307.891 164.926 L 311.892 164.926 L 311.892 140.508 C 311.892 125.43 301.667 123.516 297.829 123.516 Z " fill="rgb(41,41,41)"/></g><clipPath id="_clipPath_64aTISk3lwwp5mSNckVOyVm60wUIZ8Y9"><path d=" M 16.105 74.709 L 16.105 192.791 L 383.895 192.791 L 383.895 74.709 L 16.105 74.709 Z " fill="rgb(255,255,255)"/></clipPath><g clip-path="url(#_clipPath_64aTISk3lwwp5mSNckVOyVm60wUIZ8Y9)"><path d=" M 343.82 143.289 C 335.005 143.035 323.366 144.371 323.366 154.09 C 323.366 159.908 327.205 162.523 331.423 162.523 C 338.168 162.523 342.004 158.346 343.402 154.406 C 343.692 153.542 343.82 152.674 343.82 151.98 L 343.82 143.289 Z  M 347.822 155.31 C 347.822 158.511 347.952 161.826 348.413 164.926 L 344.724 164.926 L 344.137 159.125 L 343.947 159.125 C 341.986 162.245 337.475 165.847 331.04 165.847 C 322.894 165.847 319.104 160.119 319.104 154.721 C 319.104 145.376 327.351 139.747 343.82 139.921 L 343.82 138.839 C 343.82 134.834 343.042 126.846 333.466 126.909 C 329.924 126.909 326.233 127.857 323.303 129.926 L 322.029 127.014 C 325.727 124.507 330.244 123.516 333.905 123.516 C 345.587 123.516 347.822 132.285 347.822 139.519 L 347.822 155.31 Z " fill="rgb(41,41,41)"/></g><clipPath id="_clipPath_SvdjqmbLy7Yf1oCAn7xodWLAAngupJr6"><path d=" M 16.105 74.709 L 16.105 192.791 L 383.895 192.791 L 383.895 74.709 L 16.105 74.709 Z " fill="rgb(255,255,255)"/></clipPath><g clip-path="url(#_clipPath_SvdjqmbLy7Yf1oCAn7xodWLAAngupJr6)"><path d=" M 363.766 115.52 L 363.766 124.441 L 375.306 124.441 L 375.306 127.689 L 363.766 127.689 L 363.766 154.001 C 363.766 159.148 365.365 162.374 369.714 162.374 C 371.8 162.374 373.276 162.1 374.313 161.74 L 374.798 164.84 C 373.49 165.389 371.655 165.814 369.211 165.814 C 366.256 165.814 363.807 164.883 362.225 162.942 C 360.392 160.816 359.765 157.418 359.765 153.288 L 359.765 127.689 L 352.933 127.689 L 352.933 124.441 L 359.765 124.441 L 359.765 116.998 L 363.766 115.52 Z " fill="rgb(41,41,41)"/></g><clipPath id="_clipPath_8EZj0dtOko93dEyFGMwvz6f0mm43TFmZ"><path d=" M 16.105 74.709 L 16.105 192.791 L 383.895 192.791 L 383.895 74.709 L 16.105 74.709 Z " fill="rgb(255,255,255)"/></clipPath><g clip-path="url(#_clipPath_8EZj0dtOko93dEyFGMwvz6f0mm43TFmZ)"><path d=" M 380.365 162.378 L 380.365 161.433 L 380.991 161.433 C 381.309 161.433 381.656 161.504 381.656 161.879 C 381.656 162.347 381.309 162.378 380.916 162.378 L 380.365 162.378 Z  M 380.365 162.77 L 380.896 162.77 L 381.699 164.088 L 382.217 164.088 L 381.349 162.744 C 381.801 162.689 382.142 162.453 382.142 161.911 C 382.142 161.305 381.781 161.043 381.065 161.043 L 379.903 161.043 L 379.903 164.088 L 380.365 164.088 L 380.365 162.77 Z " fill="rgb(41,41,41)"/></g><clipPath id="_clipPath_eYeZOgxvS9okVuION1XbkwOq53Tx6uPe"><path d=" M 16.105 74.709 L 16.105 192.791 L 383.895 192.791 L 383.895 74.709 L 16.105 74.709 Z " fill="rgb(255,255,255)"/></clipPath><g clip-path="url(#_clipPath_eYeZOgxvS9okVuION1XbkwOq53Tx6uPe)"><path d=" M 380.91 160.112 C 379.55 160.112 378.453 161.212 378.453 162.57 C 378.453 163.925 379.55 165.019 380.91 165.019 C 382.263 165.019 383.363 163.925 383.363 162.57 C 383.363 161.212 382.263 160.112 380.91 160.112 Z  M 383.895 162.569 C 383.895 164.213 382.557 165.55 380.91 165.55 C 379.265 165.55 377.925 164.213 377.925 162.569 C 377.925 160.921 379.265 159.584 380.91 159.584 C 382.557 159.584 383.895 160.921 383.895 162.569 Z " fill="rgb(41,41,41)"/></g><clipPath id="_clipPath_udgtqAA2onZXetJeLiONVMGyIVvbpEt1"><path d=" M 16.105 74.709 L 16.105 192.791 L 383.895 192.791 L 383.895 74.709 L 16.105 74.709 Z " fill="rgb(255,255,255)"/></clipPath><g clip-path="url(#_clipPath_udgtqAA2onZXetJeLiONVMGyIVvbpEt1)"><path d=" M 88.152 160.429 C 88.454 160.725 88.978 161.723 88.338 162.986 C 87.979 163.657 87.593 164.127 86.902 164.678 C 86.072 165.346 84.448 166.113 82.222 164.702 C 81.026 163.943 80.952 163.687 79.3 163.901 C 78.119 164.056 77.649 162.865 78.073 161.872 C 78.498 160.885 80.243 160.084 82.411 161.356 C 83.387 161.928 84.908 163.141 86.24 162.067 C 86.791 161.625 87.122 161.33 87.887 160.442 C 87.923 160.407 87.972 160.385 88.025 160.385 C 88.073 160.385 88.118 160.403 88.152 160.429 Z " fill="rgb(41,41,41)"/></g><clipPath id="_clipPath_Z7J3mKZ7X0py6IAdOq53xt38c24hNgjE"><path d=" M 16.105 74.709 L 16.105 192.791 L 383.895 192.791 L 383.895 74.709 L 16.105 74.709 Z " fill="rgb(255,255,255)"/></clipPath><g clip-path="url(#_clipPath_Z7J3mKZ7X0py6IAdOq53xt38c24hNgjE)"><path d=" M 108.465 118.042 C 107.88 120.004 107.052 122.512 103.36 124.407 C 102.822 124.683 102.617 124.23 102.865 123.806 C 104.26 121.434 104.508 120.84 104.914 119.904 C 105.481 118.535 105.778 116.588 104.65 112.528 C 102.43 104.537 97.797 93.857 94.43 90.392 C 91.181 87.048 85.293 86.108 79.972 87.472 C 78.012 87.975 74.178 89.969 67.067 88.368 C 54.761 85.596 52.937 91.758 52.232 94.441 C 51.525 97.127 49.83 104.756 49.83 104.756 C 49.264 107.865 48.524 113.267 67.633 116.908 C 76.535 118.603 76.987 120.903 77.381 122.558 C 78.088 125.523 79.217 127.221 80.489 128.069 C 81.761 128.919 80.489 129.621 79.078 129.764 C 75.286 130.158 61.275 126.139 52.985 121.428 C 46.202 117.284 46.089 113.552 47.642 110.386 C 37.397 109.278 29.708 111.346 28.315 116.196 C 25.923 124.519 46.614 138.737 70.175 145.872 C 94.901 153.358 120.333 148.131 123.16 132.589 C 124.442 125.528 118.495 120.304 108.465 118.042 Z  M 77.717 91.554 C 77.707 91.554 77.696 91.556 77.687 91.556 C 77.581 91.556 77.496 91.475 77.496 91.377 C 77.496 91.306 77.54 91.244 77.603 91.215 C 78.926 90.517 80.898 89.961 83.155 89.731 C 83.833 89.661 84.495 89.626 85.132 89.621 C 85.244 89.621 85.356 89.621 85.47 89.622 C 89.254 89.708 92.283 91.212 92.238 92.981 C 92.194 94.752 89.091 96.117 85.306 96.033 C 84.081 96.004 82.931 95.827 81.941 95.541 C 81.824 95.511 81.739 95.411 81.739 95.293 C 81.739 95.176 81.824 95.074 81.944 95.044 C 84.305 94.497 85.898 93.605 85.786 92.762 C 85.637 91.643 82.549 91.035 78.888 91.402 C 78.486 91.444 78.096 91.495 77.717 91.554 Z  M 70.552 102.823 C 63.733 103.316 63.025 104.053 61.747 105.413 C 59.946 107.332 57.573 102.925 57.573 102.925 C 56.15 102.625 54.423 100.329 55.354 98.185 C 56.272 96.065 57.967 96.701 58.497 97.36 C 59.143 98.164 60.522 99.48 62.313 99.432 C 64.102 99.385 66.167 99.009 69.048 99.009 C 71.966 99.009 73.929 100.099 74.039 101.035 C 74.134 101.835 73.802 102.588 70.552 102.823 Z " fill="rgb(204,54,57)"/></g></g></g></svg>