<?xml version="1.0" standalone="no"?><!-- Generator: Gravit.io --><svg xmlns="http://www.w3.org/2000/svg" xmlns:xlink="http://www.w3.org/1999/xlink" style="isolation:isolate" viewBox="0 0 320 214" width="320" height="214"><g><path d=" M 12.788 132.772 C 12.523 131.857 13.05 130.899 13.966 130.634 C 14.881 130.368 15.839 130.896 16.104 131.811 L 26.247 166.895 L 26.251 166.893 C 26.614 167.997 27.092 168.754 27.611 169.169 L 27.615 169.172 L 27.617 169.169 C 27.885 169.383 28.15 169.494 28.393 169.497 C 28.64 169.5 28.915 169.395 29.199 169.182 C 29.752 168.764 30.273 168.001 30.687 166.877 L 40.901 131.579 C 41.166 130.664 42.124 130.137 43.04 130.402 C 43.955 130.667 44.482 131.625 44.217 132.541 L 34.001 167.846 C 33.986 167.906 33.968 167.965 33.947 168.024 C 33.289 169.832 32.348 171.14 31.284 171.942 C 30.374 172.629 29.371 172.962 28.352 172.948 C 27.329 172.934 26.335 172.57 25.452 171.863 L 25.455 171.859 C 24.422 171.031 23.539 169.729 22.962 167.976 L 22.967 167.975 L 22.948 167.915 L 12.788 132.772 Z " fill="rgb(33,74,61)"/><path d=" M 51.469 116.018 C 51.469 115.061 52.244 114.286 53.201 114.286 C 54.158 114.286 54.934 115.061 54.934 116.018 L 54.934 121.565 C 54.934 122.522 54.158 123.298 53.201 123.298 C 52.244 123.298 51.469 122.522 51.469 121.565 L 51.469 116.018 Z  M 51.503 132.194 C 51.503 131.238 52.279 130.462 53.236 130.462 C 54.193 130.462 54.968 131.238 54.968 132.194 L 54.968 170.884 C 54.968 171.841 54.193 172.616 53.236 172.616 C 52.279 172.616 51.503 171.841 51.503 170.884 L 51.503 132.194 Z " fill="rgb(33,74,61)"/><path d=" M 88.387 150.813 C 87.658 150.785 86.951 150.761 86.271 150.744 C 85.356 150.721 84.458 150.706 83.582 150.701 L 83.293 150.7 C 78.617 150.674 72.044 150.638 68.799 153.67 C 68.075 154.347 67.504 155.186 67.113 156.219 C 66.7 157.312 66.479 158.64 66.479 160.238 C 66.479 163.344 67.094 165.722 68.474 167.303 C 69.839 168.866 72.058 169.762 75.293 169.939 L 75.319 169.941 C 77.361 169.988 79.457 169.523 81.559 168.775 C 83.767 167.99 85.988 166.889 88.168 165.733 C 88.231 165.7 88.296 165.671 88.362 165.646 L 88.387 150.813 Z  M 88.355 169.535 C 86.505 170.479 84.621 171.358 82.71 172.037 C 80.252 172.911 77.754 173.454 75.232 173.392 C 75.189 173.393 75.147 173.393 75.104 173.39 C 70.879 173.159 67.871 171.863 65.875 169.577 C 63.896 167.309 63.014 164.177 63.014 160.238 C 63.014 158.224 63.314 156.491 63.879 155 C 64.466 153.449 65.334 152.176 66.444 151.139 C 70.682 147.179 78.059 147.22 83.306 147.249 L 83.596 147.25 C 84.531 147.255 85.45 147.27 86.352 147.293 C 87.052 147.311 87.732 147.332 88.393 147.357 L 88.397 144.934 C 88.395 144.882 88.395 144.83 88.397 144.777 C 88.601 140.709 87.835 137.988 86.347 136.274 C 84.903 134.611 82.666 133.808 79.906 133.573 L 79.907 133.57 C 77.871 133.492 75.836 133.528 73.804 133.657 C 71.773 133.786 69.735 134.016 67.691 134.324 C 66.746 134.465 65.863 133.814 65.721 132.869 C 65.58 131.924 66.231 131.041 67.177 130.899 C 69.28 130.583 71.415 130.344 73.587 130.206 C 75.732 130.069 77.907 130.034 80.116 130.122 L 80.19 130.126 L 80.19 130.122 C 83.822 130.432 86.851 131.584 88.959 134.014 C 91.024 136.392 92.1 139.906 91.849 144.94 L 91.849 144.942 L 91.803 171.094 C 91.803 172.047 91.031 172.82 90.078 172.82 C 89.125 172.82 88.352 172.047 88.352 171.094 L 88.355 169.535 Z " fill="rgb(33,74,61)"/><path d=" M 98.032 128.806 L 106.352 128.806 C 107.202 128.931 107.536 129.529 107.653 130.326 L 115.084 163.022 C 115.42 165.255 117.819 165.434 118.155 163.022 L 125.719 130.246 C 125.981 129.352 126.587 128.905 127.461 128.806 L 135.391 128.806 C 136.129 128.91 136.434 129.347 136.378 130.063 L 126.36 165.909 C 124.908 171.048 121.906 173.038 116.804 173.038 C 111.05 173.038 108.062 170.572 106.694 164.763 L 97.138 130.321 C 97.028 129.708 97.359 128.806 98.032 128.806 Z " fill-rule="evenodd" fill="rgb(33,74,61)"/><path d=" M 142.244 131.282 L 142.244 136.257 C 142.361 136.981 142.837 137.243 143.527 137.311 C 149.075 136.793 154.589 136.713 160.074 136.99 C 161.897 137.276 163.233 138.789 163.512 140.794 L 163.512 146.685 L 156.751 146.685 C 146.794 146.541 139.882 149.886 139.882 160.455 C 139.882 169.474 143.546 173.064 152.885 173.064 C 157.122 173.064 160.037 172.28 163.695 169.878 L 164.223 169.878 L 164.223 171.505 C 164.259 172.04 164.653 172.461 165.357 172.503 L 172.794 172.503 C 173.457 172.492 173.636 172.039 173.642 171.437 L 173.642 140.494 C 173.359 133.054 167.351 128.806 160.773 128.507 C 157.652 128.332 154.205 128.269 150.833 128.478 C 148.422 128.627 146.048 128.915 143.858 129.4 C 142.985 129.751 142.282 130.162 142.244 131.282 Z  M 163.512 153.426 L 163.512 163.007 C 160.852 164.311 158.564 165.207 155.685 165.207 C 151.466 164.978 149.91 163.76 149.91 159.958 C 150.047 155.511 152.513 153.544 157.473 153.426 L 163.512 153.426 Z " fill-rule="evenodd" fill="rgb(33,74,61)"/><path d=" M 183.493 128.806 L 190.715 128.806 C 191.477 128.806 192.101 129.43 192.101 130.192 L 192.101 131.636 C 195.325 129.815 198.76 128.382 202.653 128.234 C 203.591 128.232 204.307 128.595 204.464 129.334 C 204.613 131.42 204.597 133.49 204.441 135.546 C 204.408 136.15 204.048 136.72 203.363 136.714 C 199.326 136.833 195.587 137.897 192.101 139.763 L 192.101 171.119 C 192.101 171.881 191.477 172.505 190.715 172.505 L 183.493 172.505 C 182.731 172.505 182.108 171.881 182.108 171.119 L 182.108 130.192 C 182.108 129.43 182.731 128.806 183.493 128.806 Z " fill-rule="evenodd" fill="rgb(33,74,61)"/><path d=" M 243.435 164.72 C 243.435 163.928 242.772 163.647 241.946 163.689 C 236.813 164.164 231.498 164.905 226.359 164.605 C 220.477 163.811 218.113 160.074 218.221 154.269 L 243.594 154.269 C 244.478 154.226 245.139 153.783 245.175 152.801 C 246.485 139.83 241.438 128.527 226.652 128.527 C 212.422 128.527 207.975 136.684 207.975 149.998 C 207.975 165.039 212.38 173.309 228.946 173.127 C 233.691 173.053 237.477 173.045 242.134 171.901 C 243.112 171.772 243.435 171.235 243.435 170.365 L 243.435 164.72 Z  M 218.221 146.994 L 234.971 146.994 C 235.03 141.672 232.25 137.023 226.581 137.023 C 220.97 137.023 218.016 141.668 218.221 146.994 Z " fill-rule="evenodd" fill="rgb(33,74,61)"/><path d=" M 252.251 130.323 C 252.294 129.506 252.728 128.806 253.512 128.806 L 261.168 128.806 C 261.953 128.806 262.478 129.39 262.497 130.093 L 262.497 177.329 C 262.54 183.052 260.093 186.78 254.315 188.056 C 251.123 188.376 248.673 188.213 245.559 187.758 C 244.831 187.503 244.6 187.264 244.574 186.635 C 244.411 184.607 244.387 182.942 244.574 181.065 C 244.706 180.485 245.068 180.201 245.628 180.171 L 250.372 180.171 C 251.516 180.111 252.314 179.246 252.296 178.269 L 252.251 130.323 Z " fill-rule="evenodd" fill="rgb(33,74,61)"/><path d=" M 253.67 113.003 L 261.304 113.003 C 262.066 113.003 262.69 113.627 262.69 114.389 L 262.69 121.473 C 262.69 122.236 262.066 122.859 261.304 122.859 L 253.67 122.859 C 252.908 122.859 252.284 122.236 252.284 121.473 L 252.284 114.389 C 252.284 113.627 252.908 113.003 253.67 113.003 Z " fill-rule="evenodd" fill="rgb(33,74,61)"/><path d=" M 287.916 128.516 C 302.385 128.516 306.869 137.31 306.869 150.789 C 306.869 163.182 302.975 173.14 288.466 173.14 C 273.258 173.14 269.817 164.701 269.817 150.789 C 269.817 138.171 272.549 128.516 287.916 128.516 Z  M 288.099 137.022 C 296.416 137.022 296.576 144.446 296.576 150.519 C 296.576 156.542 296.808 164.628 288.283 164.628 C 279.8 164.628 279.761 155.969 279.761 150.061 C 279.761 144.358 280.379 137.022 288.099 137.022 Z " fill-rule="evenodd" fill="rgb(33,74,61)"/><path d=" M 116.649 93.103 C 115.696 93.103 114.923 92.33 114.923 91.377 C 114.923 90.424 115.696 89.651 116.649 89.651 L 135.415 89.683 L 135.442 89.683 L 135.442 89.683 C 137.422 89.716 139.187 89.347 140.908 88.615 C 142.675 87.865 144.428 86.719 146.333 85.228 C 148.915 82.897 151.329 79.93 153.762 76.937 C 159.942 69.338 166.253 61.578 176.354 62.033 C 181.983 62.286 186.23 64.45 189.94 68.023 C 193.505 71.457 196.507 76.15 199.791 81.686 C 199.988 82.017 200.645 83.14 201.31 84.276 C 207.498 94.854 215.959 109.318 227.691 109.618 C 238.79 109.902 245.853 98.524 251.56 89.33 C 252.224 88.259 252.873 87.214 253.393 86.396 L 278.027 47.655 C 281.352 42.426 284.73 37.599 288.976 33.768 C 293.299 29.867 298.468 27.044 305.283 25.953 C 306.224 25.804 307.109 26.446 307.259 27.388 C 307.408 28.33 306.766 29.215 305.824 29.364 C 299.76 30.335 295.152 32.855 291.291 36.339 C 287.352 39.894 284.136 44.499 280.951 49.509 L 256.317 88.251 C 255.646 89.306 255.078 90.222 254.497 91.158 C 248.325 101.1 240.687 113.404 227.609 113.069 C 213.95 112.719 204.929 97.299 198.332 86.022 C 197.954 85.376 197.599 84.769 196.813 83.445 C 193.663 78.136 190.806 73.656 187.544 70.514 C 184.427 67.512 180.879 65.694 176.205 65.484 C 167.835 65.107 162.079 72.185 156.442 79.117 C 153.904 82.238 151.387 85.334 148.624 87.821 C 148.589 87.854 148.552 87.886 148.512 87.917 C 146.37 89.597 144.36 90.905 142.262 91.796 C 140.104 92.713 137.885 93.176 135.388 93.134 L 116.649 93.103 Z " fill="rgb(255,194,43)"/><path d=" M 116.773 93.103 C 115.877 93.168 115.069 92.53 114.937 91.627 C 114.799 90.682 115.453 89.803 116.398 89.665 C 120.38 89.074 124.088 87.794 127.697 85.561 C 131.351 83.301 134.94 80.042 138.646 75.513 C 138.681 75.469 138.718 75.428 138.757 75.39 C 141.717 71.972 144.81 68.695 148.145 66.232 C 151.658 63.637 155.428 61.951 159.571 61.93 L 159.578 61.93 L 159.61 61.93 L 159.616 61.93 C 163.529 61.947 167.5 64.328 171.311 67.951 C 174.928 71.389 178.456 75.991 181.647 80.698 L 181.674 80.738 L 183.378 83.327 C 190.275 93.876 195.231 101.456 202.782 101.443 L 202.856 101.445 L 202.856 101.443 C 210.189 101.765 215.742 92.607 221.84 82.549 L 221.973 82.329 C 223.94 79.085 226.308 75.102 228.674 71.122 C 235.759 59.206 242.879 47.23 250.977 35.977 C 253.487 32.489 257.249 29.919 261.811 28.233 C 266.511 26.495 272.094 25.691 278.035 25.784 L 278.039 25.784 L 305.56 25.933 C 306.513 25.937 307.283 26.713 307.279 27.666 C 307.275 28.619 306.499 29.388 305.546 29.385 L 278.001 29.235 L 277.981 29.235 C 272.471 29.149 267.316 29.887 263.002 31.482 C 259.068 32.936 255.861 35.1 253.779 37.993 C 245.814 49.061 238.715 61.002 231.652 72.882 C 229.554 76.411 227.463 79.928 224.924 84.116 L 224.791 84.336 C 218.136 95.312 212.077 105.305 202.707 104.895 L 202.707 104.894 C 193.326 104.866 187.952 96.649 180.481 85.222 C 179.479 83.689 179.102 83.106 178.792 82.633 L 178.791 82.633 C 175.73 78.117 172.357 73.715 168.928 70.455 C 165.708 67.393 162.498 65.384 159.581 65.381 C 156.274 65.399 153.163 66.82 150.202 69.007 C 147.119 71.284 144.189 74.395 141.366 77.654 L 141.326 77.705 C 137.384 82.523 133.509 86.025 129.51 88.499 C 128.831 88.918 128.15 89.308 127.464 89.669 L 116.649 89.651 C 115.696 89.651 114.923 90.424 114.923 91.377 C 114.923 92.33 115.696 93.103 116.649 93.103 L 116.773 93.103 Z  M 181.661 80.718 L 181.674 80.738 L 181.661 80.718 Z " fill="rgb(0,115,71)"/></g></svg>