<?xml version="1.0" standalone="no"?><!-- Generator: Gravit.io --><svg xmlns="http://www.w3.org/2000/svg" xmlns:xlink="http://www.w3.org/1999/xlink" style="isolation:isolate" viewBox="0 0 120 80.25" width="120" height="80.25"><defs><clipPath id="_clipPath_iM3xfYn3nnPa0cMgR7JnUoyAClteHb4y"><rect width="120" height="80.25"/></clipPath></defs><g clip-path="url(#_clipPath_iM3xfYn3nnPa0cMgR7JnUoyAClteHb4y)"><path d=" M 26.268 45.6 C 26.207 45.992 25.97 46.334 25.625 46.53 C 25.281 46.751 24.981 46.862 24.677 46.973 C 24.03 47.196 23.349 47.42 22.628 47.679 C 21.869 47.938 21.188 48.197 20.58 48.385 C 19.822 48.644 19.101 48.868 18.417 49.127 C 17.901 49.348 17.418 49.635 16.977 49.982 C 16.568 50.352 16.211 50.777 15.916 51.244 C 15.612 51.762 15.42 52.431 15.42 53.21 C 15.42 54.771 15.799 55.958 16.559 56.7 C 17.317 57.481 18.722 57.851 20.805 57.851 C 22.929 57.851 24.37 57.444 25.131 56.627 C 25.888 55.81 26.267 54.66 26.267 53.176 L 26.267 45.6 L 26.268 45.6 Z  M 20.807 29.153 C 24.525 29.153 27.255 29.859 28.998 31.307 C 30.743 32.719 31.615 34.536 31.615 36.688 L 31.615 55.03 C 31.615 55.772 31.465 56.589 31.201 57.479 C 30.932 58.373 30.403 59.188 29.568 59.929 C 28.773 60.674 27.673 61.305 26.27 61.788 C 24.867 62.27 23.047 62.53 20.809 62.53 C 18.574 62.53 16.75 62.27 15.349 61.788 C 13.947 61.305 12.846 60.674 12.051 59.929 C 11.31 59.262 10.75 58.419 10.42 57.479 C 10.152 56.591 10 55.774 10 55.032 L 10 52.1 C 10 50.539 10.417 49.091 11.251 47.827 C 12.086 46.53 13.261 45.639 14.779 45.081 C 15.537 44.822 16.409 44.563 17.394 44.229 C 18.381 43.893 19.289 43.558 20.201 43.263 C 21.113 42.965 21.908 42.666 22.589 42.405 C 23 42.241 23.418 42.093 23.841 41.962 L 24.523 41.628 C 24.792 41.479 25.054 41.256 25.321 40.959 C 25.585 40.664 25.812 40.33 26.004 39.958 C 26.206 39.555 26.31 39.11 26.308 38.66 L 26.308 37.471 C 26.31 37.035 26.219 36.604 26.039 36.207 C 25.889 35.76 25.585 35.353 25.169 34.983 C 24.752 34.611 24.182 34.314 23.501 34.089 C 22.818 33.869 21.91 33.756 20.884 33.756 C 18.76 33.756 17.356 34.167 16.598 35.018 C 15.955 35.762 15.576 36.69 15.501 37.729 C 15.501 37.952 15.311 38.1 15.083 38.1 L 10.458 38.175 C 10.229 38.176 10.042 37.993 10.039 37.764 L 10.039 36.692 C 10.039 35.649 10.231 34.684 10.647 33.756 C 11.065 32.827 11.711 32.049 12.581 31.379 C 13.454 30.712 14.593 30.156 15.957 29.784 C 17.285 29.337 18.915 29.153 20.81 29.153 L 20.807 29.153 Z  M 104.651 45.6 C 104.59 45.992 104.353 46.334 104.008 46.53 C 103.668 46.751 103.364 46.862 103.06 46.973 C 102.416 47.196 101.732 47.42 101.011 47.679 C 100.252 47.938 99.569 48.197 98.963 48.385 C 98.203 48.644 97.482 48.868 96.799 49.127 C 96.284 49.347 95.799 49.635 95.359 49.982 C 94.95 50.353 94.593 50.777 94.298 51.244 C 93.994 51.762 93.805 52.431 93.805 53.21 C 93.805 54.771 94.18 55.958 94.94 56.7 C 95.698 57.481 97.103 57.851 99.188 57.851 C 101.315 57.851 102.754 57.444 103.514 56.627 C 104.27 55.81 104.649 54.66 104.649 53.176 L 104.649 45.6 L 104.651 45.6 Z  M 99.191 29.153 C 102.91 29.153 105.64 29.859 107.385 31.307 C 109.128 32.719 110 34.536 110 36.688 L 110 55.03 C 110 55.772 109.85 56.589 109.583 57.479 C 109.319 58.373 108.788 59.188 107.953 59.929 C 107.158 60.674 106.058 61.305 104.655 61.788 C 103.253 62.27 101.431 62.53 99.195 62.53 C 96.96 62.53 95.137 62.27 93.735 61.788 C 92.334 61.305 91.232 60.674 90.437 59.929 C 89.698 59.261 89.139 58.419 88.81 57.479 C 88.542 56.589 88.39 55.772 88.39 55.03 L 88.39 52.098 C 88.39 50.538 88.808 49.09 89.641 47.826 C 90.476 46.528 91.653 45.637 93.169 45.08 C 93.927 44.82 94.799 44.561 95.786 44.227 C 96.769 43.891 97.681 43.557 98.593 43.262 C 99.504 42.963 100.298 42.664 100.981 42.403 C 101.392 42.239 101.809 42.091 102.232 41.96 L 102.915 41.626 C 103.18 41.477 103.446 41.254 103.711 40.957 C 103.982 40.655 104.212 40.319 104.394 39.956 C 104.596 39.553 104.7 39.109 104.698 38.658 L 104.698 37.469 C 104.7 37.034 104.609 36.602 104.429 36.205 C 104.279 35.758 103.977 35.351 103.559 34.981 C 103.142 34.609 102.576 34.312 101.891 34.087 C 101.208 33.867 100.3 33.754 99.274 33.754 C 97.15 33.754 95.748 34.166 94.988 35.017 C 94.345 35.76 93.966 36.688 93.889 37.727 C 93.889 37.95 93.701 38.099 93.474 38.099 L 88.874 38.099 C 88.649 38.098 88.465 37.917 88.46 37.691 L 88.46 36.613 C 88.46 35.576 88.649 34.611 89.068 33.681 C 89.484 32.755 90.128 31.974 90.998 31.307 C 91.874 30.638 93.009 30.081 94.377 29.711 C 95.664 29.335 97.295 29.151 99.191 29.151 L 99.191 29.153 Z  M 82.923 29.301 L 85.959 29.301 C 86.223 29.301 86.413 29.562 86.338 29.82 L 85.313 33.681 C 85.278 33.869 85.086 33.98 84.934 33.98 L 82.81 33.98 C 81.673 33.98 80.764 34.128 80.043 34.427 C 79.358 34.722 78.792 35.056 78.411 35.464 C 78.032 35.875 77.803 36.28 77.69 36.69 C 77.588 37.09 77.537 37.502 77.538 37.914 L 77.538 61.788 C 77.534 62.016 77.346 62.197 77.118 62.195 L 72.57 62.195 C 72.344 62.195 72.159 62.014 72.154 61.788 L 72.154 36.836 C 72.154 36.393 72.229 35.725 72.418 34.87 C 72.57 34.017 73.026 33.2 73.747 32.346 C 74.467 31.529 75.529 30.787 76.97 30.193 C 78.413 29.596 80.385 29.299 82.923 29.299 L 82.923 29.301 Z  M 67.602 54.213 L 67.602 55.327 C 67.602 55.81 67.531 56.478 67.34 57.333 C 67.188 58.148 66.732 59.002 66.011 59.818 C 65.291 60.636 64.229 61.378 62.788 61.972 C 61.347 62.567 59.373 62.866 56.835 62.866 C 54.296 62.866 52.323 62.567 50.882 61.972 C 49.441 61.378 48.379 60.674 47.658 59.819 C 46.938 59.004 46.482 58.15 46.33 57.299 C 46.18 56.441 46.067 55.811 46.067 55.329 L 46.067 30.342 C 46.067 30.118 46.257 29.93 46.484 29.93 L 50.996 29.93 C 51.225 29.93 51.414 30.118 51.414 30.342 L 51.414 53.73 C 51.414 54.51 51.527 55.068 51.641 55.513 C 51.758 55.96 51.985 56.403 52.326 56.775 C 52.666 57.183 53.199 57.517 53.917 57.776 C 54.6 58.037 55.549 58.187 56.724 58.187 C 57.94 58.187 58.923 58.037 59.645 57.776 C 60.366 57.517 60.897 57.183 61.276 56.811 C 61.651 56.441 61.919 56.033 62.032 55.586 C 62.146 55.139 62.3 54.771 62.3 53.691 L 62.3 30.306 C 62.3 30.084 62.488 29.898 62.715 29.898 L 67.227 29.898 C 67.452 29.898 67.642 30.084 67.642 30.309 L 67.642 54.217 L 67.606 54.217 L 67.602 54.213 Z  M 36.548 17.386 L 41.062 17.386 C 41.289 17.386 41.478 17.57 41.478 17.792 L 41.478 62.009 C 41.475 62.237 41.29 62.421 41.062 62.421 L 36.548 62.421 C 36.32 62.421 36.134 62.237 36.131 62.009 L 36.131 17.792 C 36.167 17.57 36.321 17.384 36.548 17.384 L 36.548 17.386 Z " fill-rule="evenodd" fill="rgb(68,68,68)"/></g></svg>