<?xml version="1.0" standalone="no"?><!-- Generator: Gravit.io --><svg xmlns="http://www.w3.org/2000/svg" xmlns:xlink="http://www.w3.org/1999/xlink" style="isolation:isolate" viewBox="0 0 120 80.25" width="120" height="80.25"><defs><clipPath id="_clipPath_S1ySi07HiNSqwkPCx7h58jqrXMrfJrGL"><rect width="120" height="80.25"/></clipPath></defs><g clip-path="url(#_clipPath_S1ySi07HiNSqwkPCx7h58jqrXMrfJrGL)"><g><path d=" M 12.427 59.517 C 12.427 59.517 18.16 60.119 23.347 60.173 C 28.534 60.227 28.281 58.425 27.452 57.442 C 26.623 56.459 22.221 58.064 19.164 57.519 C 16.981 57.129 15.213 57.537 12.974 57.169 C 10.759 56.806 10.243 56.698 10.462 58.627 C 10.407 59.79 12.427 59.517 12.427 59.517 Z " fill="rgb(127,57,56)"/><path d=" M 17.593 23.418 C 19.996 28.786 7.41 34.428 16.077 35.975 C 18.034 36.326 20.105 36.61 19.954 38.411 C 20.598 35.994 18.235 36.238 16.137 35.874 C 7.841 34.437 22.191 31.448 17.593 23.418 L 17.593 23.418 Z " fill-rule="evenodd" fill="rgb(127,57,56)"/><path d=" M 24.618 53.049 C 23.668 53.772 23.019 54.051 23.019 54.051 C 18.097 57.522 11.923 52.548 11.923 52.548 C 11.209 52.1 2.6 46.47 5.653 40.86 C 8.705 35.249 12.646 37.654 15.593 39.658 C 18.541 41.661 20.654 41.138 22.045 39.25 C 24.033 36.553 32.68 36.814 30.638 43.699 C 30.202 45.169 29.674 46.446 29.102 47.55 C 28.095 47.578 27.19 47.996 26.528 48.658 C 26.486 48.656 26.443 48.655 26.4 48.656 C 25.464 48.674 24.72 49.447 24.738 50.383 C 24.745 50.789 24.895 51.159 25.141 51.445 C 24.787 51.762 24.568 52.225 24.578 52.737 C 24.58 52.845 24.592 52.95 24.618 53.049 Z " fill-rule="evenodd" fill="rgb(240,99,76)"/><path d=" M 39.604 43.393 L 41.803 43.393 L 41.803 44.211 L 39.604 44.211 L 39.604 50.639 C 39.604 50.934 39.673 51.141 39.81 51.259 C 39.999 51.416 40.262 51.494 40.6 51.494 L 41.803 51.494 L 41.803 52.199 L 36.408 52.199 L 36.408 51.494 L 37.151 51.494 C 37.483 51.494 37.715 51.438 37.846 51.325 C 37.978 51.212 38.044 51.037 38.044 50.799 L 38.044 44.211 L 36.521 44.211 L 36.521 43.393 L 38.044 43.393 L 38.044 42.726 C 38.044 41.175 38.366 39.991 39.01 39.175 C 39.654 38.359 40.452 37.951 41.403 37.951 C 42.109 37.951 42.661 38.124 43.059 38.468 C 43.456 38.813 43.654 39.264 43.654 39.822 C 43.654 40.185 43.559 40.472 43.368 40.681 C 43.176 40.891 42.934 40.996 42.639 40.996 C 42.376 40.996 42.158 40.912 41.986 40.743 C 41.814 40.573 41.728 40.36 41.728 40.103 C 41.728 39.809 41.841 39.568 42.066 39.38 C 42.248 39.229 42.339 39.117 42.339 39.041 C 42.339 38.935 42.268 38.838 42.128 38.75 C 41.987 38.662 41.777 38.619 41.496 38.619 C 40.965 38.619 40.517 38.855 40.152 39.328 C 39.786 39.801 39.604 40.505 39.604 41.438 L 39.604 43.393 Z " fill="rgb(240,99,76)"/><path d=" M 46.243 38.139 C 46.525 38.139 46.772 38.246 46.985 38.459 C 47.198 38.672 47.305 38.923 47.305 39.211 C 47.305 39.493 47.201 39.737 46.995 39.944 C 46.788 40.15 46.54 40.254 46.252 40.254 C 45.964 40.254 45.715 40.149 45.505 39.939 C 45.295 39.729 45.19 39.483 45.19 39.201 C 45.19 38.919 45.297 38.672 45.51 38.459 C 45.723 38.246 45.967 38.139 46.243 38.139 Z  M 43.799 43.393 L 47.305 43.29 L 47.305 50.865 C 47.305 51.071 47.355 51.219 47.455 51.306 C 47.599 51.432 47.781 51.494 48 51.494 L 48.996 51.494 L 48.996 52.199 L 43.987 52.199 L 43.987 51.494 L 44.918 51.494 C 45.193 51.494 45.395 51.427 45.524 51.292 C 45.652 51.158 45.716 50.962 45.716 50.705 L 45.716 45.16 C 45.716 44.809 45.616 44.544 45.416 44.366 C 45.215 44.187 44.918 44.098 44.523 44.098 L 43.799 44.098 L 43.799 43.393 Z " fill="rgb(240,99,76)"/><path d=" M 54 43.393 L 56.199 43.393 L 56.199 44.211 L 54 44.211 L 54 50.639 C 54 50.934 54.069 51.141 54.207 51.259 C 54.395 51.416 54.658 51.494 54.997 51.494 L 56.199 51.494 L 56.199 52.199 L 50.805 52.199 L 50.805 51.494 L 51.547 51.494 C 51.879 51.494 52.111 51.438 52.243 51.325 C 52.374 51.212 52.44 51.037 52.44 50.799 L 52.44 44.211 L 50.917 44.211 L 50.917 43.393 L 52.44 43.393 L 52.44 42.726 C 52.44 41.175 52.762 39.991 53.406 39.175 C 54.051 38.359 54.848 37.951 55.799 37.951 C 56.506 37.951 57.058 38.124 57.455 38.468 C 57.852 38.813 58.051 39.264 58.051 39.822 C 58.051 40.185 57.955 40.472 57.764 40.681 C 57.573 40.891 57.33 40.996 57.036 40.996 C 56.773 40.996 56.555 40.912 56.383 40.743 C 56.21 40.573 56.124 40.36 56.124 40.103 C 56.124 39.809 56.237 39.568 56.463 39.38 C 56.644 39.229 56.735 39.117 56.735 39.041 C 56.735 38.935 56.665 38.838 56.524 38.75 C 56.384 38.662 56.173 38.619 55.892 38.619 C 55.361 38.619 54.913 38.855 54.548 39.328 C 54.183 39.801 54 40.505 54 41.438 L 54 43.393 Z " fill="rgb(240,99,76)"/><path d=" M 60.686 39.803 L 61.316 39.803 L 61.316 43.393 L 64.164 43.393 L 64.164 44.258 L 61.316 44.258 L 61.316 49.906 C 61.316 50.395 61.432 50.769 61.664 51.029 C 61.895 51.289 62.19 51.419 62.547 51.419 C 62.973 51.419 63.337 51.222 63.637 50.827 C 63.938 50.432 64.114 49.781 64.164 48.872 L 64.794 48.872 C 64.756 50.044 64.489 50.913 63.994 51.48 C 63.499 52.048 62.857 52.331 62.068 52.331 C 61.341 52.331 60.772 52.132 60.362 51.734 C 59.952 51.336 59.746 50.815 59.746 50.169 L 59.746 44.258 L 58.214 44.258 L 58.214 43.6 C 58.913 43.481 59.444 43.189 59.809 42.726 C 60.35 42.03 60.642 41.056 60.686 39.803 Z " fill="rgb(240,99,76)"/><path d=" M 66.62 43.393 L 70.84 43.393 L 70.84 44.032 L 70.446 44.032 C 70.076 44.032 69.824 44.081 69.689 44.178 C 69.554 44.275 69.487 44.414 69.487 44.596 C 69.487 44.677 69.506 44.759 69.543 44.84 L 71.997 50.132 L 73.82 45.742 C 73.951 45.429 74.017 45.122 74.017 44.822 C 74.017 44.59 73.926 44.41 73.745 44.281 C 73.563 44.153 73.2 44.07 72.654 44.032 L 72.654 43.393 L 76.32 43.393 L 76.32 44.032 C 75.612 44.101 75.136 44.417 74.891 44.981 L 71.633 52.561 C 71.08 53.849 70.524 54.734 69.966 55.216 C 69.403 55.705 68.798 55.949 68.152 55.949 C 67.683 55.949 67.305 55.821 67.02 55.564 C 66.735 55.307 66.592 54.991 66.592 54.615 C 66.592 54.333 66.68 54.101 66.856 53.919 C 67.031 53.737 67.25 53.647 67.513 53.647 C 67.751 53.647 67.952 53.725 68.115 53.882 C 68.278 54.038 68.359 54.226 68.359 54.446 C 68.359 54.514 68.347 54.608 68.322 54.727 C 68.296 54.822 68.284 54.89 68.284 54.934 C 68.284 55.085 68.381 55.16 68.575 55.16 C 68.782 55.16 69.015 55.085 69.276 54.934 C 69.536 54.784 69.778 54.543 70.004 54.21 C 70.23 53.878 70.625 53.143 71.19 52.004 L 67.848 44.84 C 67.73 44.59 67.581 44.403 67.403 44.281 C 67.225 44.159 66.964 44.076 66.62 44.032 L 66.62 43.393 Z " fill="rgb(240,99,76)"/><path d=" M 84.848 49.587 L 85.459 49.765 C 84.97 51.563 83.892 52.462 82.226 52.462 C 81.004 52.462 80.004 52.058 79.228 51.25 C 78.451 50.442 78.062 49.367 78.062 48.026 C 78.062 46.472 78.488 45.268 79.34 44.413 C 80.192 43.557 81.195 43.13 82.348 43.13 C 83.213 43.13 83.927 43.368 84.491 43.844 C 85.054 44.32 85.337 44.85 85.337 45.432 C 85.337 45.783 85.232 46.073 85.022 46.302 C 84.812 46.531 84.563 46.645 84.275 46.645 C 83.993 46.645 83.754 46.548 83.56 46.354 C 83.366 46.161 83.269 45.927 83.269 45.652 C 83.269 45.377 83.376 45.115 83.588 44.865 C 83.689 44.746 83.739 44.653 83.739 44.584 C 83.739 44.403 83.617 44.226 83.372 44.055 C 83.128 43.883 82.796 43.797 82.376 43.797 C 81.611 43.797 81.032 44.076 80.637 44.633 C 80.073 45.44 79.791 46.504 79.791 47.824 C 79.791 49.082 80.042 50.035 80.543 50.683 C 81.045 51.33 81.684 51.654 82.46 51.654 C 83.532 51.654 84.328 50.965 84.848 49.587 Z " fill="rgb(55,53,53)"/><path d=" M 93.846 47.519 C 92.254 47.738 91.127 48.095 90.463 48.59 C 89.968 48.966 89.72 49.499 89.72 50.188 C 89.72 50.671 89.848 51.048 90.106 51.32 C 90.362 51.593 90.697 51.729 91.111 51.729 C 91.85 51.729 92.491 51.449 93.033 50.888 C 93.575 50.328 93.846 49.624 93.846 48.778 L 93.846 47.519 Z  M 96.929 51.231 L 97.267 51.758 C 96.81 52.227 96.302 52.462 95.744 52.462 C 95.318 52.462 94.96 52.346 94.668 52.115 C 94.377 51.883 94.122 51.476 93.902 50.893 C 93.307 51.52 92.784 51.938 92.333 52.148 C 91.882 52.357 91.34 52.462 90.707 52.462 C 89.805 52.462 89.118 52.268 88.649 51.88 C 88.179 51.491 87.944 50.993 87.944 50.385 C 87.944 49.471 88.481 48.711 89.556 48.106 C 90.63 47.502 92.06 47.099 93.846 46.899 L 93.846 45.564 C 93.846 45.088 93.655 44.681 93.273 44.342 C 92.89 44.004 92.405 43.835 91.816 43.835 C 91.271 43.835 90.801 43.948 90.406 44.173 C 90.124 44.342 89.983 44.508 89.983 44.671 C 89.983 44.765 90.058 44.912 90.209 45.113 C 90.39 45.363 90.481 45.586 90.481 45.78 C 90.481 46.062 90.39 46.292 90.209 46.471 C 90.027 46.649 89.789 46.739 89.494 46.739 C 89.181 46.739 88.92 46.632 88.71 46.419 C 88.5 46.206 88.395 45.934 88.395 45.602 C 88.395 44.981 88.744 44.414 89.443 43.9 C 90.141 43.387 91.058 43.13 92.192 43.13 C 93.238 43.13 94.037 43.355 94.588 43.806 C 95.14 44.264 95.415 44.818 95.415 45.47 L 95.415 50.282 C 95.415 50.708 95.484 51.021 95.622 51.222 C 95.76 51.429 95.938 51.532 96.158 51.532 C 96.402 51.532 96.659 51.432 96.929 51.231 Z " fill="rgb(55,53,53)"/><path d=" M 102.299 43.393 L 104.498 43.393 L 104.498 44.211 L 102.299 44.211 L 102.299 50.639 C 102.299 50.934 102.368 51.141 102.506 51.259 C 102.694 51.416 102.957 51.494 103.295 51.494 L 104.498 51.494 L 104.498 52.199 L 99.103 52.199 L 99.103 51.494 L 99.846 51.494 C 100.178 51.494 100.41 51.438 100.542 51.325 C 100.673 51.212 100.739 51.037 100.739 50.799 L 100.739 44.211 L 99.216 44.211 L 99.216 43.393 L 100.739 43.393 L 100.739 42.726 C 100.739 41.175 101.061 39.991 101.705 39.175 C 102.35 38.359 103.147 37.951 104.098 37.951 C 104.805 37.951 105.357 38.124 105.754 38.468 C 106.151 38.813 106.35 39.264 106.35 39.822 C 106.35 40.185 106.254 40.472 106.063 40.681 C 105.872 40.891 105.629 40.996 105.335 40.996 C 105.071 40.996 104.854 40.912 104.681 40.743 C 104.509 40.573 104.423 40.36 104.423 40.103 C 104.423 39.809 104.536 39.568 104.761 39.38 C 104.943 39.229 105.034 39.117 105.034 39.041 C 105.034 38.935 104.964 38.838 104.823 38.75 C 104.683 38.662 104.472 38.619 104.191 38.619 C 103.66 38.619 103.212 38.855 102.847 39.328 C 102.481 39.801 102.299 40.505 102.299 41.438 L 102.299 43.393 Z " fill="rgb(55,53,53)"/><path d=" M 109.859 41.917 L 109.624 41.682 L 111.231 39.38 C 111.67 38.741 111.978 38.352 112.157 38.214 C 112.335 38.077 112.516 38.008 112.697 38.008 C 112.904 38.008 113.086 38.084 113.243 38.238 C 113.399 38.392 113.477 38.565 113.477 38.76 C 113.477 39.073 113.255 39.396 112.81 39.727 L 109.859 41.917 Z  M 108.618 47.19 L 112.434 47.19 C 112.66 47.19 112.835 47.113 112.96 46.96 C 113.086 46.806 113.149 46.545 113.149 46.175 C 113.149 45.486 112.934 44.9 112.505 44.417 C 112.075 43.935 111.569 43.694 110.987 43.694 C 110.335 43.694 109.782 43.985 109.328 44.568 C 108.874 45.151 108.637 46.025 108.618 47.19 Z  M 114.925 47.857 L 108.618 47.857 C 108.65 49.198 108.9 50.144 109.37 50.696 C 109.909 51.316 110.595 51.626 111.429 51.626 C 112.656 51.626 113.644 50.927 114.389 49.53 L 115 49.793 C 114.085 51.573 112.763 52.462 111.034 52.462 C 109.856 52.462 108.864 52.037 108.059 51.184 C 107.254 50.332 106.852 49.242 106.852 47.914 C 106.852 46.485 107.248 45.331 108.04 44.45 C 108.833 43.57 109.809 43.13 110.968 43.13 C 111.82 43.13 112.556 43.349 113.177 43.788 C 113.797 44.226 114.264 44.856 114.577 45.677 C 114.796 46.253 114.912 46.98 114.925 47.857 Z " fill="rgb(55,53,53)"/></g></g></svg>