<?xml version="1.0" standalone="no"?><!-- Generator: Gravit.io --><svg xmlns="http://www.w3.org/2000/svg" xmlns:xlink="http://www.w3.org/1999/xlink" style="isolation:isolate" viewBox="0 0 180 120" width="180" height="120"><g><path d=" M 173.016 50.053 C 168.87 50.018 157.111 50.58 157.111 58.691 C 157.111 60.828 157.111 81.645 157.111 81.66 C 157.176 82.56 157.925 83.257 158.828 83.257 L 162.274 83.257 C 163.221 83.257 163.991 82.493 163.997 81.546 L 163.997 60.734 C 163.997 59.34 164.084 56.642 170.772 56.642 C 171.569 56.642 172.005 56.411 172.491 55.792 C 173.213 54.879 173.871 53.917 174.457 52.912 C 175.293 51.543 174.191 50.064 173.016 50.053 Z " fill="rgb(85,124,242)"/><path d=" M 150.145 74.005 C 149.557 73.417 148.371 73.081 147.36 74.146 C 145.302 75.998 142.57 76.919 139.811 76.69 C 137.052 76.462 134.509 75.104 132.784 72.939 C 136.849 71.933 146.829 68.841 150.659 65.696 C 153.841 63.084 155.405 59.597 152.22 55.161 C 149.221 50.966 144.763 50.051 140.644 50.051 C 140.562 50.051 140.481 50.051 140.4 50.051 C 136.653 50.102 133.035 51.423 130.139 53.799 C 128.272 55.33 126.758 57.246 125.703 59.418 C 123.21 64.564 123.54 70.63 126.577 75.475 C 129.615 80.32 134.931 83.261 140.649 83.259 C 143.272 83.259 147.565 82.394 151.448 79.254 L 152.361 78.339 C 152.922 77.694 152.887 76.724 152.281 76.121 L 150.145 74.005 Z  M 133.865 59.22 C 135.654 57.588 138.213 56.39 140.821 56.39 C 142.557 56.39 144.41 56.549 145.441 57.808 C 145.983 58.471 145.881 59.59 145.38 60.36 C 143.621 63.068 132.832 65.764 130.595 66.13 C 130.733 63.486 131.909 61.003 133.868 59.222 L 133.865 59.22 Z " fill="rgb(85,124,242)"/><path d=" M 119.043 83.262 L 115.851 83.262 C 114.83 83.262 114.003 82.435 114.003 81.414 L 114.003 38.598 C 114.003 37.578 114.83 36.75 115.851 36.75 L 119.043 36.75 C 120.063 36.75 120.891 37.578 120.891 38.598 L 120.891 81.414 C 120.891 82.435 120.063 83.262 119.043 83.262 Z " fill="rgb(85,124,242)"/><path d=" M 110.864 57.989 C 110.864 47.739 100.58 49.526 93.246 51.835 L 93.246 38.584 C 93.246 37.563 92.419 36.735 91.398 36.735 L 88.171 36.735 C 87.15 36.735 86.323 37.563 86.323 38.584 L 86.323 76.112 C 86.323 77.3 87.001 79.2 88.461 79.993 C 91.069 81.407 110.864 88.746 110.864 75.323 L 110.864 57.989 Z  M 103.919 72.114 C 103.919 73.56 103.376 74.877 102.178 75.731 C 99.933 77.334 95.693 75.569 94.527 74.901 C 93.876 74.532 93.244 74.001 93.244 73.212 L 93.244 60.1 C 93.244 59.309 93.874 58.782 94.527 58.41 C 95.693 57.743 99.933 55.978 102.178 57.581 C 103.376 58.434 103.919 59.752 103.919 61.197 L 103.919 72.114 Z " fill="rgb(85,124,242)"/><path d=" M 28.644 65.308 C 27.876 67.234 25.927 68.421 23.863 68.22 C 21.799 68.018 20.117 66.476 19.736 64.437 C 19.693 64.212 19.667 63.983 19.658 63.753 C 19.643 63.136 19.198 62.613 18.59 62.5 L 16.372 62.109 C 15.946 62.032 15.508 62.145 15.173 62.419 C 14.838 62.694 14.64 63.101 14.631 63.533 Q 14.631 63.556 14.631 63.578 C 14.631 68.287 18.018 72.314 22.658 73.121 C 27.297 73.927 31.844 71.279 33.433 66.845 C 33.571 66.437 33.525 65.988 33.305 65.617 C 33.085 65.245 32.714 64.989 32.289 64.914 L 30.071 64.522 C 29.469 64.414 28.875 64.742 28.644 65.308 L 28.644 65.308 Z " fill="rgb(242,107,122)"/><path d=" M 71.044 50.724 L 65.25 53.095 C 62.615 48.251 56.206 50.781 56.019 50.888 L 47.702 53.908 C 46.963 54.13 46.192 55.017 46.192 56.207 L 46.192 81.407 C 46.192 82.428 47.02 83.255 48.04 83.255 L 51.269 83.255 C 52.29 83.255 53.117 82.428 53.117 81.407 L 53.117 59.12 C 53.117 58.327 53.747 57.797 54.4 57.424 C 55.566 56.753 58.009 55.361 59.495 56.466 C 60.676 57.344 61.236 58.647 61.236 60.098 L 61.236 81.407 C 61.236 82.428 62.064 83.255 63.084 83.255 L 66.311 83.255 C 67.332 83.255 68.159 82.428 68.159 81.407 L 68.159 59.12 C 68.159 58.327 68.79 57.797 69.44 57.424 C 70.606 56.753 73.05 55.361 74.535 56.466 C 75.644 57.292 76.251 58.281 76.251 59.523 L 76.251 81.407 C 76.251 82.428 77.078 83.255 78.099 83.255 L 81.326 83.255 C 82.346 83.255 83.174 82.428 83.174 81.407 L 83.174 59.12 C 83.179 54.725 79.326 47.882 71.044 50.724 Z " fill="rgb(85,124,242)"/><path d=" M 37.694 57.586 C 36.849 57.894 36.347 58.767 36.508 59.652 C 36.662 60.533 36.739 61.425 36.739 62.319 C 36.739 70.019 31.106 76.26 24.155 76.26 C 17.204 76.26 11.571 70.019 11.571 62.321 C 11.559 59.635 12.269 56.996 13.628 54.679 C 14.067 53.951 13.954 53.018 13.353 52.417 L 11.305 50.369 C 10.904 49.968 10.341 49.773 9.777 49.84 C 9.214 49.907 8.713 50.23 8.418 50.715 C 6.327 54.224 5.231 58.236 5.25 62.321 C 5.25 73.883 13.715 83.262 24.155 83.262 C 34.595 83.262 43.06 73.883 43.06 62.321 C 43.061 60.899 42.931 59.48 42.672 58.081 C 42.576 57.544 42.248 57.076 41.775 56.803 C 41.302 56.53 40.732 56.481 40.219 56.668 L 37.694 57.586 Z " fill="rgb(85,124,242)"/></g></svg>