<?xml version="1.0" standalone="no"?><!-- Generator: Gravit.io --><svg xmlns="http://www.w3.org/2000/svg" xmlns:xlink="http://www.w3.org/1999/xlink" style="isolation:isolate" viewBox="0 0 120 80.25" width="120" height="80.25"><defs><clipPath id="_clipPath_jWbxLf68udt4jx2ArtxQxIc2QhHhmBew"><rect width="120" height="80.25"/></clipPath></defs><g clip-path="url(#_clipPath_jWbxLf68udt4jx2ArtxQxIc2QhHhmBew)"><g><path d=" M 100.706 42.429 C 100.1 42.488 99.797 42.519 99.191 42.584 C 98.617 40.932 98.039 39.282 97.461 37.632 C 97.461 38.995 97.461 40.357 97.461 41.719 C 97.461 41.719 97.473 42.605 97.666 42.584 C 97.837 42.563 97.825 42.735 97.825 42.735 C 97.243 42.802 96.951 42.837 96.369 42.909 C 96.369 42.909 96.346 42.741 96.528 42.72 C 96.71 42.696 96.721 41.888 96.721 41.819 C 96.721 40.081 96.721 38.343 96.721 36.605 C 96.721 36.536 96.71 35.73 96.528 35.752 C 96.346 35.775 96.369 35.601 96.369 35.601 C 96.974 35.526 97.277 35.489 97.882 35.419 C 98.32 36.673 98.755 37.926 99.192 39.179 C 99.192 38.036 99.192 37.465 99.192 36.322 C 99.192 36.253 99.181 35.446 98.999 35.466 C 98.817 35.485 98.84 35.312 98.84 35.312 C 99.586 35.231 99.96 35.192 100.706 35.119 C 100.706 35.119 100.729 35.288 100.547 35.306 C 100.365 35.324 100.342 36.146 100.342 36.203 C 100.342 37.941 100.342 39.679 100.342 41.417 C 100.342 41.462 100.365 42.291 100.547 42.273 C 100.729 42.256 100.706 42.429 100.706 42.429 Z " fill="rgb(33,25,21)"/><path d=" M 105.989 41.985 C 105.246 42.029 104.875 42.053 104.134 42.107 C 104.134 42.107 104.076 41.941 104.259 41.928 C 104.441 41.915 104.315 41.091 104.304 41.047 C 104.254 40.769 104.228 40.629 104.179 40.35 C 102.904 40.01 102.539 40.842 102.448 41.226 C 102.414 41.4 102.288 42.082 102.448 42.069 C 102.63 42.053 102.573 42.229 102.573 42.229 C 101.991 42.278 101.699 42.304 101.116 42.359 C 101.116 42.359 101.139 42.187 101.31 42.171 C 101.503 42.152 101.708 41.303 101.72 41.255 C 102.118 39.484 102.516 37.712 102.916 35.939 C 102.926 35.893 103.108 35.047 102.916 35.063 C 102.744 35.077 102.801 34.902 102.801 34.902 C 103.561 34.839 103.942 34.81 104.702 34.758 C 104.702 34.758 104.759 34.925 104.577 34.937 C 104.395 34.95 104.532 35.794 104.532 35.817 C 104.764 37.107 104.995 38.397 105.226 39.688 C 105.499 39.476 105.215 39.165 105.215 39.165 C 105.932 39.118 106.103 40.145 105.352 40.408 C 105.393 40.633 105.413 40.746 105.454 40.97 C 105.454 40.993 105.614 41.838 105.808 41.826 C 105.977 41.816 105.989 41.985 105.989 41.985 Z  M 104.076 39.811 C 103.883 38.73 103.689 37.647 103.496 36.565 C 103.23 37.743 102.964 38.922 102.699 40.101 C 103.268 39.769 103.701 39.77 104.076 39.811 Z " fill="rgb(33,25,21)"/><path d=" M 108.299 41.862 C 107.553 41.889 107.179 41.907 106.433 41.948 C 106.433 41.948 106.41 41.778 106.592 41.769 C 106.774 41.759 106.785 40.928 106.785 40.881 C 106.785 39.143 106.785 37.406 106.785 35.667 C 106.785 35.622 106.774 34.79 106.592 34.8 C 106.41 34.81 106.433 34.638 106.433 34.638 C 107.179 34.598 107.553 34.58 108.299 34.551 C 108.299 34.551 108.322 34.721 108.14 34.728 C 107.947 34.736 107.935 35.625 107.935 35.625 C 107.935 37.359 107.935 39.094 107.935 40.828 C 107.935 40.828 107.947 41.704 108.14 41.696 C 108.322 41.689 108.299 41.862 108.299 41.862 Z " fill="rgb(33,25,21)"/><path d=" M 112.409 39.951 C 112.406 40.938 111.829 41.82 110.394 41.849 C 109.484 41.866 108.732 41.222 108.732 40.208 C 108.732 38.819 110.122 38.951 110.122 39.645 C 109.54 39.658 109.484 41.331 110.394 41.313 C 110.85 41.305 111.258 40.683 111.26 39.957 C 111.266 38.126 108.875 37.942 108.835 36.22 C 108.808 35.076 109.611 34.54 110.429 34.402 C 111.279 34.258 112.159 34.486 112.159 34.486 C 112.159 35.043 111.624 36.367 111.59 36.88 C 111.579 36.971 111.612 37.039 111.669 37.061 C 111.659 37.05 111.659 37.05 111.659 37.038 C 111.659 36.891 111.783 36.764 111.931 36.764 C 112.079 36.763 112.193 36.888 112.193 37.036 C 112.193 37.207 112.067 37.366 111.874 37.435 C 111.715 37.493 111.487 37.507 111.305 37.338 C 110.599 36.696 111.954 34.9 110.634 34.922 C 110.11 34.931 109.917 35.512 109.973 36.188 C 110.099 37.7 112.416 38.049 112.409 39.951 Z " fill="rgb(33,25,21)"/><path d=" M 44.146 43.783 C 44.281 45.81 44.414 47.838 44.549 49.865 C 44.634 51.245 44.192 52.682 42.849 53.306 C 41.624 53.876 39.998 53.522 39.449 52.257 C 39.014 51.254 39.368 50.271 39.872 49.751 C 40.538 49.066 41.818 49.087 42.105 49.822 C 41.724 49.55 40.292 50.242 40.926 51.509 C 41.187 52.049 41.876 52.043 42.41 51.798 C 43.235 51.42 43.312 50.48 43.284 49.867 C 43.156 47.931 43.028 45.995 42.9 44.06 C 42.573 44.034 42.205 43.963 41.821 43.828 C 40.449 43.336 39.719 43.474 39.068 44.031 C 38.193 44.82 37.79 46.597 39.061 47.152 C 39.966 47.545 40.842 46.815 40.937 46.367 C 41.533 47.048 41.191 47.883 40.504 48.327 C 40.038 48.628 39.366 48.718 38.87 48.621 C 36.951 48.06 36.981 46.051 37.513 44.739 C 38.392 42.568 41.418 43.23 43.354 43.152 C 44.148 43.12 44.235 42.478 44.235 42.478 C 44.694 42.973 44.601 43.475 44.146 43.783 Z " fill="rgb(33,25,21)"/><path d=" M 48.812 45.471 C 48.894 46.729 48.978 47.986 49.061 49.243 C 49.114 50.222 48.287 51.122 47.337 51.289 C 46.387 51.457 45.44 50.743 45.377 49.788 C 45.294 48.531 45.211 47.273 45.127 46.017 C 45.064 45.051 45.839 44.17 46.865 43.994 C 46.87 43.993 46.872 43.993 46.877 43.993 C 47.886 43.888 48.749 44.518 48.812 45.471 Z  M 47.671 45.651 C 47.636 45.129 47.325 44.729 46.891 44.552 C 46.488 44.854 46.235 45.336 46.27 45.859 C 46.353 47.115 46.436 48.373 46.519 49.629 C 46.553 50.153 46.865 50.556 47.299 50.732 C 47.702 50.432 47.954 49.946 47.92 49.423 C 47.837 48.165 47.754 46.908 47.671 45.651 Z " fill="rgb(33,25,21)"/><path d=" M 51.69 50.526 C 50.949 50.653 50.578 50.713 49.837 50.831 C 49.837 50.831 49.805 50.666 49.985 50.637 C 50.166 50.607 50.128 49.788 50.125 49.742 C 50.022 48.028 49.919 46.315 49.815 44.601 C 49.812 44.557 49.752 43.739 49.571 43.766 C 49.39 43.796 49.403 43.624 49.403 43.624 C 50.144 43.506 50.515 43.446 51.255 43.32 C 51.255 43.32 51.288 43.484 51.107 43.515 C 50.915 43.547 50.957 44.425 50.957 44.425 C 51.06 46.136 51.162 47.845 51.265 49.555 C 51.265 49.555 51.329 50.417 51.521 50.385 C 51.702 50.355 51.69 50.526 51.69 50.526 Z " fill="rgb(33,25,21)"/><path d=" M 56.794 49.662 C 56.059 49.808 55.691 49.83 54.956 49.969 C 54.956 49.969 54.89 49.81 55.07 49.775 C 55.251 49.742 55.078 48.983 55.064 48.94 C 54.998 48.668 54.965 48.532 54.899 48.259 C 53.611 48.067 53.296 48.924 53.227 49.314 C 53.203 49.491 53.135 50.108 53.293 50.081 C 53.473 50.048 53.411 50.214 53.411 50.214 C 52.833 50.317 52.544 50.369 51.966 50.467 C 51.966 50.467 51.979 50.294 52.148 50.264 C 52.34 50.232 52.494 49.457 52.503 49.409 C 52.797 47.603 53.091 45.797 53.384 43.991 C 53.393 43.945 53.525 43.082 53.333 43.117 C 53.164 43.147 53.21 42.967 53.21 42.967 C 53.964 42.829 54.341 42.759 55.095 42.615 C 55.095 42.615 55.161 42.773 54.98 42.808 C 54.799 42.842 54.985 43.67 54.986 43.692 C 55.291 44.952 55.597 46.21 55.902 47.469 C 56.162 47.223 55.86 46.948 55.86 46.948 C 56.571 46.81 56.8 47.81 56.069 48.172 C 56.123 48.392 56.149 48.5 56.203 48.72 C 56.204 48.743 56.412 49.565 56.604 49.527 C 56.773 49.494 56.794 49.662 56.794 49.662 Z  M 54.765 47.734 C 54.51 46.674 54.254 45.616 53.998 44.556 C 53.803 45.76 53.607 46.964 53.411 48.168 C 53.958 47.781 54.389 47.735 54.765 47.734 Z " fill="rgb(33,25,21)"/><path d=" M 60.721 47.269 C 60.794 48.421 59.966 49.361 58.855 49.584 C 57.966 49.764 57.168 49.264 57.101 48.253 C 57.01 46.868 58.393 46.746 58.439 47.438 C 57.865 47.563 57.92 49.245 58.82 49.051 C 59.27 48.953 59.625 48.243 59.586 47.523 C 59.487 45.736 57.082 45.955 56.939 44.255 C 56.844 43.108 57.598 42.446 58.397 42.147 C 59.229 41.837 60.114 41.872 60.114 41.872 C 60.151 42.429 59.709 43.864 59.709 44.383 C 59.703 44.477 59.742 44.538 59.8 44.548 C 59.788 44.539 59.788 44.539 59.787 44.528 C 59.777 44.38 59.893 44.228 60.039 44.195 C 60.185 44.163 60.306 44.261 60.315 44.409 C 60.327 44.58 60.213 44.767 60.027 44.877 C 59.874 44.969 59.649 45.03 59.458 44.9 C 58.718 44.406 59.939 42.341 58.634 42.625 C 58.117 42.738 57.944 43.377 58.064 44.016 C 58.323 45.387 60.606 45.441 60.721 47.269 Z " fill="rgb(33,25,21)"/><path d=" M 72.251 47.375 C 71.441 47.524 71.037 47.598 70.227 47.744 C 70.227 47.744 70.178 47.569 70.363 47.534 C 70.573 47.497 70.424 46.623 70.412 46.575 C 70.229 45.567 70.138 45.062 69.955 44.054 C 69.536 44.093 69.054 44.069 68.487 43.973 C 68.348 44.555 68.279 44.846 68.141 45.429 C 67.815 46.934 66.925 48.88 65.314 49.259 C 63.888 49.596 62.772 48.563 62.809 47.167 C 62.836 46.154 63.452 45.439 64.093 45.038 C 64.803 44.594 65.586 44.732 65.821 45.333 C 65.969 44.9 66.216 44.45 66.894 43.972 C 67.178 43.786 67.462 43.661 67.771 43.595 C 68.061 42.369 68.344 41.141 68.622 39.913 C 68.734 39.312 68.648 39.205 68.597 39.188 C 67.314 38.74 66.166 39.336 65.722 39.697 C 64.927 40.414 64.081 42.401 65.377 42.917 C 66.203 43.246 67.154 42.433 67.278 41.98 C 67.82 42.612 67.421 43.471 66.722 43.966 C 66.241 44.306 65.574 44.438 65.093 44.398 C 63.272 44.036 63.155 41.994 64.006 40.659 C 65.406 38.463 67.936 38.383 70.301 38.474 C 70.371 38.461 70.405 38.455 70.474 38.442 C 71.166 38.292 71.228 37.75 71.228 37.75 C 71.771 38.355 71.314 39.055 70.4 39.295 C 70.413 39.453 70.438 39.572 70.438 39.585 C 70.67 40.876 70.785 41.52 71.017 42.811 C 71.498 42.391 71.437 41.945 71.437 41.945 C 72.079 42.223 71.906 43.118 71.375 43.524 C 71.296 43.583 71.257 43.612 71.178 43.672 C 71.371 44.742 71.466 45.277 71.659 46.348 C 71.672 46.371 71.844 47.265 72.054 47.226 C 72.239 47.192 72.251 47.375 72.251 47.375 Z  M 67.671 43.995 C 66.376 44.274 65.894 45.739 65.894 45.739 C 65.549 45.109 63.87 45.793 64.216 47.14 C 64.364 47.695 64.982 47.946 65.549 47.824 C 66.533 47.614 67.005 46.446 67.265 45.586 C 67.376 45.207 67.511 44.641 67.671 43.995 Z  M 69.831 43.349 C 69.624 42.216 69.521 41.65 69.313 40.516 C 69.14 41.25 68.87 42.411 68.61 43.458 C 69.042 43.417 69.461 43.415 69.831 43.349 Z " fill="rgb(33,25,21)"/><path d=" M 77.197 45.783 C 76.455 45.921 76.084 45.989 75.341 46.125 C 75.341 46.125 75.217 45.977 75.387 45.947 C 75.569 45.912 75.08 45.172 75.046 45.132 C 74.579 44.433 74.351 44.123 73.987 44.189 C 73.987 44.644 73.987 44.873 73.987 45.328 C 73.987 45.373 74.01 46.2 74.192 46.167 C 74.374 46.134 74.351 46.308 74.351 46.308 C 73.605 46.445 73.231 46.515 72.485 46.652 C 72.485 46.652 72.461 46.486 72.644 46.453 C 72.826 46.419 72.836 45.608 72.836 45.54 C 72.836 43.802 72.836 42.065 72.836 40.326 C 72.836 40.258 72.826 39.451 72.644 39.485 C 72.461 39.518 72.485 39.343 72.485 39.343 C 73.304 39.193 73.714 39.117 74.533 38.966 C 75.895 38.702 77.073 39.713 77.084 41.08 C 77.092 42.102 76.344 43.342 75.433 43.82 C 75.739 44.261 75.891 44.481 76.196 44.922 C 76.196 44.922 76.743 45.696 76.936 45.662 C 77.117 45.628 77.197 45.783 77.197 45.783 Z  M 75.956 41.276 C 75.967 40.103 75.114 39.28 74.09 39.469 C 74.055 39.475 74.021 39.481 73.987 39.499 C 73.987 40.929 73.987 42.361 73.987 43.791 C 74.028 43.784 74.049 43.779 74.09 43.772 C 75.22 43.507 75.946 42.389 75.956 41.276 Z " fill="rgb(33,25,21)"/><path d=" M 82.287 40.162 C 82.287 40.322 82.125 40.528 81.967 40.617 C 81.815 40.704 81.58 40.755 81.398 40.616 C 80.692 40.094 81.899 38.124 80.795 38.3 C 80.69 38.319 80.637 38.328 80.533 38.347 C 80.533 40.294 80.533 42.241 80.533 44.188 C 80.533 44.233 80.556 45.06 80.738 45.027 C 80.92 44.995 80.898 45.169 80.898 45.169 C 80.15 45.304 79.777 45.372 79.03 45.508 C 79.03 45.508 79.007 45.341 79.19 45.308 C 79.372 45.275 79.384 44.463 79.384 44.395 C 79.384 42.45 79.384 40.502 79.384 38.555 C 79.283 38.574 79.233 38.583 79.133 38.601 C 78.029 38.825 79.224 40.36 78.529 41.135 C 78.347 41.34 78.115 41.373 77.96 41.343 C 77.827 41.315 77.641 41.185 77.641 41.002 C 77.641 40.854 77.756 40.708 77.903 40.681 C 78.051 40.654 78.177 40.756 78.177 40.904 C 78.177 40.916 78.177 40.916 78.165 40.93 C 78.222 40.897 78.256 40.821 78.245 40.733 C 78.21 40.226 77.675 39.004 77.675 38.446 C 79.2 38.166 80.725 37.889 82.252 37.618 C 82.252 38.176 81.717 39.592 81.682 40.11 C 81.671 40.204 81.706 40.266 81.751 40.281 C 81.751 40.271 81.751 40.267 81.751 40.258 C 81.751 40.11 81.876 39.962 82.024 39.936 C 82.173 39.91 82.287 40.014 82.287 40.162 Z " fill="rgb(33,25,21)"/><path d=" M 86.407 44.267 C 85.178 44.476 83.947 44.687 82.719 44.902 C 82.719 44.902 82.695 44.735 82.878 44.703 C 83.061 44.671 83.072 43.862 83.072 43.792 C 83.072 42.055 83.072 40.317 83.072 38.578 C 83.072 38.51 83.061 37.703 82.878 37.735 C 82.695 37.768 82.719 37.593 82.719 37.593 C 83.921 37.38 85.124 37.172 86.327 36.971 C 86.327 37.529 85.792 38.94 85.758 39.458 C 85.747 39.551 85.781 39.613 85.826 39.628 C 85.826 39.619 85.826 39.615 85.826 39.606 C 85.826 39.458 85.952 39.311 86.1 39.287 C 86.236 39.263 86.362 39.368 86.362 39.516 C 86.362 39.675 86.236 39.866 86.043 39.968 C 85.883 40.051 85.644 40.104 85.473 39.962 C 84.767 39.433 85.974 37.473 84.869 37.64 C 84.61 37.684 84.48 37.706 84.221 37.751 C 84.221 39.118 84.221 40.484 84.221 41.851 C 84.336 41.83 85.097 41.677 85.097 41.494 C 85.097 41.324 85.268 41.317 85.268 41.317 C 85.268 41.772 85.268 42 85.268 42.457 C 85.268 42.457 85.097 42.509 85.097 42.338 C 85.097 42.155 84.335 42.263 84.221 42.283 C 84.221 43.058 84.221 43.445 84.221 44.219 C 84.467 44.176 84.59 44.154 84.836 44.113 C 85.712 43.928 85.883 42.477 85.883 42.113 C 85.883 41.612 86.407 41.661 86.407 41.661 C 86.407 41.661 86.009 42.694 86.407 44.267 Z " fill="rgb(33,25,21)"/><path d=" M 90.608 41.835 C 90.605 42.991 89.711 43.867 88.593 44.028 C 87.694 44.157 86.93 43.627 86.93 42.614 C 86.93 41.225 88.32 41.169 88.32 41.864 C 87.739 41.956 87.683 43.638 88.593 43.494 C 89.049 43.42 89.45 42.733 89.459 42.013 C 89.478 40.221 87.061 40.314 87.033 38.612 C 87.015 37.459 87.809 36.83 88.627 36.577 C 89.478 36.313 90.358 36.409 90.358 36.409 C 90.358 36.967 89.822 38.37 89.789 38.887 C 89.777 38.98 89.811 39.042 89.868 39.057 C 89.857 39.047 89.857 39.047 89.857 39.036 C 89.857 38.888 89.982 38.743 90.13 38.72 C 90.278 38.698 90.391 38.806 90.391 38.953 C 90.391 39.124 90.266 39.303 90.072 39.401 C 89.913 39.482 89.686 39.529 89.503 39.387 C 88.797 38.848 90.152 36.858 88.831 37.068 C 88.308 37.151 88.093 37.78 88.172 38.426 C 88.34 39.807 90.614 39.997 90.608 41.835 Z " fill="rgb(33,25,21)"/><path d=" M 95.845 42.946 C 95.103 43.04 94.733 43.089 93.989 43.191 C 93.989 43.191 93.933 43.027 94.115 43.003 C 94.297 42.978 94.172 42.164 94.16 42.12 C 94.11 41.843 94.085 41.705 94.035 41.43 C 92.76 41.172 92.396 42.026 92.304 42.414 C 92.271 42.59 92.145 43.279 92.304 43.256 C 92.487 43.23 92.43 43.409 92.43 43.409 C 91.847 43.494 91.555 43.537 90.973 43.624 C 90.973 43.624 90.995 43.45 91.166 43.424 C 91.36 43.395 91.565 42.534 91.575 42.487 C 91.974 40.691 92.372 38.895 92.772 37.099 C 92.782 37.052 92.965 36.195 92.772 36.223 C 92.601 36.246 92.658 36.068 92.658 36.068 C 93.418 35.959 93.798 35.906 94.559 35.805 C 94.559 35.805 94.616 35.967 94.434 35.992 C 94.251 36.016 94.388 36.852 94.388 36.875 C 94.619 38.15 94.851 39.424 95.083 40.699 C 95.355 40.469 95.071 40.176 95.071 40.176 C 95.788 40.083 95.96 41.096 95.208 41.411 C 95.249 41.634 95.269 41.745 95.311 41.967 C 95.311 41.99 95.47 42.823 95.663 42.799 C 95.833 42.777 95.845 42.946 95.845 42.946 Z  M 93.933 40.899 C 93.739 39.828 93.546 38.758 93.351 37.689 C 93.086 38.884 92.821 40.079 92.554 41.274 C 93.124 40.907 93.557 40.881 93.933 40.899 Z " fill="rgb(33,25,21)"/><path d=" M 31.497 52.547 C 31.341 52.367 31.163 52.205 30.963 52.069 C 30.762 51.938 30.538 51.834 30.306 51.767 C 30.189 51.74 30.072 51.709 29.953 51.698 L 29.864 51.688 C 29.835 51.683 29.805 51.68 29.775 51.68 L 29.596 51.679 C 29.359 51.687 29.124 51.718 28.9 51.786 C 28.545 51.885 28.229 52.059 27.933 52.258 C 28.033 52.126 28.136 52.004 28.237 51.895 C 28.45 51.665 28.658 51.487 28.848 51.348 C 29.036 51.204 29.214 51.112 29.366 51.03 C 29.52 50.956 29.653 50.9 29.766 50.858 C 29.823 50.839 29.875 50.818 29.922 50.803 C 29.969 50.788 30.011 50.774 30.049 50.761 C 30.125 50.73 30.183 50.713 30.227 50.69 C 30.314 50.648 30.344 50.602 30.346 50.563 C 30.349 50.523 30.327 50.479 30.234 50.431 C 30.186 50.408 30.12 50.38 30.029 50.367 C 29.984 50.36 29.933 50.352 29.874 50.346 C 29.815 50.342 29.75 50.346 29.678 50.347 C 29.531 50.354 29.357 50.381 29.154 50.439 C 28.955 50.501 28.722 50.59 28.477 50.739 C 28.444 50.759 28.409 50.787 28.375 50.809 C 28.346 50.822 28.319 50.83 28.29 50.845 C 28.046 50.971 27.797 51.154 27.573 51.388 C 27.35 51.625 27.17 51.887 27.03 52.14 C 26.955 52.276 26.892 52.408 26.837 52.535 C 26.647 52.884 26.478 53.257 26.335 53.646 C 26.249 53.879 26.171 54.117 26.095 54.353 C 26.07 54.084 26.013 53.811 25.899 53.55 C 25.836 53.405 25.758 53.266 25.663 53.136 C 25.569 53.006 25.46 52.891 25.342 52.791 C 25.105 52.588 24.824 52.451 24.538 52.393 C 24.395 52.365 24.254 52.359 24.123 52.369 C 24.09 52.372 24.057 52.376 24.026 52.379 C 23.993 52.385 23.961 52.392 23.93 52.398 C 23.898 52.403 23.868 52.412 23.839 52.422 C 23.81 52.43 23.78 52.438 23.753 52.449 C 23.53 52.534 23.36 52.657 23.233 52.786 C 23.106 52.913 23.021 53.046 22.962 53.167 C 22.935 53.228 22.911 53.285 22.898 53.339 C 22.88 53.393 22.871 53.443 22.864 53.489 C 22.855 53.535 22.856 53.578 22.855 53.615 C 22.855 53.634 22.854 53.652 22.856 53.668 C 22.857 53.684 22.86 53.699 22.862 53.714 C 22.866 53.743 22.872 53.769 22.877 53.79 C 22.883 53.812 22.891 53.83 22.899 53.845 C 22.93 53.904 22.96 53.914 22.986 53.912 C 23.011 53.91 23.039 53.892 23.067 53.841 C 23.074 53.828 23.08 53.813 23.088 53.797 C 23.096 53.78 23.105 53.762 23.115 53.741 C 23.119 53.73 23.123 53.719 23.128 53.708 C 23.134 53.696 23.14 53.683 23.146 53.671 C 23.158 53.647 23.168 53.616 23.186 53.588 C 23.202 53.558 23.217 53.524 23.24 53.49 C 23.259 53.456 23.286 53.42 23.313 53.382 C 23.37 53.307 23.443 53.225 23.542 53.144 C 23.64 53.066 23.764 52.991 23.912 52.942 C 23.931 52.936 23.95 52.933 23.969 52.927 C 23.988 52.921 24.008 52.915 24.028 52.915 C 24.048 52.91 24.069 52.907 24.089 52.903 C 24.11 52.902 24.132 52.9 24.154 52.899 C 24.244 52.894 24.339 52.898 24.439 52.919 C 24.638 52.96 24.848 53.051 25.037 53.193 C 25.226 53.338 25.387 53.526 25.51 53.753 C 25.632 53.977 25.714 54.233 25.758 54.492 C 25.803 54.751 25.814 55.012 25.8 55.26 C 25.799 55.287 25.794 55.312 25.793 55.339 C 25.759 55.447 25.726 55.555 25.692 55.661 C 25.661 55.747 25.632 55.824 25.602 55.909 C 25.601 55.861 25.603 55.816 25.599 55.77 C 25.577 55.559 25.527 55.359 25.442 55.176 C 25.271 54.816 25.032 54.607 24.831 54.488 C 24.625 54.371 24.453 54.339 24.334 54.34 C 24.214 54.34 24.143 54.368 24.105 54.396 C 24.065 54.426 24.056 54.456 24.056 54.483 C 24.056 54.509 24.067 54.538 24.098 54.571 C 24.13 54.6 24.182 54.633 24.26 54.678 C 24.339 54.723 24.444 54.784 24.574 54.89 C 24.701 54.998 24.857 55.159 24.976 55.41 C 25.034 55.533 25.08 55.682 25.109 55.841 C 25.136 55.999 25.146 56.169 25.136 56.344 C 25.12 56.693 25.026 57.049 24.908 57.358 C 24.792 57.669 24.661 57.935 24.568 58.126 C 24.503 58.258 24.458 58.35 24.435 58.397 C 24.373 58.484 24.312 58.574 24.249 58.652 C 24.132 58.789 24.024 58.921 23.91 59.031 C 23.855 59.086 23.803 59.144 23.749 59.193 C 23.694 59.242 23.642 59.289 23.592 59.334 C 23.568 59.356 23.544 59.377 23.52 59.397 C 23.495 59.417 23.471 59.437 23.447 59.455 C 23.4 59.493 23.356 59.528 23.314 59.56 C 23.233 59.628 23.157 59.677 23.096 59.72 C 22.974 59.804 22.907 59.85 22.907 59.85 C 22.907 59.85 22.94 59.836 23.002 59.812 C 23.033 59.8 23.072 59.784 23.117 59.765 C 23.161 59.745 23.212 59.719 23.27 59.69 C 23.329 59.664 23.39 59.626 23.458 59.586 C 23.527 59.547 23.597 59.496 23.674 59.446 C 23.693 59.43 23.712 59.418 23.732 59.403 C 23.751 59.389 23.77 59.372 23.79 59.357 C 23.829 59.328 23.87 59.295 23.911 59.262 C 23.917 59.257 23.923 59.252 23.928 59.247 C 23.958 59.223 23.989 59.201 24.02 59.178 C 24.01 59.197 23.997 59.22 23.997 59.22 C 23.997 59.22 24.015 59.203 24.047 59.171 C 24.08 59.141 24.125 59.094 24.184 59.042 C 24.306 58.939 24.476 58.795 24.687 58.665 C 24.898 58.534 25.143 58.411 25.395 58.316 C 25.645 58.221 25.901 58.152 26.129 58.101 C 26.587 58.008 26.849 57.992 27 57.945 C 27.151 57.908 27.192 57.843 27.199 57.791 C 27.205 57.738 27.186 57.669 27.026 57.599 C 26.986 57.581 26.938 57.568 26.878 57.555 C 26.819 57.544 26.749 57.528 26.667 57.525 C 26.584 57.522 26.491 57.517 26.383 57.527 C 26.33 57.533 26.272 57.534 26.213 57.544 C 26.153 57.556 26.09 57.567 26.023 57.579 C 25.893 57.609 25.758 57.651 25.623 57.706 C 25.631 57.7 25.639 57.696 25.647 57.691 C 25.734 57.637 25.819 57.568 25.91 57.496 C 26.085 57.347 26.264 57.161 26.42 56.942 C 26.574 56.719 26.688 56.485 26.77 56.266 C 26.808 56.155 26.843 56.049 26.866 55.947 C 26.877 55.897 26.89 55.847 26.898 55.801 C 26.906 55.753 26.914 55.707 26.92 55.663 C 26.935 55.575 26.939 55.496 26.944 55.426 C 26.947 55.392 26.948 55.359 26.949 55.33 C 26.949 55.299 26.948 55.271 26.948 55.247 C 26.946 55.149 26.942 55.095 26.942 55.095 C 26.942 55.095 26.914 55.142 26.869 55.227 C 26.858 55.248 26.846 55.272 26.833 55.298 C 26.819 55.323 26.803 55.35 26.787 55.38 C 26.753 55.437 26.72 55.506 26.676 55.577 C 26.656 55.612 26.634 55.65 26.612 55.687 C 26.59 55.728 26.564 55.766 26.54 55.807 C 26.492 55.89 26.435 55.975 26.381 56.065 C 26.265 56.242 26.139 56.431 26.002 56.629 C 25.917 56.75 25.837 56.857 25.755 56.968 C 25.809 56.861 25.867 56.757 25.919 56.648 C 26.024 56.426 26.123 56.203 26.219 55.974 C 26.316 55.745 26.408 55.512 26.496 55.281 C 26.664 54.846 26.824 54.417 26.993 54.01 C 27.061 53.91 27.126 53.808 27.2 53.712 C 27.44 53.411 27.722 53.137 28.038 52.915 C 28.354 52.698 28.701 52.522 29.059 52.442 C 29.238 52.395 29.418 52.382 29.594 52.383 L 29.726 52.39 C 29.748 52.39 29.769 52.395 29.791 52.397 L 29.856 52.408 C 29.943 52.418 30.025 52.446 30.109 52.468 C 30.27 52.52 30.421 52.598 30.561 52.695 C 30.7 52.796 30.824 52.917 30.935 53.05 C 31.151 53.318 31.299 53.641 31.358 53.967 C 31.421 54.293 31.389 54.613 31.283 54.901 C 31.268 54.938 31.254 54.973 31.24 55.009 C 31.227 55.044 31.206 55.076 31.19 55.112 C 31.159 55.179 31.114 55.24 31.076 55.305 C 30.99 55.424 30.9 55.54 30.797 55.634 C 30.697 55.734 30.586 55.813 30.477 55.886 C 30.42 55.917 30.366 55.953 30.309 55.98 C 30.252 56.006 30.197 56.037 30.139 56.055 C 29.914 56.141 29.686 56.172 29.482 56.166 C 29.278 56.154 29.085 56.102 28.924 56.025 C 28.759 55.95 28.63 55.846 28.531 55.736 C 28.433 55.627 28.37 55.506 28.334 55.39 C 28.301 55.288 28.299 55.176 28.316 55.07 C 28.332 54.966 28.366 54.87 28.406 54.788 C 28.491 54.621 28.595 54.51 28.686 54.439 C 28.779 54.37 28.86 54.334 28.924 54.31 C 28.989 54.287 29.037 54.272 29.069 54.255 C 29.1 54.242 29.117 54.222 29.122 54.204 C 29.127 54.185 29.122 54.16 29.094 54.134 C 29.066 54.104 29.013 54.072 28.92 54.05 C 28.827 54.031 28.689 54.026 28.519 54.086 C 28.352 54.147 28.156 54.275 27.986 54.503 C 27.902 54.619 27.825 54.759 27.773 54.932 C 27.721 55.105 27.696 55.313 27.74 55.541 C 27.75 55.598 27.766 55.647 27.781 55.704 C 27.798 55.756 27.82 55.809 27.841 55.864 C 27.867 55.916 27.893 55.969 27.923 56.021 C 27.94 56.046 27.955 56.071 27.972 56.097 C 27.988 56.122 28.006 56.149 28.025 56.171 C 28.174 56.368 28.371 56.541 28.609 56.668 C 28.845 56.799 29.12 56.891 29.427 56.919 C 29.735 56.943 30.063 56.906 30.387 56.79 C 30.471 56.766 30.549 56.725 30.63 56.691 C 30.71 56.655 30.787 56.607 30.868 56.563 C 31.021 56.464 31.176 56.355 31.315 56.22 C 31.46 56.09 31.588 55.932 31.709 55.762 C 31.764 55.673 31.825 55.586 31.872 55.487 C 31.895 55.439 31.923 55.391 31.944 55.339 C 31.965 55.288 31.987 55.237 32.007 55.186 C 32.029 55.133 32.042 55.076 32.06 55.023 C 32.076 54.968 32.094 54.914 32.103 54.856 C 32.115 54.8 32.125 54.742 32.137 54.685 C 32.143 54.627 32.148 54.569 32.155 54.51 C 32.17 54.277 32.161 54.038 32.11 53.808 C 32.018 53.344 31.804 52.907 31.497 52.547 Z " fill="rgb(171,141,98)"/><path d=" M 21.792 58.787 C 21.788 58.762 21.769 58.731 21.683 58.721 C 21.661 58.719 21.636 58.721 21.605 58.722 C 21.575 58.726 21.539 58.728 21.498 58.74 C 21.458 58.748 21.412 58.762 21.361 58.783 C 21.337 58.792 21.308 58.801 21.281 58.815 C 21.253 58.83 21.224 58.844 21.193 58.859 C 21.135 58.892 21.076 58.933 21.017 58.978 C 21.02 58.975 21.023 58.972 21.025 58.969 C 21.061 58.93 21.093 58.885 21.127 58.837 C 21.193 58.739 21.255 58.624 21.301 58.496 C 21.347 58.367 21.372 58.238 21.382 58.121 C 21.386 58.062 21.389 58.006 21.386 57.955 C 21.386 57.929 21.385 57.903 21.383 57.88 C 21.381 57.856 21.378 57.833 21.376 57.81 C 21.372 57.767 21.363 57.727 21.356 57.693 C 21.352 57.677 21.349 57.662 21.346 57.647 C 21.341 57.632 21.337 57.62 21.334 57.608 C 21.32 57.561 21.311 57.535 21.311 57.535 C 21.311 57.535 21.304 57.563 21.294 57.61 C 21.291 57.621 21.288 57.634 21.285 57.649 C 21.282 57.662 21.278 57.678 21.274 57.695 C 21.265 57.727 21.258 57.765 21.245 57.806 C 21.241 57.825 21.235 57.846 21.229 57.868 C 21.223 57.89 21.217 57.911 21.21 57.935 C 21.198 57.983 21.181 58.032 21.166 58.082 C 21.134 58.184 21.098 58.294 21.057 58.408 C 21.024 58.502 20.991 58.587 20.959 58.671 C 20.977 58.589 21.005 58.514 21.019 58.43 C 21.041 58.308 21.059 58.187 21.076 58.063 C 21.094 57.939 21.107 57.814 21.12 57.69 C 21.142 57.471 21.163 57.256 21.189 57.048 C 21.212 56.977 21.226 56.905 21.254 56.837 C 21.331 56.656 21.431 56.483 21.556 56.331 C 21.681 56.181 21.826 56.044 21.989 55.954 C 22.069 55.906 22.156 55.871 22.241 55.846 L 22.306 55.83 C 22.317 55.826 22.328 55.826 22.339 55.824 L 22.371 55.82 C 22.414 55.812 22.458 55.813 22.502 55.812 C 22.587 55.814 22.671 55.827 22.752 55.854 C 22.832 55.881 22.909 55.92 22.98 55.967 C 23.119 56.066 23.234 56.198 23.306 56.344 C 23.379 56.492 23.405 56.649 23.392 56.803 C 23.39 56.821 23.388 56.84 23.385 56.861 C 23.384 56.879 23.378 56.897 23.375 56.916 C 23.369 56.955 23.355 56.99 23.345 57.026 C 23.319 57.096 23.291 57.165 23.253 57.224 C 23.218 57.287 23.174 57.341 23.131 57.393 C 23.107 57.416 23.087 57.44 23.062 57.463 C 23.037 57.482 23.015 57.505 22.989 57.523 C 22.891 57.597 22.785 57.646 22.685 57.674 C 22.585 57.698 22.485 57.7 22.396 57.688 C 22.306 57.675 22.229 57.645 22.167 57.608 C 22.104 57.57 22.058 57.522 22.026 57.471 C 21.996 57.428 21.98 57.374 21.975 57.322 C 21.969 57.269 21.973 57.218 21.982 57.172 C 22 57.081 22.036 57.011 22.071 56.964 C 22.107 56.918 22.142 56.888 22.17 56.868 C 22.198 56.846 22.219 56.832 22.233 56.821 C 22.246 56.808 22.251 56.797 22.252 56.787 C 22.252 56.776 22.246 56.767 22.229 56.757 C 22.211 56.748 22.181 56.741 22.133 56.744 C 22.085 56.748 22.018 56.767 21.944 56.82 C 21.871 56.875 21.792 56.964 21.74 57.1 C 21.714 57.166 21.695 57.245 21.693 57.335 C 21.69 57.426 21.705 57.528 21.757 57.631 C 21.769 57.658 21.784 57.678 21.798 57.703 C 21.813 57.727 21.832 57.746 21.849 57.77 C 21.868 57.791 21.888 57.813 21.909 57.834 C 21.92 57.844 21.932 57.852 21.943 57.863 C 21.955 57.872 21.966 57.882 21.978 57.891 C 22.077 57.962 22.196 58.017 22.327 58.043 C 22.46 58.07 22.605 58.073 22.758 58.041 C 22.911 58.006 23.064 57.942 23.207 57.837 C 23.244 57.814 23.277 57.783 23.311 57.754 C 23.346 57.725 23.376 57.692 23.41 57.658 C 23.471 57.589 23.531 57.515 23.582 57.428 C 23.635 57.344 23.676 57.251 23.712 57.151 C 23.728 57.101 23.746 57.05 23.755 56.996 C 23.761 56.969 23.768 56.943 23.771 56.915 C 23.775 56.886 23.778 56.858 23.781 56.831 C 23.786 56.801 23.784 56.775 23.786 56.745 C 23.786 56.716 23.787 56.688 23.785 56.658 C 23.783 56.631 23.781 56.601 23.778 56.572 C 23.774 56.543 23.769 56.516 23.764 56.485 C 23.741 56.372 23.704 56.26 23.65 56.156 C 23.544 55.948 23.383 55.771 23.186 55.643 C 23.087 55.581 22.979 55.529 22.864 55.495 C 22.75 55.462 22.628 55.445 22.505 55.448 C 22.445 55.451 22.385 55.453 22.326 55.466 L 22.282 55.474 C 22.266 55.477 22.251 55.48 22.237 55.484 L 22.15 55.508 C 22.036 55.549 21.926 55.599 21.827 55.663 C 21.679 55.756 21.557 55.875 21.446 56.002 C 21.471 55.942 21.491 55.867 21.519 55.813 C 21.592 55.672 21.67 55.556 21.743 55.462 C 21.817 55.365 21.89 55.295 21.953 55.233 C 22.018 55.174 22.075 55.129 22.125 55.091 C 22.15 55.074 22.172 55.058 22.193 55.042 C 22.214 55.029 22.232 55.015 22.249 55.004 C 22.281 54.977 22.308 54.96 22.326 54.944 C 22.363 54.911 22.371 54.884 22.367 54.865 C 22.364 54.845 22.347 54.827 22.295 54.819 C 22.269 54.815 22.233 54.812 22.188 54.819 C 22.165 54.821 22.138 54.826 22.109 54.831 C 22.081 54.838 22.049 54.849 22.014 54.861 C 21.944 54.885 21.863 54.924 21.772 54.982 C 21.684 55.041 21.582 55.118 21.484 55.224 C 21.467 55.243 21.45 55.265 21.434 55.285 C 21.424 55.293 21.416 55.294 21.407 55.303 C 21.305 55.401 21.208 55.524 21.13 55.67 C 21.054 55.816 21.001 55.966 20.967 56.109 C 20.958 56.147 20.957 56.175 20.95 56.211 C 20.95 56.213 20.949 56.214 20.948 56.217 C 20.886 56.444 20.849 56.687 20.828 56.932 C 20.817 57.062 20.814 57.192 20.809 57.324 C 20.761 57.194 20.697 57.064 20.604 56.951 C 20.554 56.891 20.497 56.835 20.434 56.788 C 20.371 56.741 20.303 56.701 20.232 56.67 C 20.09 56.609 19.936 56.584 19.79 56.598 C 19.717 56.607 19.648 56.624 19.585 56.648 C 19.569 56.654 19.554 56.661 19.54 56.667 C 19.525 56.675 19.511 56.682 19.495 56.691 C 19.481 56.698 19.467 56.707 19.454 56.715 C 19.441 56.724 19.428 56.733 19.416 56.741 C 19.319 56.815 19.254 56.899 19.208 56.98 C 19.163 57.059 19.14 57.135 19.128 57.201 C 19.122 57.235 19.118 57.266 19.119 57.293 C 19.117 57.321 19.119 57.348 19.122 57.37 C 19.124 57.393 19.13 57.413 19.135 57.432 C 19.137 57.441 19.139 57.45 19.142 57.456 C 19.145 57.465 19.148 57.472 19.151 57.477 C 19.157 57.492 19.163 57.502 19.168 57.512 C 19.174 57.521 19.181 57.529 19.186 57.535 C 19.208 57.559 19.225 57.56 19.237 57.555 C 19.248 57.55 19.26 57.537 19.267 57.508 C 19.269 57.501 19.27 57.494 19.271 57.484 C 19.273 57.475 19.275 57.465 19.277 57.455 C 19.277 57.448 19.278 57.442 19.279 57.435 C 19.28 57.429 19.281 57.422 19.283 57.415 C 19.286 57.401 19.286 57.387 19.291 57.37 C 19.295 57.353 19.298 57.334 19.305 57.315 C 19.309 57.296 19.318 57.274 19.326 57.252 C 19.344 57.209 19.368 57.158 19.405 57.105 C 19.443 57.053 19.493 56.999 19.559 56.954 C 19.567 56.948 19.576 56.943 19.585 56.937 C 19.593 56.932 19.602 56.927 19.612 56.922 C 19.621 56.917 19.63 56.913 19.639 56.909 C 19.65 56.904 19.66 56.9 19.67 56.897 C 19.713 56.881 19.76 56.87 19.811 56.865 C 19.913 56.854 20.028 56.868 20.138 56.908 C 20.249 56.949 20.351 57.015 20.441 57.106 C 20.53 57.194 20.603 57.306 20.659 57.422 C 20.715 57.54 20.754 57.663 20.78 57.784 C 20.784 57.801 20.784 57.814 20.787 57.83 C 20.784 57.885 20.782 57.941 20.781 57.995 C 20.777 58.045 20.772 58.091 20.768 58.141 C 20.76 58.113 20.759 58.084 20.749 58.058 C 20.712 57.959 20.66 57.872 20.595 57.797 C 20.465 57.649 20.322 57.585 20.208 57.558 C 20.093 57.531 20.005 57.543 19.948 57.561 C 19.889 57.578 19.859 57.602 19.844 57.622 C 19.828 57.64 19.828 57.657 19.832 57.669 C 19.835 57.683 19.844 57.695 19.863 57.705 C 19.882 57.715 19.912 57.724 19.957 57.732 C 20 57.743 20.06 57.756 20.137 57.788 C 20.212 57.822 20.31 57.873 20.401 57.978 C 20.445 58.028 20.487 58.092 20.521 58.163 C 20.556 58.235 20.583 58.315 20.602 58.401 C 20.64 58.57 20.641 58.754 20.625 58.919 C 20.609 59.086 20.58 59.232 20.56 59.337 C 20.553 59.374 20.548 59.399 20.543 59.424 C 20.519 59.493 20.501 59.574 20.475 59.636 C 20.436 59.718 20.401 59.798 20.36 59.867 C 20.34 59.901 20.324 59.937 20.303 59.968 C 20.283 59.999 20.264 60.03 20.246 60.058 C 20.237 60.073 20.228 60.087 20.219 60.101 C 20.21 60.113 20.201 60.127 20.191 60.138 C 20.173 60.164 20.157 60.186 20.141 60.209 C 20.11 60.253 20.08 60.288 20.056 60.317 C 20.008 60.374 19.982 60.407 19.982 60.407 C 19.982 60.407 19.995 60.396 20.023 60.375 C 20.036 60.365 20.052 60.351 20.072 60.336 C 20.091 60.319 20.112 60.301 20.136 60.277 C 20.161 60.256 20.186 60.229 20.214 60.199 C 20.242 60.171 20.27 60.136 20.299 60.099 C 20.307 60.091 20.315 60.081 20.323 60.072 C 20.33 60.062 20.337 60.052 20.345 60.042 C 20.36 60.021 20.375 60 20.391 59.978 C 20.392 59.975 20.394 59.973 20.395 59.971 C 20.408 59.953 20.42 59.938 20.432 59.921 C 20.43 59.932 20.427 59.944 20.427 59.944 C 20.427 59.944 20.433 59.934 20.445 59.914 C 20.457 59.896 20.472 59.866 20.495 59.832 C 20.539 59.764 20.603 59.671 20.689 59.578 C 20.774 59.483 20.877 59.388 20.986 59.306 C 21.095 59.222 21.21 59.153 21.314 59.095 C 21.524 58.982 21.648 58.936 21.716 58.891 C 21.784 58.85 21.796 58.813 21.792 58.787 Z " fill="rgb(171,141,98)"/><path d=" M 24.656 47.364 C 24.647 47.465 24.652 47.562 24.661 47.656 C 24.669 47.702 24.674 47.75 24.685 47.793 C 24.697 47.837 24.705 47.883 24.721 47.924 C 24.777 48.093 24.865 48.237 24.97 48.357 C 25.077 48.473 25.199 48.556 25.324 48.611 C 25.449 48.668 25.579 48.693 25.703 48.691 C 25.719 48.692 25.734 48.691 25.749 48.689 C 25.764 48.689 25.779 48.688 25.794 48.685 C 25.824 48.681 25.854 48.675 25.882 48.669 C 25.91 48.661 25.938 48.653 25.964 48.643 C 25.991 48.631 26.015 48.623 26.041 48.608 C 26.145 48.553 26.219 48.477 26.271 48.402 C 26.324 48.325 26.354 48.25 26.373 48.179 C 26.411 48.036 26.4 47.916 26.372 47.828 C 26.343 47.741 26.298 47.685 26.261 47.654 C 26.223 47.623 26.194 47.612 26.174 47.609 C 26.154 47.607 26.144 47.612 26.138 47.62 C 26.132 47.627 26.13 47.641 26.134 47.658 C 26.137 47.676 26.146 47.701 26.157 47.734 C 26.168 47.768 26.179 47.813 26.18 47.873 C 26.181 47.932 26.17 48.011 26.13 48.098 C 26.11 48.14 26.084 48.184 26.047 48.225 C 26.011 48.264 25.966 48.298 25.915 48.317 C 25.859 48.339 25.791 48.352 25.717 48.345 C 25.643 48.341 25.561 48.32 25.481 48.277 C 25.399 48.236 25.319 48.175 25.25 48.094 C 25.185 48.014 25.126 47.911 25.089 47.792 C 25.078 47.762 25.074 47.73 25.066 47.698 C 25.058 47.667 25.056 47.632 25.05 47.6 C 25.045 47.532 25.042 47.462 25.05 47.39 C 25.056 47.317 25.072 47.245 25.093 47.171 C 25.106 47.136 25.117 47.098 25.134 47.064 C 25.143 47.047 25.149 47.028 25.159 47.011 C 25.168 46.993 25.177 46.977 25.187 46.959 C 25.268 46.824 25.385 46.711 25.534 46.631 C 25.68 46.553 25.854 46.511 26.028 46.514 C 26.115 46.518 26.201 46.531 26.284 46.554 C 26.366 46.582 26.445 46.618 26.516 46.667 C 26.55 46.695 26.587 46.719 26.618 46.752 L 26.643 46.774 C 26.651 46.782 26.659 46.79 26.666 46.798 L 26.71 46.85 C 26.765 46.922 26.817 47 26.854 47.087 C 26.934 47.259 26.973 47.455 26.986 47.654 C 26.998 47.853 26.977 48.056 26.933 48.249 C 26.915 48.322 26.883 48.391 26.86 48.463 C 26.756 48.649 26.646 48.838 26.533 49.032 C 26.47 49.142 26.406 49.253 26.346 49.365 C 26.286 49.477 26.229 49.588 26.173 49.701 C 26.136 49.777 26.114 49.854 26.081 49.931 C 26.104 49.844 26.127 49.757 26.155 49.661 C 26.191 49.542 26.225 49.432 26.259 49.329 C 26.278 49.277 26.293 49.227 26.312 49.181 C 26.321 49.158 26.327 49.135 26.336 49.114 C 26.344 49.093 26.352 49.073 26.36 49.053 C 26.375 49.012 26.391 48.977 26.403 48.945 C 26.409 48.929 26.415 48.915 26.421 48.901 C 26.427 48.887 26.433 48.874 26.438 48.864 C 26.458 48.818 26.468 48.792 26.468 48.792 C 26.468 48.792 26.445 48.808 26.406 48.839 C 26.396 48.845 26.385 48.854 26.373 48.863 C 26.361 48.873 26.349 48.884 26.336 48.897 C 26.31 48.92 26.28 48.946 26.25 48.98 C 26.235 48.998 26.219 49.015 26.203 49.033 C 26.186 49.052 26.171 49.072 26.154 49.094 C 26.121 49.134 26.092 49.182 26.058 49.234 C 25.998 49.337 25.941 49.457 25.902 49.59 C 25.862 49.724 25.845 49.854 25.841 49.975 C 25.841 50.034 25.841 50.089 25.847 50.143 C 25.847 50.148 25.848 50.152 25.848 50.156 C 25.827 50.084 25.802 50.016 25.773 49.954 C 25.757 49.924 25.741 49.893 25.727 49.866 C 25.713 49.838 25.695 49.814 25.681 49.791 C 25.651 49.743 25.62 49.707 25.593 49.674 C 25.566 49.642 25.538 49.619 25.515 49.598 C 25.491 49.578 25.472 49.56 25.452 49.55 C 25.374 49.509 25.34 49.522 25.322 49.542 C 25.303 49.561 25.291 49.598 25.323 49.672 C 25.351 49.748 25.427 49.86 25.533 50.076 C 25.584 50.186 25.637 50.312 25.678 50.444 C 25.719 50.578 25.746 50.716 25.761 50.844 C 25.776 50.97 25.772 51.085 25.769 51.168 C 25.766 51.209 25.762 51.242 25.761 51.265 C 25.758 51.289 25.757 51.301 25.757 51.301 C 25.757 51.301 25.762 51.289 25.767 51.279 C 25.768 51.301 25.768 51.324 25.768 51.347 C 25.768 51.348 25.768 51.348 25.768 51.349 C 25.767 51.377 25.767 51.404 25.768 51.428 C 25.767 51.443 25.767 51.455 25.768 51.467 C 25.768 51.48 25.769 51.492 25.769 51.505 C 25.772 51.552 25.775 51.596 25.781 51.636 C 25.786 51.678 25.791 51.714 25.798 51.747 C 25.805 51.78 25.81 51.809 25.817 51.832 C 25.823 51.858 25.829 51.877 25.834 51.894 C 25.844 51.928 25.848 51.945 25.848 51.945 C 25.848 51.945 25.846 51.904 25.842 51.826 C 25.839 51.788 25.835 51.743 25.836 51.687 C 25.835 51.66 25.836 51.631 25.836 51.6 C 25.836 51.584 25.836 51.569 25.835 51.552 C 25.837 51.536 25.838 51.519 25.839 51.501 C 25.841 51.467 25.844 51.431 25.846 51.393 C 25.847 51.356 25.855 51.317 25.859 51.276 C 25.867 51.195 25.885 51.109 25.902 51.019 C 25.917 50.951 25.951 50.875 25.972 50.803 C 25.984 50.78 25.995 50.756 26.011 50.721 C 26.057 50.623 26.122 50.485 26.208 50.339 C 26.293 50.194 26.404 50.043 26.537 49.924 C 26.603 49.866 26.674 49.816 26.746 49.777 C 26.816 49.739 26.89 49.71 26.957 49.695 C 27.094 49.663 27.206 49.676 27.288 49.694 C 27.37 49.714 27.427 49.737 27.469 49.755 C 27.512 49.772 27.54 49.784 27.563 49.785 C 27.585 49.789 27.6 49.783 27.61 49.776 C 27.621 49.768 27.63 49.755 27.629 49.73 C 27.628 49.703 27.617 49.666 27.58 49.617 C 27.543 49.568 27.477 49.508 27.366 49.462 C 27.256 49.417 27.099 49.385 26.904 49.431 C 26.805 49.453 26.71 49.496 26.62 49.554 C 26.596 49.571 26.578 49.593 26.556 49.611 C 26.582 49.569 26.606 49.528 26.633 49.483 C 26.663 49.437 26.694 49.392 26.725 49.346 C 26.738 49.333 26.746 49.322 26.759 49.31 C 26.852 49.227 26.959 49.147 27.075 49.085 C 27.191 49.021 27.317 48.973 27.445 48.951 C 27.572 48.929 27.696 48.936 27.813 48.967 C 27.928 49 28.03 49.056 28.108 49.125 C 28.148 49.16 28.179 49.196 28.205 49.234 C 28.212 49.243 28.218 49.253 28.224 49.262 C 28.229 49.272 28.233 49.281 28.238 49.29 C 28.244 49.299 28.248 49.309 28.252 49.318 C 28.256 49.328 28.26 49.338 28.264 49.346 C 28.291 49.423 28.3 49.497 28.299 49.563 C 28.299 49.628 28.289 49.684 28.277 49.731 C 28.27 49.753 28.264 49.777 28.257 49.794 C 28.25 49.815 28.241 49.832 28.236 49.848 C 28.23 49.865 28.221 49.878 28.216 49.89 C 28.212 49.897 28.21 49.903 28.206 49.91 C 28.203 49.915 28.201 49.92 28.198 49.925 C 28.192 49.936 28.188 49.946 28.183 49.955 C 28.179 49.962 28.175 49.97 28.172 49.976 C 28.161 50.005 28.163 50.022 28.17 50.032 C 28.177 50.043 28.191 50.051 28.224 50.046 C 28.232 50.045 28.241 50.043 28.252 50.039 C 28.262 50.033 28.274 50.027 28.286 50.021 C 28.293 50.017 28.3 50.012 28.307 50.008 C 28.314 50.002 28.32 49.998 28.328 49.991 C 28.342 49.98 28.359 49.966 28.375 49.948 C 28.391 49.93 28.409 49.912 28.424 49.887 C 28.441 49.864 28.456 49.836 28.472 49.805 C 28.502 49.743 28.526 49.667 28.538 49.575 C 28.549 49.482 28.545 49.373 28.509 49.256 C 28.504 49.241 28.498 49.226 28.493 49.211 C 28.487 49.196 28.481 49.182 28.474 49.167 C 28.467 49.152 28.459 49.136 28.451 49.122 C 28.443 49.108 28.434 49.094 28.425 49.079 C 28.387 49.023 28.341 48.967 28.286 48.918 C 28.173 48.82 28.031 48.748 27.877 48.716 C 27.801 48.699 27.721 48.692 27.641 48.694 C 27.56 48.697 27.481 48.709 27.404 48.729 C 27.259 48.766 27.128 48.836 27.01 48.916 C 27.084 48.805 27.161 48.696 27.229 48.582 C 27.359 48.366 27.473 48.144 27.558 47.92 C 27.558 47.918 27.558 47.917 27.559 47.915 C 27.575 47.881 27.592 47.857 27.607 47.82 C 27.664 47.683 27.71 47.527 27.735 47.362 C 27.757 47.196 27.752 47.036 27.726 46.897 C 27.723 46.884 27.717 46.877 27.714 46.865 C 27.712 46.839 27.712 46.81 27.709 46.786 C 27.691 46.639 27.653 46.517 27.616 46.415 C 27.575 46.314 27.531 46.234 27.489 46.172 C 27.467 46.143 27.447 46.115 27.428 46.092 C 27.407 46.07 27.388 46.051 27.371 46.036 C 27.337 46.003 27.306 45.985 27.282 45.973 C 27.234 45.949 27.21 45.955 27.195 45.969 C 27.18 45.982 27.172 46.008 27.182 46.058 C 27.187 46.083 27.198 46.112 27.21 46.152 C 27.216 46.172 27.224 46.194 27.233 46.217 C 27.241 46.242 27.249 46.27 27.259 46.298 C 27.278 46.357 27.298 46.43 27.317 46.516 C 27.332 46.605 27.35 46.706 27.353 46.828 C 27.357 46.95 27.352 47.091 27.328 47.251 C 27.319 47.31 27.29 47.385 27.276 47.449 C 27.26 47.278 27.23 47.108 27.164 46.946 C 27.121 46.833 27.06 46.726 26.989 46.628 L 26.932 46.556 C 26.923 46.544 26.912 46.533 26.902 46.523 L 26.87 46.489 C 26.828 46.443 26.779 46.406 26.732 46.366 C 26.633 46.292 26.522 46.235 26.408 46.194 C 26.292 46.156 26.172 46.134 26.053 46.127 C 25.814 46.117 25.575 46.168 25.364 46.277 C 25.257 46.33 25.159 46.402 25.073 46.482 C 25.052 46.502 25.03 46.523 25.009 46.544 C 24.99 46.567 24.971 46.59 24.952 46.612 C 24.932 46.634 24.916 46.659 24.9 46.683 C 24.884 46.707 24.866 46.73 24.852 46.755 C 24.838 46.781 24.824 46.806 24.81 46.83 C 24.796 46.855 24.786 46.882 24.775 46.906 C 24.75 46.957 24.735 47.009 24.717 47.059 C 24.685 47.162 24.663 47.264 24.656 47.364 Z " fill="rgb(171,141,98)"/><path d=" M 17.642 35.956 C 17.624 35.953 17.6 35.962 17.572 35.995 C 17.564 36.004 17.557 36.014 17.549 36.025 C 17.54 36.036 17.53 36.049 17.52 36.063 C 17.516 36.071 17.511 36.078 17.505 36.086 C 17.499 36.094 17.493 36.102 17.487 36.11 C 17.474 36.127 17.462 36.147 17.444 36.166 C 17.427 36.186 17.411 36.208 17.389 36.229 C 17.369 36.252 17.344 36.275 17.318 36.299 C 17.265 36.345 17.198 36.394 17.114 36.436 C 17.029 36.478 16.926 36.512 16.81 36.523 C 16.796 36.523 16.781 36.523 16.766 36.523 C 16.751 36.524 16.736 36.525 16.721 36.523 C 16.706 36.522 16.691 36.52 16.675 36.519 C 16.659 36.516 16.643 36.513 16.626 36.511 C 16.561 36.498 16.492 36.478 16.422 36.444 C 16.284 36.377 16.145 36.27 16.03 36.126 C 15.915 35.982 15.828 35.811 15.775 35.618 C 15.722 35.425 15.704 35.217 15.713 35.013 C 15.721 34.809 15.756 34.609 15.806 34.424 C 15.813 34.399 15.824 34.38 15.831 34.355 C 15.872 34.28 15.913 34.206 15.954 34.132 C 15.994 34.068 16.03 34.009 16.069 33.947 C 16.061 33.991 16.041 34.031 16.035 34.075 C 16.016 34.238 16.021 34.399 16.054 34.552 C 16.121 34.856 16.262 35.057 16.389 35.185 C 16.52 35.311 16.641 35.365 16.728 35.387 C 16.815 35.409 16.871 35.4 16.904 35.386 C 16.937 35.371 16.949 35.351 16.954 35.33 C 16.958 35.31 16.955 35.286 16.937 35.256 C 16.919 35.227 16.886 35.193 16.836 35.144 C 16.786 35.096 16.719 35.031 16.641 34.927 C 16.566 34.822 16.478 34.673 16.431 34.461 C 16.409 34.357 16.399 34.235 16.404 34.111 C 16.41 33.985 16.43 33.854 16.465 33.724 C 16.533 33.463 16.659 33.211 16.795 32.998 C 16.93 32.785 17.068 32.607 17.167 32.479 C 17.245 32.379 17.288 32.324 17.308 32.299 C 17.367 32.245 17.426 32.186 17.485 32.139 C 17.592 32.058 17.692 31.977 17.793 31.915 C 17.843 31.883 17.889 31.849 17.937 31.822 C 17.985 31.795 18.03 31.768 18.074 31.744 C 18.095 31.732 18.116 31.719 18.137 31.707 C 18.159 31.697 18.18 31.687 18.2 31.677 C 18.24 31.658 18.278 31.639 18.313 31.622 C 18.384 31.585 18.447 31.562 18.499 31.541 C 18.602 31.5 18.658 31.478 18.658 31.478 C 18.658 31.478 18.632 31.482 18.582 31.489 C 18.558 31.493 18.527 31.498 18.491 31.503 C 18.455 31.511 18.414 31.522 18.368 31.532 C 18.32 31.541 18.27 31.56 18.214 31.578 C 18.157 31.594 18.098 31.619 18.033 31.645 C 18.017 31.651 18.001 31.658 17.984 31.665 C 17.968 31.672 17.951 31.681 17.935 31.689 C 17.901 31.705 17.866 31.722 17.831 31.739 C 17.826 31.742 17.821 31.745 17.816 31.747 C 17.79 31.76 17.765 31.771 17.738 31.784 C 17.748 31.77 17.761 31.755 17.761 31.755 C 17.761 31.755 17.745 31.765 17.717 31.782 C 17.688 31.799 17.648 31.826 17.595 31.856 C 17.49 31.913 17.342 31.99 17.167 32.05 C 16.993 32.111 16.794 32.159 16.595 32.185 C 16.397 32.211 16.199 32.216 16.024 32.214 C 15.675 32.201 15.482 32.165 15.364 32.173 C 15.247 32.174 15.208 32.215 15.194 32.254 C 15.181 32.292 15.183 32.348 15.289 32.43 C 15.315 32.451 15.349 32.469 15.39 32.49 C 15.431 32.51 15.48 32.534 15.539 32.551 C 15.599 32.569 15.666 32.59 15.747 32.601 C 15.786 32.607 15.828 32.617 15.874 32.619 C 15.919 32.623 15.967 32.626 16.017 32.628 C 16.117 32.63 16.223 32.622 16.331 32.605 C 16.324 32.608 16.317 32.61 16.311 32.613 C 16.238 32.638 16.164 32.673 16.087 32.712 C 15.935 32.793 15.774 32.9 15.625 33.039 C 15.477 33.179 15.356 33.335 15.261 33.486 C 15.215 33.563 15.172 33.637 15.139 33.71 C 15.122 33.746 15.106 33.78 15.092 33.815 C 15.079 33.849 15.066 33.882 15.054 33.915 C 15.029 33.978 15.014 34.038 14.999 34.09 C 14.992 34.116 14.985 34.14 14.979 34.163 C 14.975 34.185 14.971 34.206 14.967 34.225 C 14.953 34.3 14.947 34.341 14.947 34.341 C 14.947 34.341 14.975 34.31 15.021 34.254 C 15.033 34.24 15.045 34.224 15.059 34.207 C 15.074 34.191 15.089 34.173 15.106 34.154 C 15.139 34.115 15.175 34.071 15.218 34.025 C 15.239 34.002 15.261 33.977 15.284 33.952 C 15.306 33.926 15.331 33.902 15.356 33.875 C 15.403 33.821 15.458 33.768 15.513 33.709 C 15.626 33.596 15.749 33.476 15.88 33.351 C 15.964 33.274 16.04 33.207 16.118 33.137 C 16.06 33.209 16 33.278 15.944 33.353 C 15.832 33.501 15.724 33.652 15.616 33.807 C 15.508 33.963 15.404 34.122 15.302 34.281 C 15.121 34.563 14.945 34.838 14.768 35.101 C 14.689 35.179 14.62 35.268 14.535 35.34 C 14.312 35.524 14.062 35.681 13.795 35.79 C 13.529 35.897 13.248 35.967 12.974 35.962 C 12.836 35.965 12.702 35.942 12.574 35.909 L 12.478 35.88 C 12.462 35.876 12.447 35.869 12.432 35.862 L 12.387 35.842 C 12.325 35.82 12.27 35.782 12.212 35.751 C 12.103 35.682 12.005 35.596 11.918 35.496 C 11.833 35.395 11.762 35.281 11.703 35.161 C 11.588 34.918 11.532 34.646 11.541 34.389 C 11.549 34.131 11.623 33.895 11.747 33.695 C 11.764 33.671 11.78 33.646 11.796 33.623 C 11.812 33.598 11.832 33.577 11.849 33.554 C 11.883 33.508 11.926 33.47 11.963 33.428 C 12.046 33.353 12.129 33.283 12.221 33.23 C 12.309 33.172 12.403 33.133 12.494 33.097 C 12.541 33.084 12.586 33.066 12.632 33.056 C 12.678 33.048 12.723 33.034 12.768 33.031 C 12.947 33.007 13.118 33.025 13.265 33.067 C 13.413 33.112 13.545 33.187 13.65 33.276 C 13.758 33.363 13.836 33.465 13.89 33.566 C 13.945 33.665 13.971 33.769 13.979 33.862 C 13.985 33.946 13.97 34.032 13.941 34.108 C 13.912 34.184 13.871 34.251 13.828 34.306 C 13.74 34.417 13.646 34.481 13.568 34.518 C 13.489 34.554 13.424 34.567 13.374 34.573 C 13.323 34.578 13.285 34.581 13.26 34.587 C 13.234 34.593 13.219 34.603 13.212 34.617 C 13.206 34.63 13.206 34.648 13.221 34.676 C 13.237 34.702 13.27 34.737 13.335 34.77 C 13.399 34.802 13.499 34.83 13.633 34.815 C 13.765 34.8 13.928 34.739 14.09 34.597 C 14.169 34.525 14.248 34.433 14.314 34.311 C 14.38 34.191 14.431 34.038 14.436 33.857 C 14.438 33.813 14.434 33.772 14.432 33.728 C 14.429 33.684 14.421 33.64 14.414 33.595 C 14.404 33.551 14.393 33.505 14.38 33.461 C 14.372 33.439 14.364 33.417 14.357 33.395 C 14.349 33.372 14.34 33.35 14.33 33.328 C 14.252 33.153 14.137 32.985 13.984 32.846 C 13.833 32.704 13.647 32.586 13.427 32.507 C 13.206 32.433 12.961 32.402 12.706 32.43 C 12.641 32.433 12.578 32.449 12.513 32.461 C 12.448 32.473 12.384 32.495 12.319 32.514 C 12.191 32.56 12.061 32.614 11.936 32.691 C 11.81 32.764 11.691 32.86 11.576 32.966 C 11.521 33.023 11.462 33.078 11.412 33.144 C 11.387 33.177 11.359 33.207 11.335 33.243 C 11.312 33.278 11.289 33.313 11.264 33.349 C 11.24 33.384 11.222 33.424 11.2 33.462 C 11.179 33.5 11.157 33.539 11.141 33.581 C 11.124 33.621 11.107 33.662 11.089 33.703 C 11.076 33.746 11.062 33.79 11.048 33.833 C 11 34.007 10.968 34.189 10.967 34.372 C 10.96 34.739 11.046 35.107 11.212 35.438 C 11.296 35.602 11.4 35.757 11.524 35.895 C 11.65 36.031 11.796 36.151 11.955 36.244 C 12.036 36.286 12.115 36.332 12.201 36.36 L 12.264 36.385 C 12.286 36.392 12.306 36.401 12.329 36.406 L 12.458 36.44 C 12.632 36.477 12.809 36.496 12.983 36.485 C 13.258 36.476 13.518 36.402 13.766 36.305 C 13.671 36.387 13.577 36.461 13.485 36.525 C 13.292 36.659 13.112 36.756 12.951 36.826 C 12.79 36.9 12.646 36.939 12.522 36.973 C 12.397 37.002 12.291 37.02 12.202 37.03 C 12.157 37.034 12.117 37.04 12.079 37.045 C 12.043 37.046 12.01 37.049 11.98 37.052 C 11.92 37.061 11.874 37.064 11.839 37.073 C 11.768 37.09 11.739 37.118 11.731 37.148 C 11.723 37.177 11.731 37.215 11.792 37.268 C 11.823 37.294 11.867 37.327 11.931 37.353 C 11.963 37.368 11.999 37.382 12.041 37.398 C 12.083 37.41 12.131 37.421 12.185 37.433 C 12.291 37.454 12.423 37.466 12.581 37.459 C 12.737 37.447 12.921 37.423 13.123 37.355 C 13.151 37.346 13.183 37.33 13.211 37.32 C 13.234 37.315 13.254 37.315 13.278 37.309 C 13.476 37.257 13.688 37.165 13.888 37.029 C 14.09 36.89 14.263 36.725 14.406 36.558 C 14.444 36.514 14.464 36.475 14.498 36.431 C 14.5 36.429 14.502 36.427 14.504 36.425 C 14.741 36.166 14.958 35.864 15.156 35.545 C 15.259 35.38 15.35 35.206 15.446 35.035 C 15.419 35.248 15.416 35.474 15.458 35.698 C 15.481 35.819 15.515 35.939 15.564 36.054 C 15.612 36.169 15.672 36.277 15.742 36.375 C 15.883 36.571 16.066 36.726 16.266 36.822 C 16.366 36.87 16.467 36.899 16.565 36.916 C 16.589 36.92 16.613 36.923 16.637 36.926 C 16.662 36.927 16.686 36.929 16.71 36.93 C 16.733 36.931 16.757 36.93 16.78 36.928 C 16.803 36.926 16.825 36.926 16.847 36.923 C 17.023 36.899 17.167 36.835 17.28 36.762 C 17.394 36.688 17.478 36.604 17.54 36.523 C 17.57 36.482 17.596 36.444 17.615 36.404 C 17.637 36.368 17.651 36.33 17.663 36.297 C 17.678 36.265 17.683 36.232 17.69 36.204 C 17.694 36.19 17.697 36.177 17.699 36.164 C 17.699 36.151 17.7 36.139 17.701 36.127 C 17.703 36.104 17.704 36.085 17.703 36.067 C 17.701 36.05 17.698 36.035 17.695 36.023 C 17.681 35.973 17.662 35.959 17.642 35.956 Z " fill="rgb(171,141,98)"/><path d=" M 16.371 39.893 C 16.358 39.859 16.348 39.826 16.332 39.795 C 16.275 39.669 16.196 39.564 16.108 39.48 C 16.017 39.4 15.919 39.344 15.821 39.312 C 15.723 39.279 15.624 39.27 15.533 39.281 C 15.521 39.282 15.51 39.284 15.499 39.287 C 15.488 39.289 15.477 39.291 15.466 39.294 C 15.444 39.299 15.423 39.307 15.402 39.313 C 15.382 39.322 15.362 39.33 15.344 39.341 C 15.325 39.351 15.308 39.361 15.29 39.373 C 15.218 39.424 15.17 39.489 15.139 39.552 C 15.107 39.615 15.091 39.676 15.083 39.733 C 15.069 39.846 15.088 39.938 15.117 40.004 C 15.147 40.07 15.185 40.109 15.215 40.13 C 15.246 40.151 15.269 40.158 15.284 40.158 C 15.299 40.158 15.306 40.153 15.31 40.146 C 15.314 40.14 15.314 40.129 15.31 40.116 C 15.305 40.102 15.296 40.085 15.285 40.059 C 15.274 40.034 15.262 40.001 15.255 39.955 C 15.249 39.908 15.249 39.847 15.271 39.777 C 15.282 39.742 15.298 39.705 15.322 39.672 C 15.345 39.638 15.375 39.607 15.411 39.588 C 15.451 39.567 15.5 39.551 15.555 39.55 C 15.61 39.549 15.672 39.557 15.737 39.584 C 15.801 39.609 15.866 39.65 15.925 39.707 C 15.98 39.764 16.034 39.838 16.072 39.928 C 16.083 39.95 16.089 39.975 16.098 39.998 C 16.106 40.022 16.112 40.048 16.119 40.073 C 16.128 40.125 16.137 40.179 16.138 40.236 C 16.141 40.292 16.135 40.35 16.126 40.409 C 16.12 40.438 16.116 40.467 16.106 40.495 C 16.101 40.51 16.098 40.525 16.093 40.538 C 16.087 40.551 16.082 40.566 16.076 40.58 C 16.028 40.692 15.952 40.79 15.85 40.862 C 15.748 40.936 15.623 40.982 15.494 40.993 C 15.429 40.999 15.364 40.996 15.3 40.983 C 15.237 40.97 15.176 40.947 15.118 40.915 C 15.09 40.897 15.061 40.882 15.035 40.859 L 15.014 40.843 C 15.008 40.837 15 40.833 14.995 40.826 L 14.957 40.79 C 14.91 40.739 14.865 40.682 14.829 40.618 C 14.753 40.491 14.706 40.343 14.679 40.19 C 14.651 40.037 14.648 39.879 14.663 39.725 C 14.669 39.667 14.687 39.612 14.697 39.554 C 14.756 39.401 14.821 39.245 14.887 39.085 C 14.924 38.996 14.96 38.905 14.994 38.813 C 15.028 38.721 15.061 38.631 15.091 38.538 C 15.112 38.476 15.121 38.415 15.138 38.353 C 15.129 38.422 15.119 38.492 15.108 38.568 C 15.093 38.662 15.077 38.752 15.061 38.835 C 15.052 38.875 15.045 38.915 15.036 38.952 C 15.032 38.971 15.029 38.989 15.025 39.006 C 15.02 39.023 15.016 39.04 15.012 39.056 C 15.006 39.088 14.997 39.117 14.99 39.143 C 14.987 39.155 14.984 39.168 14.981 39.179 C 14.978 39.19 14.975 39.199 14.973 39.209 C 14.962 39.245 14.957 39.266 14.957 39.266 C 14.957 39.266 14.972 39.252 14.999 39.226 C 15.005 39.219 15.013 39.212 15.021 39.203 C 15.028 39.195 15.036 39.185 15.045 39.175 C 15.062 39.154 15.082 39.131 15.101 39.102 C 15.111 39.088 15.121 39.073 15.132 39.058 C 15.142 39.042 15.151 39.025 15.162 39.008 C 15.183 38.973 15.201 38.933 15.219 38.892 C 15.255 38.807 15.286 38.709 15.303 38.602 C 15.32 38.496 15.32 38.393 15.312 38.3 C 15.306 38.254 15.302 38.211 15.293 38.17 C 15.288 38.15 15.284 38.13 15.279 38.112 C 15.275 38.096 15.271 38.08 15.266 38.065 C 15.294 38.152 15.323 38.241 15.365 38.31 C 15.379 38.333 15.393 38.355 15.407 38.375 C 15.42 38.395 15.435 38.412 15.448 38.429 C 15.474 38.463 15.501 38.489 15.524 38.512 C 15.547 38.535 15.57 38.551 15.589 38.565 C 15.608 38.579 15.625 38.59 15.641 38.596 C 15.702 38.623 15.726 38.609 15.737 38.592 C 15.75 38.576 15.755 38.547 15.725 38.492 C 15.697 38.435 15.63 38.355 15.532 38.196 C 15.483 38.116 15.433 38.022 15.391 37.923 C 15.348 37.824 15.313 37.719 15.291 37.622 C 15.269 37.524 15.26 37.435 15.255 37.371 C 15.253 37.339 15.254 37.313 15.253 37.295 C 15.252 37.277 15.252 37.267 15.252 37.267 C 15.252 37.267 15.249 37.277 15.246 37.285 C 15.244 37.27 15.242 37.255 15.24 37.24 C 15.24 37.237 15.24 37.233 15.24 37.23 C 15.237 37.209 15.235 37.188 15.233 37.168 C 15.231 37.159 15.23 37.148 15.229 37.138 C 15.227 37.13 15.226 37.12 15.224 37.11 C 15.217 37.073 15.211 37.039 15.203 37.009 C 15.195 36.978 15.188 36.95 15.18 36.925 C 15.172 36.9 15.165 36.878 15.158 36.859 C 15.151 36.841 15.145 36.826 15.14 36.814 C 15.13 36.788 15.124 36.775 15.124 36.775 C 15.124 36.775 15.13 36.807 15.141 36.866 C 15.147 36.896 15.154 36.931 15.158 36.974 C 15.161 36.995 15.164 37.017 15.166 37.041 C 15.168 37.053 15.169 37.065 15.171 37.078 C 15.172 37.091 15.172 37.104 15.173 37.118 C 15.175 37.144 15.176 37.172 15.178 37.202 C 15.18 37.231 15.179 37.262 15.179 37.294 C 15.181 37.358 15.175 37.426 15.171 37.497 C 15.166 37.55 15.148 37.613 15.139 37.67 C 15.133 37.69 15.127 37.708 15.118 37.736 C 15.093 37.816 15.058 37.928 15.007 38.048 C 14.958 38.168 14.889 38.294 14.802 38.395 C 14.758 38.446 14.711 38.491 14.661 38.527 C 14.612 38.563 14.561 38.592 14.512 38.608 C 14.414 38.643 14.33 38.642 14.267 38.636 C 14.204 38.628 14.16 38.614 14.127 38.603 C 14.094 38.593 14.071 38.587 14.054 38.587 C 14.038 38.586 14.027 38.592 14.021 38.599 C 14.013 38.606 14.008 38.617 14.01 38.637 C 14.014 38.656 14.025 38.684 14.057 38.719 C 14.09 38.754 14.144 38.795 14.23 38.822 C 14.316 38.847 14.435 38.859 14.576 38.809 C 14.647 38.783 14.714 38.741 14.775 38.689 C 14.792 38.675 14.803 38.655 14.818 38.639 C 14.803 38.673 14.789 38.706 14.775 38.74 C 14.756 38.78 14.736 38.819 14.717 38.859 C 14.708 38.869 14.703 38.879 14.695 38.889 C 14.634 38.962 14.562 39.032 14.482 39.09 C 14.401 39.149 14.312 39.196 14.22 39.223 C 14.128 39.251 14.034 39.256 13.945 39.241 C 13.857 39.226 13.776 39.191 13.711 39.144 C 13.679 39.121 13.653 39.094 13.63 39.067 C 13.624 39.06 13.619 39.054 13.614 39.047 C 13.609 39.04 13.604 39.033 13.599 39.027 C 13.594 39.02 13.591 39.013 13.587 39.006 C 13.583 38.999 13.579 38.992 13.576 38.985 C 13.548 38.929 13.535 38.871 13.529 38.822 C 13.523 38.771 13.526 38.727 13.53 38.689 C 13.533 38.671 13.535 38.653 13.539 38.638 C 13.543 38.622 13.547 38.608 13.55 38.595 C 13.553 38.582 13.558 38.571 13.561 38.561 C 13.563 38.555 13.565 38.55 13.566 38.545 C 13.568 38.54 13.57 38.536 13.572 38.532 C 13.575 38.523 13.578 38.516 13.579 38.509 C 13.582 38.502 13.584 38.496 13.585 38.49 C 13.591 38.468 13.588 38.455 13.582 38.447 C 13.576 38.439 13.564 38.433 13.54 38.441 C 13.534 38.443 13.528 38.445 13.52 38.449 C 13.513 38.454 13.505 38.459 13.497 38.466 C 13.492 38.47 13.487 38.473 13.482 38.477 C 13.477 38.482 13.473 38.486 13.468 38.492 C 13.459 38.502 13.447 38.514 13.438 38.529 C 13.428 38.544 13.416 38.561 13.407 38.581 C 13.397 38.6 13.388 38.623 13.38 38.647 C 13.363 38.698 13.351 38.76 13.352 38.832 C 13.352 38.904 13.365 38.988 13.403 39.076 C 13.408 39.087 13.413 39.098 13.419 39.109 C 13.425 39.12 13.43 39.131 13.437 39.141 C 13.444 39.152 13.451 39.163 13.458 39.174 C 13.466 39.184 13.474 39.195 13.482 39.205 C 13.514 39.246 13.554 39.286 13.6 39.319 C 13.692 39.386 13.804 39.43 13.921 39.443 C 13.98 39.449 14.039 39.449 14.099 39.44 C 14.158 39.431 14.216 39.415 14.271 39.393 C 14.375 39.353 14.465 39.288 14.545 39.217 C 14.501 39.309 14.454 39.399 14.414 39.493 C 14.338 39.67 14.274 39.852 14.232 40.032 C 14.232 40.033 14.232 40.034 14.232 40.035 C 14.223 40.063 14.213 40.083 14.205 40.114 C 14.176 40.224 14.155 40.35 14.153 40.48 C 14.151 40.609 14.171 40.733 14.203 40.838 C 14.207 40.852 14.214 40.859 14.219 40.872 C 14.222 40.887 14.221 40.908 14.225 40.923 C 14.252 41.035 14.291 41.127 14.328 41.202 C 14.368 41.277 14.407 41.335 14.445 41.38 C 14.464 41.4 14.481 41.42 14.498 41.437 C 14.515 41.453 14.531 41.466 14.545 41.476 C 14.573 41.499 14.598 41.51 14.617 41.518 C 14.655 41.532 14.672 41.525 14.682 41.513 C 14.692 41.502 14.696 41.48 14.683 41.444 C 14.677 41.425 14.666 41.403 14.654 41.373 C 14.648 41.357 14.64 41.341 14.63 41.324 C 14.623 41.305 14.614 41.284 14.604 41.263 C 14.585 41.219 14.563 41.165 14.541 41.1 C 14.522 41.033 14.498 40.955 14.485 40.861 C 14.471 40.767 14.462 40.658 14.465 40.531 C 14.466 40.484 14.48 40.425 14.485 40.374 C 14.513 40.504 14.55 40.634 14.614 40.755 C 14.657 40.838 14.712 40.916 14.774 40.987 L 14.823 41.038 C 14.831 41.046 14.84 41.054 14.849 41.061 L 14.875 41.084 C 14.91 41.116 14.95 41.141 14.988 41.168 C 15.069 41.216 15.156 41.253 15.245 41.274 C 15.335 41.295 15.425 41.3 15.515 41.296 C 15.693 41.286 15.866 41.227 16.012 41.125 C 16.087 41.075 16.152 41.012 16.209 40.942 C 16.223 40.924 16.237 40.907 16.25 40.889 C 16.263 40.869 16.275 40.85 16.287 40.832 C 16.299 40.812 16.309 40.792 16.319 40.772 C 16.328 40.752 16.34 40.733 16.347 40.713 C 16.355 40.692 16.364 40.671 16.371 40.65 C 16.379 40.63 16.384 40.609 16.39 40.589 C 16.404 40.547 16.41 40.505 16.419 40.465 C 16.431 40.382 16.438 40.302 16.434 40.224 C 16.432 40.145 16.419 40.07 16.404 39.999 C 16.391 39.962 16.383 39.926 16.371 39.893 Z " fill="rgb(171,141,98)"/><path d=" M 76.317 50.062 C 76.605 50.01 76.823 49.863 76.985 49.631 C 77.147 49.397 77.196 49.145 77.149 48.883 C 77.1 48.606 76.963 48.373 76.731 48.211 C 76.499 48.049 76.244 47.987 75.954 48.039 C 75.665 48.091 75.447 48.237 75.286 48.469 C 75.124 48.702 75.063 48.97 75.112 49.247 C 75.159 49.509 75.307 49.726 75.539 49.889 C 75.772 50.051 76.027 50.113 76.317 50.062 Z  M 75.948 48.41 C 76.111 48.381 76.206 48.428 76.233 48.571 C 76.264 48.759 76.198 48.856 76.032 48.886 C 75.887 48.911 75.811 48.84 75.777 48.654 C 75.752 48.51 75.802 48.435 75.948 48.41 Z " fill="rgb(171,141,98)"/><path d=" M 77.889 51.652 C 77.689 51.443 77.526 51.216 77.416 50.977 C 77.29 50.729 77.211 50.511 77.173 50.301 C 77.117 50.367 77.005 50.426 76.857 50.507 C 76.693 50.577 76.551 50.616 76.428 50.61 C 76.832 51.203 77.12 51.83 77.267 52.495 C 77.413 53.16 77.38 53.735 77.179 54.204 C 77.204 53.89 77.197 53.551 77.162 53.205 C 77.126 52.846 77.054 52.52 76.955 52.198 C 76.844 51.879 76.709 51.578 76.536 51.297 C 76.364 51.016 76.144 50.77 75.894 50.584 C 75.989 50.961 76.012 51.323 75.961 51.643 C 75.924 51.962 75.81 52.24 75.633 52.461 C 75.468 52.68 75.24 52.844 74.959 52.934 C 74.663 53.028 74.336 53.019 73.94 52.926 C 73.979 53.218 74.111 53.425 74.314 53.578 C 74.528 53.716 74.76 53.798 75.029 53.79 C 75.286 53.784 75.543 53.697 75.797 53.531 C 76.052 53.362 76.261 53.094 76.405 52.757 C 76.481 52.88 76.517 53.009 76.501 53.147 C 76.496 53.27 76.467 53.41 76.438 53.552 C 76.396 53.694 76.354 53.837 76.311 53.981 C 76.267 54.112 76.251 54.25 76.261 54.383 C 76.282 54.651 76.364 54.879 76.535 55.079 C 76.693 55.282 76.87 55.44 77.091 55.536 C 77.305 55.443 77.45 55.269 77.529 55.024 C 77.607 54.779 77.672 54.538 77.724 54.298 C 77.75 54.143 77.764 53.991 77.733 53.821 C 77.716 53.647 77.686 53.477 77.66 53.333 C 77.634 53.188 77.61 53.057 77.605 52.949 C 77.597 52.829 77.624 52.756 77.688 52.73 C 77.764 52.704 77.819 52.707 77.867 52.752 C 77.93 52.795 77.979 52.84 78.046 52.91 C 78.114 52.994 78.181 53.063 78.247 53.132 C 78.329 53.213 78.42 53.263 78.519 53.287 C 78.779 53.377 79.021 53.361 79.228 53.229 C 79.449 53.107 79.613 52.888 79.711 52.6 C 79.291 52.525 78.943 52.397 78.641 52.222 C 78.339 52.045 78.088 51.86 77.889 51.652 Z " fill="rgb(171,141,98)"/><path d=" M 85.184 47.866 C 85.035 47.634 84.842 47.466 84.617 47.343 C 84.482 47.272 84.344 47.255 84.214 47.292 C 84.086 47.33 83.956 47.366 83.832 47.429 C 83.693 47.482 83.568 47.544 83.442 47.595 C 83.314 47.644 83.181 47.654 83.053 47.623 C 83.145 47.457 83.168 47.278 83.097 47.114 C 83.04 46.947 82.89 46.865 82.662 46.879 C 82.582 47.109 82.47 47.321 82.359 47.529 C 82.244 47.727 82.091 47.929 81.894 48.115 C 81.695 48.299 81.427 48.468 81.103 48.622 C 80.764 48.777 80.34 48.907 79.83 49.013 C 79.412 49.1 79.034 49.113 78.72 49.022 C 78.405 48.928 78.059 48.813 77.695 48.676 C 77.733 48.736 77.748 48.815 77.763 48.907 C 77.769 49.015 77.771 49.096 77.756 49.167 C 78.085 49.338 78.475 49.473 78.899 49.572 C 79.324 49.673 79.787 49.684 80.26 49.6 C 80.788 49.519 81.289 49.362 81.788 49.123 C 82.275 48.887 82.634 48.619 82.881 48.332 C 82.831 48.584 82.633 48.836 82.297 49.086 C 81.962 49.336 81.552 49.545 81.036 49.693 C 80.535 49.849 79.981 49.935 79.376 49.962 C 78.77 49.988 78.172 49.906 77.584 49.726 C 77.998 49.991 78.408 50.162 78.839 50.221 C 79.27 50.278 79.717 50.279 80.164 50.2 C 80.613 50.135 81.066 50.012 81.527 49.861 C 81.973 49.7 82.416 49.526 82.86 49.352 C 83.3 49.166 83.731 48.993 84.164 48.834 C 84.583 48.678 84.983 48.566 85.352 48.501 C 85.398 48.302 85.347 48.093 85.184 47.866 Z " fill="rgb(171,141,98)"/><path d=" M 87.083 48.974 C 87.014 49.19 86.923 49.368 86.802 49.526 C 86.668 49.686 86.542 49.818 86.395 49.899 C 86.245 49.978 86.07 49.982 85.896 49.919 C 86.233 49.832 86.494 49.622 86.695 49.301 C 86.894 48.98 86.952 48.618 86.863 48.2 C 86.828 48.003 86.741 47.815 86.601 47.637 C 86.462 47.472 86.3 47.325 86.103 47.211 C 85.907 47.096 85.702 47.011 85.453 46.987 C 85.216 46.948 84.977 46.977 84.751 47.073 C 84.999 47.177 85.229 47.327 85.445 47.545 C 85.657 47.751 85.766 47.976 85.791 48.189 C 85.821 48.359 85.809 48.523 85.757 48.683 C 85.688 48.831 85.622 48.991 85.553 49.139 C 85.485 49.287 85.43 49.433 85.372 49.565 C 85.33 49.707 85.314 49.848 85.355 50.003 C 85.405 50.129 85.502 50.22 85.622 50.279 C 85.754 50.337 85.895 50.366 86.057 50.365 C 86.22 50.362 86.39 50.331 86.567 50.261 C 86.747 50.201 86.892 50.107 87.01 50.004 C 87.242 49.787 87.399 49.527 87.465 49.218 C 87.545 48.904 87.454 48.623 87.201 48.342 C 87.199 48.561 87.167 48.757 87.083 48.974 Z " fill="rgb(171,141,98)"/><path d=" M 75.034 50.168 C 74.546 50.553 74.025 50.823 73.448 51.008 C 72.872 51.192 72.308 51.307 71.786 51.346 C 71.248 51.375 70.794 51.333 70.394 51.216 C 69.99 51.084 69.729 50.913 69.594 50.694 C 69.913 50.881 70.343 51.006 70.894 51.058 C 71.432 51.111 71.97 51.082 72.48 50.978 C 72.952 50.892 73.385 50.735 73.749 50.494 C 74.122 50.236 74.43 49.978 74.679 49.703 C 74.641 49.642 74.613 49.565 74.584 49.475 C 74.568 49.384 74.566 49.303 74.581 49.234 C 74.275 49.49 74.003 49.716 73.724 49.902 C 73.461 50.097 73.118 50.226 72.682 50.291 C 72.166 50.37 71.724 50.394 71.366 50.364 C 70.993 50.322 70.695 50.252 70.433 50.151 C 70.184 50.047 69.972 49.92 69.794 49.762 C 69.617 49.605 69.452 49.445 69.3 49.268 C 69.068 49.336 68.952 49.453 68.959 49.64 C 68.95 49.819 69.03 49.968 69.175 50.09 C 69.066 50.165 68.937 50.201 68.801 50.198 C 68.665 50.196 68.529 50.193 68.39 50.177 C 68.24 50.175 68.105 50.174 67.971 50.184 C 67.838 50.194 67.726 50.255 67.612 50.37 C 67.442 50.564 67.322 50.801 67.26 51.058 C 67.186 51.328 67.21 51.54 67.325 51.724 C 67.693 51.658 68.107 51.624 68.568 51.622 C 69.015 51.624 69.479 51.637 69.955 51.646 C 70.434 51.669 70.908 51.666 71.381 51.662 C 71.866 51.643 72.334 51.601 72.778 51.508 C 73.238 51.426 73.646 51.285 74.03 51.081 C 74.412 50.863 74.753 50.571 75.034 50.168 Z " fill="rgb(171,141,98)"/><path d=" M 67.338 52.279 C 67.222 52.164 67.106 52.05 67.002 51.92 C 66.885 51.791 66.816 51.64 66.786 51.469 C 66.736 51.262 66.775 51.024 66.887 50.746 C 67.014 50.466 67.178 50.248 67.377 50.075 C 67.132 50.065 66.895 50.109 66.686 50.227 C 66.477 50.345 66.298 50.485 66.154 50.66 C 66.008 50.836 65.907 51.029 65.838 51.245 C 65.766 51.448 65.748 51.654 65.785 51.866 C 65.845 52.274 66.024 52.595 66.323 52.827 C 66.625 53.071 66.952 53.161 67.286 53.129 C 67.145 53.25 66.991 53.303 66.825 53.28 C 66.644 53.257 66.483 53.192 66.315 53.086 C 66.133 52.982 65.985 52.834 65.845 52.654 C 65.707 52.491 65.593 52.307 65.518 52.117 C 65.375 52.455 65.388 52.75 65.571 53.017 C 65.741 53.283 65.977 53.471 66.287 53.606 C 66.432 53.661 66.599 53.686 66.774 53.682 C 66.965 53.689 67.136 53.658 67.289 53.603 C 67.442 53.549 67.564 53.473 67.669 53.373 C 67.772 53.273 67.82 53.155 67.822 53.019 C 67.81 52.873 67.758 52.733 67.658 52.628 C 67.568 52.509 67.453 52.395 67.338 52.279 Z " fill="rgb(171,141,98)"/><path d=" M 64.991 52.091 C 65.032 51.93 65.125 51.807 65.228 51.753 C 65.213 51.581 65.234 51.412 65.293 51.246 C 65.305 51.207 65.32 51.169 65.335 51.131 C 65.152 51.155 64.643 51.222 64.493 51.246 L 62.97 51.492 L 61.45 51.76 L 58.412 52.315 C 57.906 52.406 57.402 52.515 56.897 52.617 L 55.382 52.925 L 53.867 53.234 C 53.364 53.342 52.859 53.444 52.355 53.557 C 50.342 54.01 48.331 54.474 46.323 54.96 C 44.64 55.394 42.958 55.83 41.281 56.288 C 41.213 56.144 41.123 56.012 40.986 55.911 C 40.758 55.744 40.505 55.674 40.214 55.716 C 39.924 55.76 39.702 55.902 39.533 56.129 C 39.365 56.357 39.298 56.625 39.339 56.9 C 39.379 57.165 39.52 57.387 39.748 57.555 C 39.976 57.723 40.228 57.794 40.519 57.751 C 40.81 57.708 41.031 57.565 41.2 57.338 C 41.368 57.109 41.425 56.859 41.385 56.593 C 41.373 56.515 41.338 56.448 41.311 56.377 C 43.009 56.089 44.702 55.781 46.395 55.469 C 47.406 55.281 48.419 55.107 49.43 54.926 C 50.442 54.746 51.451 54.554 52.462 54.368 C 54.486 54.026 56.506 53.645 58.529 53.3 L 61.565 52.79 L 63.082 52.528 L 64.601 52.289 L 64.97 52.23 C 64.973 52.185 64.979 52.139 64.991 52.091 Z  M 40.269 56.561 C 40.127 56.58 40.056 56.51 40.028 56.329 C 40.006 56.187 40.058 56.119 40.199 56.097 C 40.361 56.072 40.449 56.119 40.47 56.263 C 40.498 56.444 40.43 56.536 40.269 56.561 Z " fill="rgb(171,141,98)"/><path d=" M 113.663 44.124 C 113.62 43.847 113.493 43.622 113.251 43.456 C 113.022 43.274 112.77 43.218 112.493 43.259 C 112.203 43.303 111.966 43.433 111.8 43.674 C 111.644 43.9 111.575 44.152 111.616 44.431 C 111.617 44.438 111.622 44.444 111.624 44.451 C 109.756 44.561 107.893 44.704 106.03 44.848 C 103.998 45.035 101.97 45.241 99.944 45.462 C 99.437 45.517 98.932 45.582 98.427 45.641 L 96.913 45.836 L 95.398 46.031 C 94.894 46.098 94.389 46.158 93.886 46.233 L 90.87 46.685 L 89.364 46.918 L 87.862 47.174 C 87.527 47.234 87.283 47.3 86.949 47.358 C 87.033 47.431 87.11 47.509 87.18 47.593 C 87.241 47.67 87.289 47.748 87.329 47.828 C 87.426 47.857 87.525 47.925 87.601 48.032 C 87.653 48.104 87.679 48.18 87.693 48.253 L 88.093 48.185 L 89.589 47.924 L 91.091 47.684 L 94.091 47.193 C 96.092 46.868 98.101 46.582 100.103 46.254 C 101.106 46.105 102.112 45.962 103.114 45.808 C 104.117 45.656 105.119 45.495 106.124 45.347 C 107.964 45.075 109.806 44.802 111.641 44.498 C 111.693 44.73 111.817 44.932 112.012 45.088 C 112.241 45.268 112.507 45.324 112.796 45.28 C 113.074 45.238 113.297 45.109 113.464 44.868 C 113.645 44.638 113.702 44.387 113.663 44.124 Z  M 112.667 44.039 C 112.527 44.06 112.447 44.001 112.426 43.861 C 112.408 43.738 112.468 43.66 112.607 43.638 C 112.729 43.619 112.809 43.679 112.827 43.801 C 112.849 43.941 112.789 44.022 112.667 44.039 Z " fill="rgb(171,141,98)"/><path d=" M 36.719 61.221 L 35.296 49.649 C 35.22 49.473 35.116 49.358 34.839 49.397 C 34.638 49.426 34.42 49.467 34.427 49.655 C 34.433 49.86 34.497 50.273 34.398 50.977 C 33.739 54.36 32.664 56.75 31.226 58.197 C 29.787 59.645 27.338 60.609 24.379 60.95 L 16.732 61.924 C 16.732 61.924 18.432 57.781 22.281 48.595 L 19.737 48.943 L 20.136 49.87 L 17.264 50.98 L 15.875 48.1 L 16.805 47.769 L 15.169 45.628 L 7.123 64.926 C 7.123 64.926 7.085 65.038 7.123 65.093 C 7.161 65.148 7.321 65.173 7.321 65.173 L 36.565 61.438 C 36.748 61.416 36.723 61.255 36.719 61.221 Z  M 8.944 62.899 C 8.944 62.899 11.221 57.299 15.005 48.253 L 16.837 51.927 L 20.531 50.539 L 15.781 61.988 L 8.944 62.899 Z " fill="rgb(0,0,0)"/><path d=" M 7.607 37.505 L 7.913 37.451 C 8.077 37.431 8.136 37.205 8.209 36.73 C 8.405 36.051 9.073 33.824 10.774 32.321 C 12.104 31.145 14.402 30.574 15.374 30.453 L 21.853 29.639 L 15.537 44.922 L 17.984 48.058 L 16.904 48.533 L 17.612 50.032 L 19.227 49.467 L 18.85 48.346 L 22.605 47.819 C 22.605 47.819 25.528 40.828 31.438 26.679 C 31.438 26.679 31.466 26.665 31.438 26.541 C 31.41 26.415 31.281 26.37 31.281 26.37 L 6.53 29.574 C 6.526 29.577 6.406 29.606 6.362 29.663 C 6.308 29.734 6.33 29.835 6.33 29.835 L 7.231 37.175 C 7.252 37.339 7.442 37.526 7.607 37.505 Z  M 29.689 28.637 L 21.989 47.121 L 18.655 47.529 L 16.456 44.839 L 22.87 29.48 L 29.689 28.637 Z " fill="rgb(0,0,0)"/><path d=" M 19.886 40.838 C 20.013 39.945 21.155 37.901 21.759 37.008 C 21.83 36.903 21.913 36.784 22.005 36.655 C 22.545 35.887 23.42 34.645 23.27 33.827 C 23.245 33.862 23.215 33.895 23.18 33.923 C 23.083 34 22.959 34.047 22.849 34.047 C 22.753 34.047 22.528 34.008 22.497 33.651 C 22.476 33.415 22.556 33.272 22.627 33.194 C 22.725 33.088 22.867 33.03 23.029 33.03 C 23.313 33.03 23.645 33.22 23.703 33.573 L 23.75 33.859 C 23.843 33.677 23.965 33.395 24.025 33.063 C 24.078 32.772 24.031 32.63 23.982 32.563 C 23.966 32.541 23.95 32.526 23.934 32.516 C 23.871 32.622 23.735 32.799 23.538 32.799 C 23.434 32.799 23.331 32.75 23.233 32.652 C 23.063 32.482 23.094 32.32 23.127 32.239 C 23.236 31.976 23.641 31.821 23.819 31.855 C 24.07 31.901 24.259 32.02 24.379 32.209 C 24.534 32.452 24.57 32.802 24.486 33.251 C 24.812 33.02 25.453 32.58 25.796 32.46 C 25.936 32.41 26.277 32.262 26.402 31.958 C 26.477 31.779 26.46 31.575 26.353 31.354 C 26.257 31.152 26.125 31.054 25.951 31.054 C 25.813 31.054 25.68 31.116 25.605 31.16 C 25.658 31.285 25.735 31.527 25.625 31.713 C 25.542 31.854 25.375 31.926 25.129 31.926 C 25.006 31.926 24.912 31.865 24.864 31.755 C 24.775 31.553 24.866 31.203 25.061 30.993 C 25.328 30.705 25.773 30.549 26.056 30.548 C 26.219 30.548 26.444 30.691 26.617 30.904 C 26.769 31.092 27.008 31.487 26.895 32.03 C 26.797 32.492 26.471 32.639 26.059 32.823 C 25.761 32.957 25.405 33.117 25.017 33.439 C 25.081 33.434 25.147 33.436 25.214 33.448 C 25.522 33.504 25.85 33.789 25.764 34.404 C 25.676 35.034 25.23 35.257 24.875 35.257 C 24.644 35.257 24.433 35.169 24.326 35.027 C 24.223 34.891 24.204 34.741 24.273 34.604 C 24.363 34.421 24.612 34.301 24.806 34.35 C 25.006 34.402 25.063 34.594 25.066 34.75 C 25.152 34.714 25.268 34.61 25.305 34.322 C 25.317 34.228 25.291 34.144 25.228 34.071 C 25.149 33.983 25.042 33.944 24.99 33.944 L 24.96 33.95 C 24.378 34.12 23.738 34.911 23.304 35.545 L 22.968 36.035 C 22.115 37.276 21.44 38.256 21.078 39.035 C 20.776 39.683 20.147 41.033 20.395 41.516 C 20.44 41.603 20.514 41.654 20.62 41.674 C 20.623 41.674 20.678 41.684 20.756 41.684 C 20.953 41.684 21.191 41.629 21.277 41.383 C 21.209 41.377 21.127 41.359 21.053 41.311 C 20.971 41.259 20.874 41.152 20.874 40.94 C 20.874 40.644 21.068 40.538 21.249 40.538 C 21.38 40.538 21.525 40.59 21.608 40.668 C 21.72 40.774 21.791 41.123 21.718 41.433 C 21.663 41.668 21.507 41.975 21.08 42.102 C 20.947 42.142 20.821 42.161 20.703 42.162 C 20.456 42.162 20.247 42.072 20.1 41.903 C 19.898 41.669 19.822 41.291 19.886 40.838 Z  M 19.226 42.085 C 19.287 41.98 19.372 41.922 19.465 41.92 C 19.467 41.919 19.489 41.916 19.518 41.916 C 19.705 41.916 19.834 42.017 19.863 42.187 C 19.916 42.492 19.751 42.654 19.603 42.726 C 19.685 42.854 19.819 42.918 20.01 42.918 C 20.499 42.918 21.195 42.514 21.567 42.274 C 22.275 41.817 22.574 41.166 22.737 40.716 C 22.861 40.376 22.764 39.748 22.525 39.344 C 22.409 39.147 22.27 39.028 22.135 39.007 C 21.816 38.956 21.731 39.21 21.709 39.348 C 21.993 39.401 22.092 39.587 22.086 39.756 C 22.079 39.974 21.911 40.165 21.727 40.165 L 21.693 40.163 C 21.304 40.115 21.236 39.816 21.221 39.53 C 21.21 39.301 21.335 39.002 21.526 38.8 C 21.725 38.59 21.976 38.505 22.23 38.565 C 22.557 38.639 22.784 38.937 22.924 39.197 C 22.923 38.683 22.901 38.25 22.876 37.765 L 22.868 37.612 C 22.846 37.195 22.956 36.554 23.199 36.192 C 23.45 35.819 23.727 35.761 23.966 35.752 L 24.001 35.752 C 24.264 35.752 24.528 35.851 24.784 36.047 C 24.913 36.145 24.966 36.383 24.9 36.577 C 24.846 36.741 24.719 36.835 24.552 36.835 L 24.524 36.834 C 24.378 36.825 24.3 36.755 24.26 36.697 C 24.17 36.565 24.191 36.38 24.212 36.281 C 24.13 36.225 24.052 36.197 23.982 36.197 C 23.681 36.197 23.484 36.731 23.427 37.228 C 23.379 37.651 23.391 38.165 23.403 38.664 C 23.415 39.181 23.428 39.717 23.373 40.147 C 23.2 41.495 22.478 42.467 21.228 43.035 C 20.179 43.512 19.671 44.108 19.642 44.46 C 19.627 44.638 19.675 44.797 19.777 44.907 C 19.873 45.011 20.01 45.064 20.162 45.053 C 20.333 45.042 20.4 44.926 20.425 44.833 C 20.422 44.833 20.42 44.833 20.418 44.833 C 20.159 44.833 19.965 44.605 19.946 44.394 C 19.935 44.275 19.996 44.118 20.094 44.01 C 20.284 43.801 20.557 43.84 20.779 44.134 C 20.978 44.396 21.002 44.743 20.844 45.062 C 20.704 45.347 20.453 45.531 20.205 45.533 C 19.564 45.533 19.212 45.197 19.206 44.588 C 19.201 44.069 19.542 43.579 19.733 43.346 C 19.476 43.295 19.331 43.138 19.253 43.002 C 19.078 42.701 19.103 42.3 19.226 42.085 Z " fill="rgb(0,0,0)"/><path d=" M 15.333 56.49 C 15.274 56.533 15.187 56.589 15.084 56.655 C 14.634 56.944 13.796 57.482 13.796 57.977 C 13.796 58.62 14.232 58.991 14.37 58.991 C 14.534 58.991 14.864 58.791 15.011 58.537 C 14.896 58.47 14.771 58.32 14.771 58.031 C 14.771 57.722 14.946 57.544 15.251 57.544 L 15.278 57.544 C 15.288 57.544 15.539 57.546 15.688 57.735 C 15.791 57.865 15.816 58.044 15.762 58.266 C 15.614 58.88 15.09 59.537 14.43 59.462 C 14.099 59.425 13.798 59.249 13.603 58.977 C 13.455 58.769 13.305 58.425 13.36 57.906 C 13.059 58.191 12.509 58.779 12.449 59.314 C 12.364 60.078 12.818 60.893 13.219 60.945 C 13.539 60.986 13.757 60.766 13.836 60.665 C 13.767 60.561 13.654 60.335 13.776 60.118 C 13.852 59.982 14.012 59.893 14.18 59.893 C 14.39 59.893 14.549 60.022 14.594 60.23 C 14.638 60.429 14.615 60.727 14.421 60.969 C 14.275 61.151 13.972 61.368 13.362 61.368 C 12.986 61.367 12.681 61.229 12.444 60.961 C 12.05 60.514 11.932 59.789 11.991 59.306 C 12.071 58.641 12.757 57.742 13.825 56.901 C 14.662 56.243 15.05 55.722 15.009 55.309 C 14.989 55.098 14.693 54.686 14.384 54.686 C 14.237 54.686 14.098 54.779 13.972 54.965 C 14.098 55.051 14.234 55.227 14.192 55.508 C 14.125 55.956 13.661 56.029 13.497 55.857 C 13.375 55.729 13.151 55.495 13.406 54.933 C 13.654 54.385 14.379 54.111 14.686 54.273 L 14.713 54.288 C 14.966 54.422 15.692 54.807 15.34 55.883 C 15.874 55.455 16.726 54.729 16.87 54.404 C 16.989 54.133 17.087 53.85 16.989 53.612 C 16.916 53.432 16.736 53.287 16.44 53.169 C 16.233 53.086 16.037 53.145 15.935 53.219 C 16.128 53.313 16.343 53.513 16.291 53.853 C 16.231 54.254 15.961 54.297 15.848 54.297 C 15.8 54.297 15.761 54.29 15.741 54.285 C 15.613 54.28 15.476 54.195 15.38 54.061 C 15.246 53.872 15.218 53.623 15.303 53.381 C 15.502 52.814 16.013 52.54 16.557 52.73 C 17.107 52.923 17.382 53.178 17.475 53.579 C 17.525 53.791 17.573 54.356 16.949 55.025 C 16.426 55.584 15.655 56.255 15.333 56.49 Z " fill="rgb(0,0,0)"/><path d=" M 39.082 41.947 C 37.399 42.192 36.559 42.308 34.879 42.525 C 34.879 42.525 34.786 42.148 35.199 42.095 C 35.611 42.041 35.507 40.165 35.491 40.063 C 35.438 39.427 35.411 39.109 35.359 38.474 C 33.749 37.927 31.818 39.106 31.286 40.865 C 31.171 41.267 30.812 42.76 31.171 42.72 C 31.583 42.675 31.418 43.082 31.418 43.082 C 30.101 43.231 29.375 43.385 28.059 43.511 C 28.059 43.511 28.148 43.113 28.534 43.075 C 28.97 43.032 29.612 41.071 29.647 40.963 C 30.923 36.862 32.197 32.544 33.471 28.442 C 33.507 28.334 34.097 26.372 33.659 26.422 C 33.274 26.467 33.44 26.059 33.44 26.059 C 35.158 25.86 36.019 25.753 37.741 25.522 C 37.741 25.522 37.833 25.898 37.421 25.953 C 37.008 26.007 37.134 27.933 37.129 27.985 C 37.372 30.921 37.615 33.856 37.859 36.792 C 38.519 36.26 37.946 35.589 37.946 35.589 C 39.571 35.364 39.734 37.694 37.986 38.43 C 38.029 38.942 38.052 39.198 38.095 39.709 C 38.09 39.761 38.268 41.677 38.706 41.614 C 39.093 41.558 39.082 41.947 39.082 41.947 Z  M 35.245 37.245 C 35.043 34.774 34.841 32.302 34.639 29.831 C 33.79 32.569 32.94 35.305 32.089 38.042 C 33.437 37.24 34.408 37.196 35.245 37.245 Z " fill="rgb(0,0,0)"/><path d=" M 53.787 39.556 C 52.117 39.864 51.282 40.016 49.612 40.31 C 49.612 40.31 49.561 39.931 49.968 39.858 C 50.376 39.786 50.401 37.941 50.401 37.785 C 50.401 34.777 50.401 31.68 50.401 28.673 C 49.147 32.695 47.891 36.717 46.633 40.738 C 45.342 37.044 44.051 33.35 42.763 29.655 C 42.763 32.766 42.763 35.878 42.763 38.989 C 42.763 38.989 42.789 40.981 43.221 40.912 C 43.603 40.852 43.578 41.244 43.578 41.244 C 42.274 41.453 41.623 41.557 40.319 41.752 C 40.319 41.752 40.268 41.371 40.676 41.309 C 41.082 41.247 41.109 39.351 41.109 39.247 C 41.109 35.289 41.109 31.331 41.109 27.372 C 41.109 27.269 41.082 25.38 40.676 25.442 C 40.268 25.504 40.319 25.107 40.319 25.107 C 41.674 24.903 42.351 24.797 43.705 24.579 C 44.824 27.772 45.945 30.965 47.066 34.156 C 48.179 30.584 49.291 27.01 50.401 23.436 C 51.756 23.195 52.433 23.072 53.788 22.822 C 53.788 22.822 53.839 23.203 53.431 23.277 C 53.024 23.352 52.973 25.254 52.973 25.357 C 52.973 29.315 52.973 33.363 52.973 37.321 C 52.973 37.425 53.024 39.309 53.431 39.234 C 53.838 39.159 53.787 39.556 53.787 39.556 Z " fill="rgb(0,0,0)"/><path d=" M 65.422 32.437 C 65.321 35.083 63.231 37.911 60.559 38.35 C 58.752 38.695 56.944 39.038 55.136 39.377 C 55.136 39.377 55.085 38.996 55.493 38.92 C 55.9 38.843 55.926 36.934 55.926 36.83 C 55.926 32.848 55.926 28.866 55.926 24.883 C 55.926 24.779 55.9 22.88 55.493 22.956 C 55.086 23.032 55.136 22.631 55.136 22.631 C 56.894 22.303 58.65 21.969 60.406 21.633 C 62.506 21.2 64.68 22.525 64.684 24.858 C 64.687 26.237 63.945 27.607 62.825 28.552 C 64.334 28.991 65.481 30.899 65.422 32.437 Z  M 58.497 29.171 C 59.159 28.888 59.887 28.706 60.533 28.417 C 61.568 27.954 62.137 26.544 62.137 25.345 C 62.137 23.623 60.788 22.473 59.133 22.789 C 58.904 22.832 58.7 22.897 58.497 22.988 C 58.497 25.049 58.497 27.11 58.497 29.171 Z  M 62.851 33.06 C 62.886 31.009 61.071 29.558 59.109 29.94 C 58.906 29.98 58.701 30.018 58.497 30.11 C 58.497 32.631 58.497 35.152 58.497 37.674 C 58.701 37.662 58.908 37.651 59.109 37.61 C 61.176 37.187 62.813 35.231 62.851 33.06 Z " fill="rgb(0,0,0)"/><path d=" M 77.133 35.199 C 75.474 35.488 74.644 35.638 72.984 35.941 C 72.984 35.941 72.703 35.602 73.086 35.532 C 73.493 35.458 72.398 33.758 72.322 33.668 C 71.277 32.064 70.769 31.352 69.954 31.505 C 69.954 32.545 69.954 33.066 69.954 34.107 C 69.954 34.211 70.005 36.101 70.412 36.025 C 70.82 35.949 70.769 36.349 70.769 36.349 C 69.098 36.659 68.263 36.818 66.593 37.135 C 66.593 37.135 66.543 36.754 66.95 36.677 C 67.357 36.599 67.383 34.747 67.383 34.591 C 67.383 30.618 67.383 26.645 67.383 22.671 C 67.383 22.515 67.357 20.672 66.95 20.75 C 66.543 20.827 66.593 20.427 66.593 20.427 C 68.426 20.079 69.344 19.905 71.176 19.565 C 74.186 18.839 76.853 21.45 76.879 24.442 C 76.9 26.961 75.249 29.398 73.187 30.672 C 73.87 31.683 74.211 32.189 74.893 33.201 C 74.893 33.201 76.115 34.987 76.548 34.911 C 76.956 34.839 77.133 35.199 77.133 35.199 Z  M 74.359 24.864 C 74.391 22.562 72.477 20.338 70.184 20.713 C 70.108 20.725 70.03 20.742 69.954 20.782 C 69.954 24.052 69.954 27.323 69.954 30.593 C 70.046 30.576 70.092 30.567 70.184 30.551 C 72.574 29.941 74.325 27.297 74.359 24.864 Z " fill="rgb(0,0,0)"/><path d=" M 88.947 33.389 C 87.287 33.614 86.457 33.735 84.797 33.987 C 84.797 33.987 84.67 33.616 85.077 33.555 C 85.485 33.493 85.205 31.639 85.179 31.538 C 85.067 30.91 85.011 30.597 84.9 29.969 C 83.198 29.46 81.394 30.526 81.03 32.271 C 80.952 32.673 80.672 34.253 81.03 34.194 C 81.437 34.127 81.309 34.538 81.309 34.538 C 80.005 34.751 79.354 34.861 78.051 35.085 C 78.051 35.085 78.102 34.686 78.482 34.621 C 78.916 34.547 79.374 32.572 79.4 32.464 C 80.291 28.348 81.182 24.233 82.072 20.117 C 82.099 20.009 82.506 18.046 82.072 18.116 C 81.691 18.177 81.819 17.767 81.819 17.767 C 83.519 17.492 84.369 17.359 86.07 17.108 C 86.07 17.108 86.197 17.479 85.791 17.54 C 85.383 17.601 85.688 19.504 85.688 19.556 C 86.206 22.462 86.723 25.367 87.241 28.272 C 87.851 27.743 87.215 27.08 87.215 27.08 C 88.82 26.851 89.202 29.164 87.521 29.896 C 87.612 30.403 87.659 30.656 87.75 31.163 C 87.75 31.216 88.107 33.115 88.54 33.055 C 88.921 33.002 88.947 33.389 88.947 33.389 Z  M 84.67 28.756 C 84.238 26.319 83.804 23.881 83.371 21.444 C 82.777 24.181 82.183 26.92 81.589 29.657 C 82.862 28.8 83.83 28.727 84.67 28.756 Z " fill="rgb(0,0,0)"/><path d=" M 99.818 32.048 C 98.464 32.156 97.786 32.219 96.432 32.352 C 95.145 28.617 93.856 24.882 92.562 21.149 C 92.562 24.227 92.562 27.386 92.562 30.464 C 92.562 30.464 92.588 32.467 93.021 32.417 C 93.402 32.372 93.377 32.761 93.377 32.761 C 92.074 32.911 91.422 32.991 90.118 33.16 C 90.118 33.16 90.067 32.78 90.474 32.728 C 90.881 32.676 90.907 30.847 90.907 30.692 C 90.907 26.766 90.907 22.757 90.907 18.831 C 90.907 18.676 90.881 16.854 90.474 16.905 C 90.067 16.958 90.118 16.565 90.118 16.565 C 91.473 16.389 92.149 16.307 93.504 16.152 C 94.482 18.988 95.458 21.825 96.432 24.662 C 96.432 22.509 96.432 20.358 96.432 18.206 C 96.432 18.052 96.407 16.227 95.999 16.268 C 95.592 16.31 95.643 15.919 95.643 15.919 C 97.313 15.746 98.148 15.669 99.818 15.535 C 99.818 15.535 99.869 15.916 99.461 15.95 C 99.054 15.983 99.004 17.841 99.004 17.969 C 99.004 21.896 99.004 25.822 99.004 29.749 C 99.004 29.852 99.054 31.725 99.461 31.691 C 99.869 31.658 99.818 32.048 99.818 32.048 Z " fill="rgb(0,0,0)"/><path d=" M 111.631 31.417 C 109.971 31.417 109.141 31.43 107.481 31.481 C 107.481 31.481 107.354 31.098 107.761 31.087 C 108.168 31.075 107.889 29.206 107.863 29.104 C 107.751 28.469 107.696 28.292 107.583 27.658 C 105.943 26.94 104.13 27.781 103.713 29.498 C 103.636 29.887 103.357 31.42 103.713 31.4 C 104.121 31.378 103.994 31.688 103.994 31.688 C 102.69 31.758 102.038 31.801 100.735 31.898 C 100.735 31.898 100.786 31.509 101.168 31.481 C 101.6 31.45 102.059 29.625 102.083 29.521 C 102.974 25.542 103.865 21.563 104.757 17.585 C 104.782 17.482 105.19 15.584 104.757 15.605 C 104.376 15.624 104.503 15.232 104.503 15.232 C 106.204 15.145 107.054 15.113 108.754 15.077 C 108.754 15.077 108.882 15.459 108.474 15.469 C 108.067 15.478 108.372 17.4 108.372 17.452 C 108.891 20.392 109.408 23.331 109.925 26.271 C 110.537 25.826 109.899 25.088 109.899 25.088 C 111.503 25.067 111.886 27.407 110.205 27.913 C 110.297 28.427 110.343 28.543 110.434 29.056 C 110.434 29.108 110.79 31.033 111.224 31.032 C 111.606 31.03 111.631 31.417 111.631 31.417 Z  M 107.354 26.431 C 106.922 23.968 106.489 21.506 106.056 19.043 C 105.46 21.686 104.866 24.329 104.273 26.971 C 105.546 26.262 106.514 26.302 107.354 26.431 Z " fill="rgb(0,0,0)"/></g></g></svg>