<svg xmlns="http://www.w3.org/2000/svg" xmlns:xlink="http://www.w3.org/1999/xlink" style="isolation:isolate" viewBox="0 0 500 144.86" width="500" height="144.86"><path d=" M 29.875 86.83 L 46.862 69.033 L 40.608 63.038 L 17.871 86.849 L 40.619 110.429 L 46.87 104.436 L 29.875 86.83 L 29.875 86.83 L 29.875 86.83 Z  M 76.904 46.627 L 68.027 46.627 L 46.535 119.642 L 55.409 119.642 L 76.904 46.627 L 76.904 46.627 Z  M 123.446 83.806 C 123.366 66.438 120.91 49.899 115.4 33.85 C 114.678 31.747 113.454 30.499 111.329 29.753 C 98.307 25.21 84.919 22.566 71.163 21.726 C 51.052 20.5 31.397 22.864 12.285 29.446 C 10.041 30.222 8.702 31.523 7.924 33.813 C 3.357 47.206 0.902 60.986 0.206 75.115 C -0.764 94.792 1.667 113.972 7.993 132.647 C 8.708 134.758 9.945 136.037 12.061 136.763 C 24.567 141.073 37.413 143.576 50.593 144.475 C 71.366 145.896 91.613 143.39 111.313 136.528 C 113.406 135.798 114.672 134.577 115.416 132.452 C 120.998 116.561 123.35 100.155 123.446 83.806 L 123.446 83.806 L 123.446 83.806 Z  M 82.825 63.038 L 76.574 69.034 L 93.563 86.831 L 76.566 104.436 L 82.817 110.426 L 105.565 86.85 L 82.825 63.038 Z " fill-rule="evenodd" fill="rgb(255,255,255)"/><path d=" M 500 42.152 L 474.794 134.593 L 472.281 134.593 L 468.204 134.593 L 465.691 134.593 L 440.49 42.152 L 447.078 42.152 L 470.143 127.094 L 493.21 42.152 L 500 42.152 Z  M 429.691 73.465 C 427.361 75.216 425.031 76.528 422.709 77.408 C 421.672 77.775 419.966 78.407 417.575 79.276 C 415.175 80.151 412.566 81.092 409.724 82.097 C 406.879 83.091 404.03 84.123 401.196 85.189 C 398.346 86.247 395.957 87.149 394.025 87.898 L 394.025 66.339 C 394.025 63.716 394.534 61.245 395.576 58.933 C 396.61 56.619 397.997 54.617 399.738 52.927 C 401.486 51.242 403.552 49.899 405.949 48.896 C 408.335 47.902 410.894 47.401 413.603 47.401 C 416.311 47.401 418.865 47.902 421.259 48.896 C 423.65 49.893 425.714 51.242 427.46 52.927 C 429.2 54.617 430.595 56.587 431.629 58.837 C 432.658 61.087 433.186 63.526 433.186 66.152 C 433.181 69.277 432.01 71.713 429.691 73.465 Z  M 432.01 48.531 C 429.691 46.27 426.942 44.492 423.775 43.175 C 420.606 41.869 417.215 41.211 413.6 41.211 C 409.982 41.211 406.581 41.869 403.422 43.175 C 400.247 44.49 397.509 46.27 395.187 48.531 C 392.857 50.773 391.015 53.431 389.655 56.491 C 388.301 59.557 387.621 62.839 387.621 66.336 L 387.621 110.4 C 387.621 113.903 388.301 117.187 389.655 120.242 C 391.015 123.311 392.854 125.961 395.187 128.216 C 397.509 130.463 400.247 132.247 403.422 133.561 C 406.583 134.872 409.982 135.528 413.6 135.528 C 417.215 135.528 420.611 134.872 423.775 133.561 C 426.942 132.247 429.691 130.463 432.01 128.216 C 434.335 125.961 436.18 123.311 437.542 120.242 C 438.896 117.19 439.573 113.903 439.573 110.4 L 433.181 110.4 C 433.181 113.026 432.653 115.502 431.624 117.811 C 430.589 120.12 429.198 122.119 427.454 123.809 C 425.711 125.497 423.645 126.848 421.254 127.843 C 418.86 128.842 416.308 129.338 413.6 129.338 C 410.891 129.338 408.332 128.842 405.941 127.843 C 403.544 126.848 401.481 125.497 399.732 123.809 C 397.991 122.122 396.603 120.122 395.571 117.811 C 394.531 115.502 394.014 113.023 394.014 110.4 L 394.014 94.464 C 395.696 93.962 398.021 93.152 400.996 92.019 C 403.968 90.897 407.037 89.777 410.204 88.647 C 413.363 87.527 416.303 86.439 419.022 85.362 C 421.741 84.307 423.671 83.587 424.834 83.211 C 434.655 79.716 439.568 74.086 439.568 66.336 L 439.568 66.152 C 439.568 62.772 438.888 59.557 437.534 56.491 C 436.18 53.431 434.338 50.773 432.01 48.531 Z  M 373.444 110.256 C 373.444 112.885 372.924 115.364 371.89 117.664 C 370.861 119.981 369.47 121.978 367.721 123.668 C 365.98 125.355 363.914 126.71 361.525 127.704 C 359.129 128.704 356.583 129.197 353.866 129.197 C 351.158 129.197 348.607 128.704 346.213 127.704 C 343.816 126.71 341.753 125.355 340.009 123.668 C 338.271 121.98 336.877 119.981 335.84 117.664 C 334.798 115.364 334.288 112.885 334.288 110.256 L 334.288 66.198 C 334.288 63.574 334.798 61.101 335.84 58.789 C 336.877 56.478 338.271 54.473 340.009 52.783 C 341.753 51.098 343.816 49.755 346.213 48.755 C 348.607 47.761 351.15 47.257 353.866 47.257 C 356.583 47.257 359.134 47.761 361.525 48.755 C 363.914 49.752 365.98 51.098 367.721 52.783 C 369.47 54.473 370.861 56.478 371.89 58.789 C 372.924 61.101 373.444 63.569 373.444 66.198 L 373.444 110.256 Z  M 373.444 49.691 C 370.994 46.948 368.081 44.82 364.722 43.317 C 361.363 41.818 357.74 41.072 353.866 41.072 C 350.251 41.072 346.853 41.725 343.693 43.037 C 340.526 44.346 337.783 46.129 335.459 48.39 C 333.131 50.634 331.289 53.292 329.935 56.353 C 328.575 59.418 327.893 62.697 327.893 66.198 L 327.893 110.256 C 327.893 113.762 328.575 117.046 329.935 120.101 C 331.289 123.172 333.123 125.822 335.459 128.077 C 337.783 130.322 340.526 132.103 343.693 133.422 C 346.861 134.729 350.251 135.39 353.866 135.39 C 357.74 135.39 361.363 134.601 364.722 133.044 C 368.081 131.484 370.994 129.386 373.444 126.755 L 373.444 134.446 L 379.848 134.446 L 379.848 110.253 L 379.848 66.198 L 379.848 0.002 L 373.444 0.002 L 373.444 49.691 Z  M 315.348 55.809 C 316.798 59.088 317.534 62.636 317.534 66.363 L 317.534 69.093 L 305.934 69.093 L 305.934 66.363 C 305.934 64.209 305.524 62.252 304.679 60.359 C 303.831 58.472 302.685 56.817 301.277 55.449 C 299.851 54.081 298.137 52.964 296.153 52.133 C 294.213 51.322 292.093 50.906 289.865 50.906 C 287.631 50.906 285.517 51.322 283.565 52.141 C 281.595 52.962 279.878 54.076 278.452 55.449 C 277.039 56.819 275.901 58.472 275.045 60.365 C 274.206 62.247 273.792 64.209 273.792 66.363 L 273.792 108.67 C 273.792 110.797 274.216 112.818 275.045 114.665 C 275.893 116.566 277.037 118.214 278.452 119.589 C 279.884 120.965 281.595 122.084 283.565 122.9 C 285.514 123.721 287.62 124.137 289.865 124.137 C 292.093 124.137 294.218 123.721 296.153 122.9 C 298.129 122.084 299.846 120.965 301.277 119.589 C 302.687 118.222 303.831 116.566 304.687 114.676 C 305.516 112.818 305.934 110.789 305.934 108.67 L 305.934 105.945 L 317.534 105.945 L 317.534 108.67 C 317.534 112.402 316.798 115.961 315.348 119.232 C 313.908 122.474 311.925 125.342 309.443 127.744 C 306.971 130.13 304.031 132.041 300.677 133.43 C 297.321 134.817 293.677 135.528 289.865 135.528 C 286.047 135.528 282.408 134.817 279.044 133.43 C 275.706 132.041 272.758 130.13 270.284 127.744 C 267.805 125.342 265.819 122.482 264.382 119.232 C 262.929 115.961 262.196 112.402 262.196 108.67 L 262.196 66.363 C 262.196 62.636 262.929 59.088 264.382 55.809 C 265.819 52.549 267.813 49.691 270.284 47.299 C 272.755 44.906 275.704 42.991 279.044 41.603 C 282.403 40.211 286.042 39.507 289.865 39.507 C 293.685 39.507 297.321 40.211 300.677 41.603 C 304.02 42.991 306.969 44.906 309.443 47.299 C 311.919 49.696 313.903 52.557 315.348 55.809 Z  M 229.686 124.137 C 227.455 124.137 225.335 123.721 223.387 122.9 C 221.422 122.084 219.702 120.965 218.276 119.589 C 216.855 118.214 215.714 116.566 214.866 114.665 C 214.04 112.818 213.619 110.797 213.619 108.67 L 213.619 66.363 C 213.619 64.206 214.029 62.247 214.869 60.359 C 215.714 58.472 216.863 56.819 218.276 55.449 C 219.697 54.076 221.419 52.962 223.387 52.141 C 225.341 51.322 227.463 50.906 229.689 50.906 C 231.915 50.906 234.034 51.322 235.985 52.133 C 237.961 52.964 239.678 54.081 241.104 55.449 C 242.514 56.817 243.658 58.472 244.511 60.359 C 245.35 62.252 245.758 64.209 245.758 66.363 L 245.758 108.67 C 245.758 110.789 245.34 112.818 244.511 114.676 C 243.66 116.566 242.514 118.222 241.104 119.589 C 239.672 120.965 237.95 122.084 235.985 122.9 C 234.037 123.721 231.925 124.137 229.686 124.137 Z  M 249.269 47.299 C 246.795 44.908 243.847 42.997 240.499 41.603 C 237.145 40.211 233.503 39.507 229.683 39.507 C 225.594 39.507 221.712 40.31 218.151 41.898 C 216.551 42.618 215.034 43.471 213.616 44.46 L 213.616 0.079 L 202.012 0.079 L 202.012 134.633 L 213.616 134.633 L 213.616 130.461 C 215.026 131.426 216.522 132.289 218.113 133.025 C 221.686 134.683 225.581 135.528 229.683 135.528 C 233.501 135.528 237.137 134.817 240.499 133.43 C 243.847 132.041 246.795 130.13 249.269 127.744 C 251.743 125.342 253.727 122.474 255.169 119.232 C 256.619 115.961 257.355 112.402 257.355 108.67 L 257.355 66.363 C 257.355 62.636 256.619 59.088 255.169 55.809 C 253.727 52.557 251.743 49.696 249.269 47.299 Z  M 166.036 124.137 C 163.802 124.137 161.683 123.721 159.737 122.9 C 157.772 122.084 156.053 120.965 154.624 119.589 C 153.208 118.214 152.064 116.566 151.217 114.665 C 150.388 112.818 149.961 110.797 149.961 108.67 L 149.961 103.637 C 149.961 101.605 150.684 100.134 152.222 98.966 C 154.227 97.463 156.301 96.322 158.401 95.567 C 159.404 95.21 161.027 94.602 163.269 93.76 L 170.709 90.974 C 173.41 89.966 176.15 88.969 178.848 88.023 C 180.005 87.615 181.098 87.215 182.106 86.858 L 182.106 108.667 C 182.106 110.787 181.682 112.813 180.853 114.673 C 180.005 116.561 178.859 118.216 177.446 119.587 C 176.022 120.962 174.3 122.079 172.328 122.898 C 170.384 123.721 168.268 124.137 166.036 124.137 Z  M 186.35 47.382 C 184.063 44.967 181.293 43.026 178.115 41.632 C 174.929 40.216 171.36 39.51 167.524 39.51 C 163.701 39.51 160.062 40.214 156.708 41.605 C 153.365 42.991 150.417 44.908 147.943 47.302 C 145.472 49.691 143.483 52.554 142.038 55.812 C 140.585 59.09 139.855 62.641 139.855 66.366 L 139.855 69.095 L 151.457 69.095 L 151.457 66.366 C 151.457 64.212 151.865 62.25 152.702 60.367 C 153.541 58.491 154.709 56.851 156.17 55.484 C 157.663 54.089 159.404 52.962 161.342 52.125 C 163.224 51.314 165.303 50.906 167.521 50.906 C 171.957 50.906 175.404 52.346 178.046 55.305 C 180.778 58.357 182.101 61.978 182.101 66.366 L 182.101 74.582 C 180.826 75.07 179.251 75.645 177.398 76.309 C 174.527 77.333 171.57 78.423 168.51 79.567 C 165.484 80.705 162.64 81.75 159.985 82.71 C 157.348 83.651 155.415 84.387 154.24 84.888 C 143.699 88.663 138.357 94.973 138.357 103.637 L 138.357 108.673 C 138.357 112.407 139.098 115.958 140.545 119.24 C 141.982 122.482 143.971 125.345 146.45 127.744 C 148.921 130.133 151.865 132.047 155.216 133.436 C 158.572 134.819 162.211 135.534 166.031 135.534 C 170.128 135.534 174.023 134.691 177.606 133.03 C 179.192 132.289 180.69 131.423 182.101 130.455 L 182.101 134.633 L 193.697 134.633 L 193.697 66.363 C 193.697 62.679 193.033 59.149 191.735 55.894 C 190.429 52.644 188.619 49.779 186.35 47.382 Z " fill="rgb(255,255,255)"/></svg>